<?xml version="1.0" encoding="utf-8"?>
<!-- Generator: $$$/GeneralStr/196=Adobe Illustrator 27.6.0, SVG Export Plug-In . SVG Version: 6.00 Build 0)  -->
<svg version="1.1" xmlns="http://www.w3.org/2000/svg" xmlns:xlink="http://www.w3.org/1999/xlink" x="0px" y="0px" width="841.9px"
	 height="595.3px" viewBox="0 0 841.9 595.3" style="enable-background:new 0 0 841.9 595.3;" xml:space="preserve">
<style type="text/css">
	.st0{fill:#A9DAE1;stroke:#000000;stroke-miterlimit:10;}
	.st1{fill:#99C1C4;stroke:#000000;stroke-linecap:round;stroke-linejoin:round;stroke-miterlimit:10;}
	.st2{fill:#FFFFFF;stroke:#000000;stroke-miterlimit:10;}
	.st3{fill:#75C8D4;stroke:#000000;stroke-miterlimit:10;}
	.st4{fill:#C2D37E;stroke:#000000;stroke-miterlimit:10;}
	.st5{fill:none;stroke:#000000;stroke-linecap:round;stroke-linejoin:round;stroke-miterlimit:10;}
	.st6{fill:#CA83B7;stroke:#000000;stroke-linecap:round;stroke-linejoin:round;stroke-miterlimit:10;}
	.st7{fill:#FFFACE;stroke:#000000;stroke-linecap:round;stroke-linejoin:round;stroke-miterlimit:10;}
	.st8{fill:#CDD0EA;stroke:#000000;stroke-linecap:round;stroke-linejoin:round;stroke-miterlimit:10;}
	.st9{fill:#8EBBE5;stroke:#000000;stroke-linecap:round;stroke-linejoin:round;stroke-miterlimit:10;}
	.st10{fill:#FFFFFF;stroke:#000000;stroke-linecap:round;stroke-linejoin:round;stroke-miterlimit:10;}
	.st11{fill:#CCACD2;stroke:#000000;stroke-linecap:round;stroke-linejoin:round;stroke-miterlimit:10;}
	.st12{fill:#D7B57D;stroke:#000000;stroke-linecap:round;stroke-linejoin:round;stroke-miterlimit:10;}
	.st13{fill:#E3DBA5;stroke:#000000;stroke-linecap:round;stroke-linejoin:round;stroke-miterlimit:10;}
	.st14{fill:#1E1E1C;}
	.st15{fill:#CA9F78;stroke:#000000;stroke-miterlimit:10;}
	.st16{fill:#BFD7AF;stroke:#000000;stroke-miterlimit:10;}
	.st17{fill:#CA9F78;stroke:#000000;stroke-linecap:round;stroke-linejoin:round;stroke-miterlimit:10;}
	.st18{fill:#BFD7AF;stroke:#000000;stroke-linecap:round;stroke-linejoin:round;stroke-miterlimit:10;}
</style>
<g id="Calque_1">
</g>
<g id="Calque_2">
	<g>
		<rect class="st0" width="841.9" height="595.3"/>
		<circle class="st1" cx="425.2" cy="229.6" r="229.6"/>
		<path class="st2" d="M690,199.9h-2c0-0.1,0-0.2,0-0.4c0-9.4-7.6-17.1-17.1-17.1c-5.1,0-9.7,2.3-12.9,5.8c-3-6.5-9.5-11-17.1-11
			c-10.4,0-18.8,8.4-18.8,18.8c0,1.3,0.1,2.5,0.4,3.7h-3c-8.8,0-16,7.2-16,16v0c0,8.8,7.2,16,16,16H690c8.8,0,16-7.2,16-16v0
			C706.1,207.1,698.8,199.9,690,199.9z"/>
		<rect y="467.8" class="st3" width="841.9" height="127.5"/>
		<rect y="404.8" class="st4" width="841.9" height="63.8"/>
		<path class="st5" d="M11.1,525.1c0,0,33.5-13.9,59.8,0c26.3,13.9,68.9,15.4,96.7-3.1"/>
		<path class="st5" d="M20.7,547.6c0,0,41.2-6.2,61.8,14.4c20.6,20.6,65.6,0,65.6,0"/>
		<path class="st5" d="M105.5,558.9c0,0,34-16,58.9,0"/>
		<path class="st5" d="M75.9,508.2c0,0,12.6,8.9,27.2,8.9c20.5,0,37.3-13.9,64.6-4.4"/>
		<path class="st5" d="M276.1,529c0,0,35-9.9,74.5,0s67,10.4,88.1,4.2"/>
		<path class="st5" d="M305.1,505.6c0,0,22-8.5,40.8,0c18.9,8.5,52.2,0,52.2,0"/>
		<path class="st5" d="M300.7,549.2c0,0,7.2,2.5,17.1,0c11.9-3.1,34.7-4.8,50.9,3.5"/>
		<path class="st5" d="M398.1,519.2c0,0,32.7,8.7,60.8,0"/>
		<path class="st5" d="M550.8,515.7c0,0,30.3-9.3,54.9,0c24.6,9.3,65,17.4,99.7,0"/>
		<path class="st5" d="M567.4,548.9c0,0,28.9-11.3,52.7-0.2s50.3,5.3,55.6,0"/>
		<path class="st5" d="M632.4,501.2c0,0,24.6,10.8,51.3,0"/>
		<path class="st5" d="M632.4,567.9c0,0,30.3-9.1,54.2,0c23.8,9.1,53.4-12.2,53.4-12.2"/>
		<path class="st5" d="M709.6,536.6c0,0,40.7-13.7,65.7,0"/>
		<g>
			<rect x="226.7" y="165.4" class="st6" width="388.5" height="15.8"/>
			<path class="st7" d="M615.2,181.2v64.6h-8.4v-36.6c0-5.1-2.1-9.7-5.4-13c-3.3-3.3-7.9-5.4-13-5.4c-10.2,0-18.4,8.2-18.4,18.4
				v36.6h-10.5v-36.6c0-10.2-8.2-18.4-18.4-18.4c-10.2,0-18.4,8.2-18.4,18.4v36.6h-10.5v-36.6c0-5.1-2.1-9.7-5.4-13
				c-3.3-3.3-7.9-5.4-13-5.4c-10.2,0-18.4,8.2-18.4,18.4v36.6H465v-36.6c0-5.1-2.1-9.7-5.4-13c-3.3-3.3-7.9-5.4-13-5.4
				c-10.2,0-18.4,8.2-18.4,18.4v36.6h-10.5v-36.6c0-10.2-8.2-18.4-18.4-18.4c-10.2,0-18.4,8.2-18.4,18.4v36.6h-10.5v-36.6
				c0-5.1-2.1-9.7-5.4-13c-3.3-3.3-7.9-5.4-13-5.4c-10.2,0-18.4,8.2-18.4,18.4v36.6h-10.5v-36.6c0-5.1-2.1-9.7-5.4-13
				c-3.3-3.3-7.9-5.4-13-5.4c-10.2,0-18.4,8.2-18.4,18.4v36.6H276v-36.6c0-5.1-2.1-9.7-5.4-13c-3.3-3.3-7.9-5.4-13-5.4
				c-10.2,0-18.4,8.2-18.4,18.4v36.6h-12.5v-64.6H615.2z"/>
			<path class="st5" d="M395.7,63.4"/>
			<g>
				<g>
					<path class="st8" d="M311.4,103.9h-19c-1.4,0-2.6-1.2-2.6-2.6V101c0-1.4,1.2-2.6,2.6-2.6h19c1.4,0,2.6,1.2,2.6,2.6v0.3
						C314,102.7,312.8,103.9,311.4,103.9z"/>
					<polygon class="st9" points="310.4,98.4 293.5,98.4 290.3,88.3 313.5,88.3 					"/>
					<polygon class="st10" points="310.5,165.4 293.3,165.4 295.1,103.9 308.8,103.9 					"/>
					<line class="st5" x1="297.5" y1="103.9" x2="296" y2="165.4"/>
					<line class="st5" x1="300.5" y1="103.9" x2="299.9" y2="165.4"/>
					<line class="st5" x1="306.3" y1="103.9" x2="307.8" y2="165.4"/>
					<line class="st5" x1="303.3" y1="103.9" x2="303.9" y2="165.4"/>
					<path class="st5" d="M303.6,103.9"/>
				</g>
				<g>
					<path class="st8" d="M359,103.9h-19c-1.4,0-2.6-1.2-2.6-2.6V101c0-1.4,1.2-2.6,2.6-2.6h19c1.4,0,2.6,1.2,2.6,2.6v0.3
						C361.6,102.7,360.5,103.9,359,103.9z"/>
					<polygon class="st9" points="358,98.4 341.1,98.4 337.9,88.3 361.2,88.3 					"/>
					<polygon class="st10" points="358.1,165.4 340.9,165.4 342.7,103.9 356.4,103.9 					"/>
					<line class="st5" x1="345.1" y1="103.9" x2="343.6" y2="165.4"/>
					<line class="st5" x1="348.1" y1="103.9" x2="347.5" y2="165.4"/>
					<line class="st5" x1="354" y1="103.9" x2="355.4" y2="165.4"/>
					<line class="st5" x1="350.9" y1="103.9" x2="351.6" y2="165.4"/>
					<path class="st5" d="M351.2,103.9"/>
				</g>
				<g>
					<path class="st8" d="M406.6,103.9h-19c-1.4,0-2.6-1.2-2.6-2.6V101c0-1.4,1.2-2.6,2.6-2.6h19c1.4,0,2.6,1.2,2.6,2.6v0.3
						C409.2,102.7,408.1,103.9,406.6,103.9z"/>
					<polygon class="st9" points="405.6,98.4 388.7,98.4 385.5,88.3 408.8,88.3 					"/>
					<polygon class="st10" points="405.7,165.4 388.5,165.4 390.3,103.9 404,103.9 					"/>
					<line class="st5" x1="392.7" y1="103.9" x2="391.2" y2="165.4"/>
					<line class="st5" x1="395.7" y1="103.9" x2="395.1" y2="165.4"/>
					<line class="st5" x1="401.6" y1="103.9" x2="403" y2="165.4"/>
					<line class="st5" x1="398.5" y1="103.9" x2="399.2" y2="165.4"/>
					<path class="st5" d="M398.8,103.9"/>
				</g>
				<g>
					<path class="st8" d="M454.3,103.9h-19c-1.4,0-2.6-1.2-2.6-2.6V101c0-1.4,1.2-2.6,2.6-2.6h19c1.4,0,2.6,1.2,2.6,2.6v0.3
						C456.9,102.7,455.7,103.9,454.3,103.9z"/>
					<polygon class="st9" points="453.2,98.4 436.3,98.4 433.1,88.3 456.4,88.3 					"/>
					<polygon class="st10" points="453.3,165.4 436.2,165.4 437.9,103.9 451.6,103.9 					"/>
					<line class="st5" x1="440.3" y1="103.9" x2="438.8" y2="165.4"/>
					<line class="st5" x1="443.4" y1="103.9" x2="442.7" y2="165.4"/>
					<line class="st5" x1="449.2" y1="103.9" x2="450.7" y2="165.4"/>
					<line class="st5" x1="446.1" y1="103.9" x2="446.8" y2="165.4"/>
					<path class="st5" d="M446.4,103.9"/>
				</g>
				<g>
					<path class="st8" d="M501.9,103.9h-19c-1.4,0-2.6-1.2-2.6-2.6V101c0-1.4,1.2-2.6,2.6-2.6h19c1.4,0,2.6,1.2,2.6,2.6v0.3
						C504.5,102.7,503.3,103.9,501.9,103.9z"/>
					<polygon class="st9" points="500.8,98.4 483.9,98.4 480.7,88.3 504,88.3 					"/>
					<polygon class="st10" points="501,165.4 483.8,165.4 485.5,103.9 499.2,103.9 					"/>
					<line class="st5" x1="487.9" y1="103.9" x2="486.5" y2="165.4"/>
					<line class="st5" x1="491" y1="103.9" x2="490.3" y2="165.4"/>
					<line class="st5" x1="496.8" y1="103.9" x2="498.3" y2="165.4"/>
					<line class="st5" x1="493.8" y1="103.9" x2="494.4" y2="165.4"/>
					<path class="st5" d="M494,103.9"/>
				</g>
				<g>
					<path class="st8" d="M549.5,103.9h-19c-1.4,0-2.6-1.2-2.6-2.6V101c0-1.4,1.2-2.6,2.6-2.6h19c1.4,0,2.6,1.2,2.6,2.6v0.3
						C552.1,102.7,550.9,103.9,549.5,103.9z"/>
					<polygon class="st9" points="548.4,98.4 531.5,98.4 528.4,88.3 551.6,88.3 					"/>
					<polygon class="st10" points="548.6,165.4 531.4,165.4 533.1,103.9 546.8,103.9 					"/>
					<line class="st5" x1="535.5" y1="103.9" x2="534.1" y2="165.4"/>
					<line class="st5" x1="538.6" y1="103.9" x2="538" y2="165.4"/>
					<line class="st5" x1="544.4" y1="103.9" x2="545.9" y2="165.4"/>
					<line class="st5" x1="541.4" y1="103.9" x2="542" y2="165.4"/>
					<path class="st5" d="M541.6,103.9"/>
				</g>
			</g>
			<rect x="274.8" y="78.1" class="st6" width="292.3" height="10.2"/>
			<rect x="365.5" y="14.3" class="st6" width="111" height="9.9"/>
			<path class="st7" d="M476.4,24.2v54h-7.9V43.4c0-2.5-1-4.7-2.6-6.3c-1.6-1.6-3.8-2.6-6.3-2.6c-4.9,0-8.9,4-8.9,8.9v34.7h-8V43.4
				c0-2.5-1-4.7-2.6-6.3c-1.6-1.6-3.8-2.6-6.3-2.6c-4.9,0-8.9,4-8.9,8.9v34.7h-8V43.4c0-2.5-1-4.7-2.6-6.3c-1.6-1.6-3.8-2.6-6.3-2.6
				c-4.9,0-8.9,4-8.9,8.9v34.7h-8V43.4c0-2.5-1-4.7-2.6-6.3c-1.6-1.6-3.8-2.6-6.3-2.6c-4.9,0-8.9,4-8.9,8.9v34.7h-7.9v-54H476.4z"/>
			<rect x="148.4" y="245.7" class="st6" width="545" height="20.9"/>
			<g>
			</g>
			<path class="st7" d="M693.5,266.7v138.2h-26.2v-65.5c0-11.2-4.6-21.4-11.9-28.8c-7.4-7.4-17.5-11.9-28.8-11.9
				c-22.5,0-40.7,18.2-40.7,40.7v65.5H478.6v-66.1c0-31.8-25.8-57.6-57.6-57.6h0c-31.8,0-57.6,25.8-57.6,57.6v66.1H255.6v-65.5
				c0-11.2-4.6-21.4-11.9-28.8c-7.4-7.4-17.5-11.9-28.8-11.9c-22.5,0-40.7,18.2-40.7,40.7v65.5h-25.8V266.7H693.5z"/>
			<g>
				<polygon class="st6" points="315,322.8 310.5,331.1 306,322.8 310.5,318.2 				"/>
				<polygon class="st6" points="303.8,332.9 295.7,327.9 297.4,321.8 303.6,323.4 				"/>
				<polygon class="st6" points="298.9,337.8 289.5,337.5 287.8,331.3 294,329.7 				"/>
				<polygon class="st6" points="297.1,344.5 288.8,349 284.3,344.5 288.8,339.9 				"/>
				<polygon class="st6" points="298.9,351.1 294,359.2 287.8,357.6 289.5,351.4 				"/>
				<polygon class="st6" points="303.8,356.1 303.6,365.5 297.4,367.2 295.7,361 				"/>
				<polygon class="st6" points="315,366.1 310.5,370.7 306,366.1 310.5,357.8 				"/>
				<polygon class="st6" points="325.3,361 323.6,367.2 317.4,365.5 317.2,356.1 				"/>
				<polygon class="st6" points="333.2,357.6 327,359.2 322.1,351.1 331.5,351.4 				"/>
				<polygon class="st6" points="336.7,344.5 332.2,349 323.9,344.5 332.2,339.9 				"/>
				<polygon class="st6" points="333.2,331.3 331.5,337.5 322.1,337.8 327,329.7 				"/>
				<polygon class="st6" points="325.3,327.9 317.2,332.9 317.4,323.4 323.6,321.8 				"/>
				<polygon class="st8" points="308.3,336.1 307.2,338.7 304.4,338.4 303.8,332.9 				"/>
				<polygon class="st11" points="310.5,331.1 308.3,336.1 303.8,332.9 303.6,323.4 306,322.8 				"/>
				<polygon class="st8" points="304.7,341.1 302.2,342.2 298.9,337.8 304.4,338.4 				"/>
				<polygon class="st11" points="304.4,338.4 298.9,337.8 294,329.7 295.7,327.9 303.8,332.9 				"/>
				<polygon class="st8" points="303.8,344.5 302.2,346.7 297.1,344.5 302.2,342.2 				"/>
				<polygon class="st11" points="302.2,342.2 297.1,344.5 288.8,339.9 289.5,337.5 298.9,337.8 				"/>
				<polygon class="st8" points="304.7,347.8 304.4,350.6 298.9,351.1 302.2,346.7 				"/>
				<polygon class="st11" points="302.2,346.7 298.9,351.1 289.5,351.4 288.8,349 297.1,344.5 				"/>
				<polygon class="st8" points="308.3,352.8 303.8,356.1 304.4,350.6 307.2,350.3 				"/>
				<polygon class="st11" points="304.4,350.6 303.8,356.1 295.7,361 294,359.2 298.9,351.1 				"/>
				<polygon class="st8" points="312.7,352.8 310.5,357.8 308.3,352.8 310.5,351.1 				"/>
				<polygon class="st11" points="310.5,357.8 306,366.1 303.6,365.5 303.8,356.1 308.3,352.8 				"/>
				<polygon class="st8" points="317.2,356.1 312.7,352.8 313.8,350.3 316.6,350.6 				"/>
				<polygon class="st11" points="317.4,365.5 315,366.1 310.5,357.8 312.7,352.8 317.2,356.1 				"/>
				<polygon class="st8" points="322.1,351.1 316.6,350.6 316.3,347.8 318.8,346.7 				"/>
				<polygon class="st11" points="327,359.2 325.3,361 317.2,356.1 316.6,350.6 322.1,351.1 				"/>
				<polygon class="st11" points="332.2,349 331.5,351.4 322.1,351.1 318.8,346.7 323.9,344.5 				"/>
				<polygon class="st8" points="322.1,337.8 318.8,342.2 316.3,341.1 316.6,338.4 				"/>
				<polygon class="st8" points="323.9,344.5 318.8,346.7 317.2,344.5 318.8,342.2 				"/>
				<polygon class="st11" points="332.2,339.9 323.9,344.5 318.8,342.2 322.1,337.8 331.5,337.5 				"/>
				<polygon class="st8" points="317.2,332.9 316.6,338.4 313.8,338.7 312.7,336.1 				"/>
				<polygon class="st11" points="327,329.7 322.1,337.8 316.6,338.4 317.2,332.9 325.3,327.9 				"/>
				<polygon class="st8" points="312.7,336.1 310.5,337.8 308.3,336.1 310.5,331.1 				"/>
				<polygon class="st11" points="317.4,323.4 317.2,332.9 312.7,336.1 310.5,331.1 315,322.8 				"/>
			</g>
			<g>
				<polygon class="st6" points="538,322.8 533.5,331.1 528.9,322.8 533.5,318.2 				"/>
				<polygon class="st6" points="526.8,332.9 518.7,327.9 520.4,321.8 526.5,323.4 				"/>
				<polygon class="st6" points="521.9,337.8 512.4,337.5 510.8,331.3 517,329.7 				"/>
				<polygon class="st6" points="520.1,344.5 511.8,349 507.3,344.5 511.8,339.9 				"/>
				<polygon class="st6" points="521.9,351.1 517,359.2 510.8,357.6 512.4,351.4 				"/>
				<polygon class="st6" points="526.8,356.1 526.5,365.5 520.4,367.2 518.7,361 				"/>
				<polygon class="st6" points="538,366.1 533.5,370.7 528.9,366.1 533.5,357.8 				"/>
				<polygon class="st6" points="548.2,361 546.6,367.2 540.4,365.5 540.2,356.1 				"/>
				<polygon class="st6" points="556.2,357.6 550,359.2 545.1,351.1 554.5,351.4 				"/>
				<polygon class="st6" points="559.7,344.5 555.2,349 546.9,344.5 555.2,339.9 				"/>
				<polygon class="st6" points="556.2,331.3 554.5,337.5 545.1,337.8 550,329.7 				"/>
				<polygon class="st6" points="548.2,327.9 540.2,332.9 540.4,323.4 546.6,321.8 				"/>
				<polygon class="st8" points="531.2,336.1 530.1,338.7 527.4,338.4 526.8,332.9 				"/>
				<polygon class="st11" points="533.5,331.1 531.2,336.1 526.8,332.9 526.5,323.4 528.9,322.8 				"/>
				<polygon class="st8" points="527.7,341.1 525.1,342.2 521.9,337.8 527.4,338.4 				"/>
				<polygon class="st11" points="527.4,338.4 521.9,337.8 517,329.7 518.7,327.9 526.8,332.9 				"/>
				<polygon class="st8" points="526.8,344.5 525.1,346.7 520.1,344.5 525.1,342.2 				"/>
				<polygon class="st11" points="525.1,342.2 520.1,344.5 511.8,339.9 512.4,337.5 521.9,337.8 				"/>
				<polygon class="st8" points="527.7,347.8 527.4,350.6 521.9,351.1 525.1,346.7 				"/>
				<polygon class="st11" points="525.1,346.7 521.9,351.1 512.4,351.4 511.8,349 520.1,344.5 				"/>
				<polygon class="st8" points="531.2,352.8 526.8,356.1 527.4,350.6 530.1,350.3 				"/>
				<polygon class="st11" points="527.4,350.6 526.8,356.1 518.7,361 517,359.2 521.9,351.1 				"/>
				<polygon class="st8" points="535.7,352.8 533.5,357.8 531.2,352.8 533.5,351.1 				"/>
				<polygon class="st11" points="533.5,357.8 528.9,366.1 526.5,365.5 526.8,356.1 531.2,352.8 				"/>
				<polygon class="st8" points="540.2,356.1 535.7,352.8 536.8,350.3 539.6,350.6 				"/>
				<polygon class="st11" points="540.4,365.5 538,366.1 533.5,357.8 535.7,352.8 540.2,356.1 				"/>
				<polygon class="st8" points="545.1,351.1 539.6,350.6 539.3,347.8 541.8,346.7 				"/>
				<polygon class="st11" points="550,359.2 548.2,361 540.2,356.1 539.6,350.6 545.1,351.1 				"/>
				<polygon class="st11" points="555.2,349 554.5,351.4 545.1,351.1 541.8,346.7 546.9,344.5 				"/>
				<polygon class="st8" points="545.1,337.8 541.8,342.2 539.3,341.1 539.6,338.4 				"/>
				<polygon class="st8" points="546.9,344.5 541.8,346.7 540.2,344.5 541.8,342.2 				"/>
				<polygon class="st11" points="555.2,339.9 546.9,344.5 541.8,342.2 545.1,337.8 554.5,337.5 				"/>
				<polygon class="st8" points="540.2,332.9 539.6,338.4 536.8,338.7 535.7,336.1 				"/>
				<polygon class="st11" points="550,329.7 545.1,337.8 539.6,338.4 540.2,332.9 548.2,327.9 				"/>
				<polygon class="st8" points="535.7,336.1 533.5,337.8 531.2,336.1 533.5,331.1 				"/>
				<polygon class="st11" points="540.4,323.4 540.2,332.9 535.7,336.1 533.5,331.1 538,322.8 				"/>
			</g>
			<path class="st12" d="M247.7,340.3v64.5h-65.4v-64.5c0-18.1,14.6-32.7,32.7-32.7c9,0,17.2,3.7,23.1,9.6
				C244,323.1,247.7,331.3,247.7,340.3z"/>
			<path class="st12" d="M659.3,340.3v64.5h-65.4v-64.5c0-18.1,14.6-32.7,32.7-32.7c9,0,17.2,3.7,23.1,9.6
				C655.6,323.1,659.3,331.3,659.3,340.3z"/>
			<path class="st12" d="M466.4,338.5v66.4h-90.9v-66.4c0-25.1,20.4-45.5,45.5-45.5h0C446.1,293,466.4,313.4,466.4,338.5z"/>
			<path class="st13" d="M667.3,339.3v65.5h-8v-64.5c0-9-3.7-17.2-9.6-23.1c-5.9-5.9-14.1-9.6-23.1-9.6c-18.1,0-32.7,14.6-32.7,32.7
				v64.5h-8v-65.5c0-22.5,18.2-40.7,40.7-40.7c11.2,0,21.4,4.6,28.8,11.9C662.7,317.9,667.3,328.1,667.3,339.3z"/>
			<path class="st13" d="M478.6,338.8v66.1h-12.2v-66.4c0-25.1-20.4-45.5-45.5-45.5h0c-25.1,0-45.5,20.4-45.5,45.5v66.4h-12.2v-66.1
				c0-31.8,25.8-57.6,57.6-57.6h0C452.8,281.1,478.6,306.9,478.6,338.8z"/>
			<path class="st13" d="M255.6,339.3v65.5h-7.9v-64.5c0-9-3.7-17.2-9.6-23.1c-5.9-5.9-14.1-9.6-23.1-9.6c-18,0-32.7,14.6-32.7,32.7
				v64.5h-8v-65.5c0-22.5,18.2-40.7,40.7-40.7c11.2,0,21.4,4.6,28.8,11.9C251.1,317.9,255.6,328.1,255.6,339.3z"/>
			<line class="st12" x1="214.9" y1="298.6" x2="215" y2="307.6"/>
			<line class="st12" x1="199.9" y1="311.3" x2="193.4" y2="304.8"/>
			<line class="st12" x1="186.8" y1="323.8" x2="179.9" y2="318.7"/>
			<line class="st12" x1="182.3" y1="345.3" x2="174.3" y2="345.3"/>
			<line class="st12" x1="182.3" y1="365.6" x2="174.3" y2="365.6"/>
			<line class="st12" x1="182.3" y1="384.7" x2="174.3" y2="384.7"/>
			<line class="st12" x1="230" y1="311.3" x2="236.5" y2="304.8"/>
			<line class="st12" x1="243.1" y1="323.8" x2="250" y2="318.7"/>
			<line class="st12" x1="247.6" y1="345.3" x2="255.6" y2="345.3"/>
			<line class="st12" x1="247.6" y1="365.6" x2="255.6" y2="365.6"/>
			<line class="st12" x1="247.6" y1="384.7" x2="255.6" y2="384.7"/>
			<line class="st12" x1="626.6" y1="298.6" x2="626.7" y2="307.6"/>
			<line class="st12" x1="611.6" y1="311.3" x2="605.1" y2="304.8"/>
			<line class="st12" x1="598.4" y1="323.8" x2="591.5" y2="318.7"/>
			<line class="st12" x1="594" y1="345.3" x2="585.9" y2="345.3"/>
			<line class="st12" x1="594" y1="365.6" x2="585.9" y2="365.6"/>
			<line class="st12" x1="594" y1="384.7" x2="585.9" y2="384.7"/>
			<line class="st12" x1="641.6" y1="311.3" x2="648.1" y2="304.8"/>
			<line class="st12" x1="654.8" y1="323.8" x2="661.7" y2="318.7"/>
			<line class="st12" x1="659.2" y1="345.3" x2="667.3" y2="345.3"/>
			<line class="st12" x1="659.2" y1="365.6" x2="667.3" y2="365.6"/>
			<line class="st12" x1="659.2" y1="384.7" x2="667.3" y2="384.7"/>
			<line class="st12" x1="420.9" y1="281.1" x2="421" y2="292.8"/>
			<line class="st12" x1="399.7" y1="298.2" x2="390.8" y2="289.6"/>
			<line class="st12" x1="381.4" y1="315.6" x2="371.8" y2="308.7"/>
			<line class="st12" x1="375.5" y1="344.6" x2="363.3" y2="344.6"/>
			<line class="st12" x1="375.5" y1="372.5" x2="363.3" y2="372.5"/>
			<line class="st12" x1="375.5" y1="398.7" x2="363.3" y2="398.7"/>
			<line class="st12" x1="442.1" y1="298.2" x2="451.1" y2="289.6"/>
			<line class="st12" x1="460.4" y1="315.6" x2="470.1" y2="308.7"/>
			<line class="st12" x1="466.4" y1="344.6" x2="478.6" y2="344.6"/>
			<line class="st12" x1="466.4" y1="372.5" x2="478.6" y2="372.5"/>
			<line class="st12" x1="466.4" y1="398.7" x2="478.6" y2="398.7"/>
		</g>
		<path class="st2" d="M163.2,63.8h-3c0-0.2,0-0.3,0-0.5c0-13.8-11.2-25.1-25.1-25.1c-7.5,0-14.3,3.3-18.9,8.6
			c-4.4-9.5-14-16.2-25.2-16.2c-15.3,0-27.7,12.4-27.7,27.7c0,1.9,0.2,3.7,0.5,5.5h-4.3c-13,0-23.6,10.6-23.6,23.6v0
			c0,13,10.6,23.6,23.6,23.6h103.5c13,0,23.6-10.6,23.6-23.6v0C186.8,74.4,176.2,63.8,163.2,63.8z"/>
		<path class="st2" d="M89.2,225.1h-2c0-0.1,0-0.2,0-0.3c0-9-7.3-16.3-16.3-16.3c-4.9,0-9.3,2.2-12.3,5.6
			c-2.8-6.2-9.1-10.5-16.4-10.5c-10,0-18,8.1-18,18c0,1.2,0.1,2.4,0.4,3.6h-2.8c-8.5,0-15.4,6.9-15.4,15.4v0
			c0,8.5,6.9,15.4,15.4,15.4h67.5c8.5,0,15.4-6.9,15.4-15.4v0C104.6,232,97.7,225.1,89.2,225.1z"/>
		<path class="st2" d="M841.9,19.6v58.5h-67.3c-5.3,0-10.1-2.2-13.6-5.7c-3.5-3.5-5.6-8.3-5.6-13.6c0-10.6,8.6-19.2,19.2-19.2h3.5
			c-0.3-1.5-0.4-3-0.4-4.5c0-12.5,10.1-22.6,22.5-22.6c9.1,0,17,5.4,20.5,13.2c3.7-4.3,9.2-7,15.4-7
			C838.2,18.8,840.1,19.1,841.9,19.6z"/>
		<path class="st2" d="M794.3,292.3h-0.7c0,0,0-0.1,0-0.1c0-3.3-2.6-5.9-5.9-5.9c-1.8,0-3.4,0.8-4.4,2c-1-2.2-3.3-3.8-5.9-3.8
			c-3.6,0-6.5,2.9-6.5,6.5c0,0.4,0,0.9,0.1,1.3h-1c-3,0-5.5,2.5-5.5,5.5l0,0c0,3,2.5,5.5,5.5,5.5h24.3c3,0,5.5-2.5,5.5-5.5l0,0
			C799.9,294.8,797.4,292.3,794.3,292.3z"/>
		<path class="st14" d="M250.8,47.9c-16.6-24.1-49.3-7.8-49.3-7.8c34.1-4.5,50.3,14.4,50.3,14.4s9.9-22.9,43.9-28.5
			C295.7,26.2,259.7,20,250.8,47.9z"/>
		<path class="st14" d="M93.6,172c-6.3-11-21-5.2-21-5.2c14.9-0.7,21.2,8.1,21.2,8.1s5.1-9.5,20-10.7
			C113.8,164.3,98.5,160.3,93.6,172z"/>
		<path class="st14" d="M604.5,132.1c-4.5-14.5-23.1-11.5-23.1-11.5c17.5,3,22.6,14.9,22.6,14.9s8.4-9.7,26.1-7.2
			C630,128.3,613.2,119.7,604.5,132.1z"/>
		<g>
			<rect x="160.9" y="214.6" class="st15" width="2.7" height="31.2"/>
			<path class="st16" d="M178.8,201.7c0-3.8-3-7-6.8-7.3v-2.8c0-4.8-3.9-8.7-8.7-8.7h-2.3c-3.7,0-6.8,2.3-8.1,5.5c0,0-0.1,0-0.1,0
				c-2.9,0-5.2,2.3-5.2,5.2c0,2.7,2.1,5,4.8,5.2v9.9c-2.4,0.2-4.3,2.3-4.1,4.8c0.2,2.4,2.2,4.2,4.5,4.3c0.6,0,1.2-0.1,1.8-0.4
				c1.6,1.8,3.9,2.9,6.5,2.9h2.3c4.8,0,8.7-3.9,8.7-8.7v-2.8C175.8,208.6,178.8,205.5,178.8,201.7z"/>
		</g>
		<g>
			<rect x="100.5" y="349" class="st15" width="4.9" height="55.9"/>
			<path class="st16" d="M132.7,325.8c0-6.9-5.3-12.5-12.1-13v-5c0-8.6-7-15.6-15.6-15.6h-4.1c-6.6,0-12.2,4.1-14.5,9.9
				c-0.1,0-0.2,0-0.3,0c-5.2,0-9.4,4.2-9.4,9.4c0,4.9,3.8,8.9,8.6,9.4v17.7c-4.3,0.4-7.6,4.2-7.3,8.7c0.3,4.2,3.9,7.6,8.1,7.6
				c1.1,0,2.2-0.2,3.2-0.6c2.9,3.2,7,5.2,11.6,5.2h4.1c8.6,0,15.6-7,15.6-15.6v-5C127.3,338.3,132.7,332.7,132.7,325.8z"/>
		</g>
		<g>
			<rect x="318" y="55.3" class="st15" width="2" height="22.8"/>
			<path class="st16" d="M331.1,45.9c0-2.8-2.2-5.1-4.9-5.3v-2c0-3.5-2.9-6.3-6.3-6.3h-1.7c-2.7,0-5,1.7-5.9,4c0,0-0.1,0-0.1,0
				c-2.1,0-3.8,1.7-3.8,3.8c0,2,1.5,3.6,3.5,3.8v7.2c-1.8,0.2-3.1,1.7-3,3.5c0.1,1.7,1.6,3.1,3.3,3.1c0.5,0,0.9-0.1,1.3-0.3
				c1.2,1.3,2.9,2.1,4.7,2.1h1.7c3.5,0,6.3-2.9,6.3-6.3v-2C328.9,51,331.1,48.7,331.1,45.9z"/>
		</g>
		<g>
			<rect x="571.3" y="144" class="st15" width="1.9" height="21.3"/>
			<path class="st16" d="M583.6,135.2c0-2.6-2-4.8-4.6-5v-1.9c0-3.3-2.7-5.9-5.9-5.9h-1.6c-2.5,0-4.7,1.6-5.5,3.8c0,0-0.1,0-0.1,0
				c-2,0-3.6,1.6-3.6,3.6c0,1.9,1.4,3.4,3.3,3.6v6.8c-1.6,0.2-2.9,1.6-2.8,3.3c0.1,1.6,1.5,2.9,3.1,2.9c0.4,0,0.9-0.1,1.2-0.2
				c1.1,1.2,2.7,2,4.4,2h1.6c3.3,0,5.9-2.7,5.9-5.9v-1.9C581.5,140,583.6,137.8,583.6,135.2z"/>
		</g>
		<rect x="638.8" y="207.2" class="st15" width="3.9" height="38.6"/>
		<path class="st16" d="M661.7,187.9c-2.1-11.3-10.7-19.9-20.9-19.9c-7.4,0-13.9,4.4-17.8,11.1c-0.3-0.1-0.7-0.2-1.1-0.2
			c-1.8,0-3.3,1.7-3.3,3.7c0,1.4,0.7,2.6,1.6,3.2c-0.6,2.3-0.9,4.7-0.9,7.3c0,3.2,0.5,6.2,1.4,9c-2,1.3-3.3,3.8-3.3,6.6
			c0,4.2,3,7.6,6.7,7.6c1.9,0,3.5-0.8,4.8-2.2c3.4,2.6,7.4,4.2,11.8,4.2c6.7,0,12.8-3.7,16.7-9.4c0.4,0.1,0.8,0.1,1.3,0.1
			c5.3,0,9.5-4.8,9.5-10.8C668.2,193.4,665.5,189.3,661.7,187.9z"/>
		<rect x="796.3" y="350.9" class="st15" width="5.4" height="53.9"/>
		<path class="st16" d="M828.2,324c-2.9-15.9-14.9-27.8-29.3-27.8c-10.4,0-19.5,6.2-24.9,15.5c-0.5-0.2-1-0.3-1.5-0.3
			c-2.5,0-4.6,2.3-4.6,5.2c0,1.9,0.9,3.6,2.3,4.5c-0.8,3.2-1.3,6.6-1.3,10.1c0,4.4,0.7,8.7,2,12.6c-2.8,1.9-4.6,5.3-4.6,9.2
			c0,5.9,4.2,10.7,9.4,10.7c2.6,0,4.9-1.2,6.6-3.1c4.7,3.7,10.4,5.8,16.5,5.8c9.4,0,17.8-5.1,23.3-13.1c0.6,0.1,1.2,0.1,1.8,0.1
			c7.4,0,13.3-6.8,13.3-15.1C837.4,331.7,833.6,326,828.2,324z"/>
		<rect x="507.6" y="57.2" class="st15" width="2.1" height="20.9"/>
		<path class="st16" d="M520,46.8c-1.1-6.2-5.8-10.8-11.4-10.8c-4,0-7.6,2.4-9.6,6c-0.2-0.1-0.4-0.1-0.6-0.1c-1,0-1.8,0.9-1.8,2
			c0,0.7,0.4,1.4,0.9,1.7c-0.3,1.2-0.5,2.6-0.5,3.9c0,1.7,0.3,3.4,0.8,4.9c-1.1,0.7-1.8,2-1.8,3.6c0,2.3,1.6,4.1,3.7,4.1
			c1,0,1.9-0.5,2.6-1.2c1.8,1.4,4,2.3,6.4,2.3c3.7,0,6.9-2,9-5.1c0.2,0,0.5,0.1,0.7,0.1c2.9,0,5.2-2.6,5.2-5.9
			C523.5,49.7,522,47.5,520,46.8z"/>
		<g>
			<path class="st17" d="M205.2,245.6c0,0-4-20.2,2.7-40.8l0,0c-1.4,18.8,5.7,40.8,5.7,40.8H205.2z"/>
			<path class="st18" d="M207.6,206c0,0-9.2,8.7-11.2,23.7C196.4,229.7,190.4,207,207.6,206z"/>
			<path class="st18" d="M207.6,206c0,0-12.3-1.8-17.7,16.8C189.9,222.8,186.3,197.1,207.6,206z"/>
			<path class="st18" d="M207.6,206c0,0,4.1,7.8,3.2,16.1C210.8,222,217.1,209.1,207.6,206z"/>
			<path class="st18" d="M207.6,206c0,0,6.7,3.7,8.5,12.7C216.1,218.7,218.6,205.3,207.6,206z"/>
			<path class="st18" d="M207.6,206c0,0,11.9-0.2,16.1,12.7C223.7,218.7,226,200.1,207.6,206z"/>
			<path class="st18" d="M207.6,206c0,0,9.6-5.3,18.1-3.1C225.7,202.9,214.3,195.5,207.6,206z"/>
			<path class="st18" d="M207.6,206c0,0-9.4-3.8-20.8,5C186.8,211,196.1,196.6,207.6,206z"/>
			<path class="st18" d="M207.6,206c0,0,3.1-8.9,9.4-10.8C217,195.2,206.9,194.2,207.6,206z"/>
		</g>
		<g>
			<path class="st17" d="M34,404.8c0,0-6.9-34.6,4.6-70l0,0c-2.4,32.2,9.8,70,9.8,70H34z"/>
			<path class="st18" d="M38.2,336.8c0,0-15.9,14.9-19.3,40.7C18.9,377.5,8.6,338.6,38.2,336.8z"/>
			<path class="st18" d="M38.2,336.8c0,0-21-3.2-30.4,28.9C7.8,365.6,1.6,321.6,38.2,336.8z"/>
			<path class="st18" d="M38.2,336.8c0,0,7.1,13.3,5.5,27.6C43.7,364.3,54.4,342.2,38.2,336.8z"/>
			<path class="st18" d="M38.2,336.8c0,0,11.5,6.4,14.6,21.8C52.7,358.6,57.1,335.6,38.2,336.8z"/>
			<path class="st18" d="M38.2,336.8c0,0,20.4-0.4,27.7,21.8C65.9,358.6,69.7,326.7,38.2,336.8z"/>
			<path class="st18" d="M38.2,336.8c0,0,16.5-9.1,31.1-5.3C69.3,331.5,49.7,318.7,38.2,336.8z"/>
			<path class="st18" d="M38.2,336.8c0,0-16.2-6.5-35.7,8.6C2.4,345.3,18.5,320.6,38.2,336.8z"/>
			<path class="st18" d="M38.2,336.8c0,0,5.3-15.3,16.2-18.5C54.3,318.2,36.9,316.5,38.2,336.8z"/>
		</g>
		<g>
			<path class="st17" d="M732.3,404.8c0,0,6.9-34.6-4.6-70l0,0c2.4,32.2-9.8,70-9.8,70H732.3z"/>
			<path class="st18" d="M728.1,336.8c0,0,15.9,14.9,19.3,40.7C747.4,377.5,757.6,338.6,728.1,336.8z"/>
			<path class="st18" d="M728.1,336.8c0,0,21-3.2,30.4,28.9C758.5,365.6,764.6,321.6,728.1,336.8z"/>
			<path class="st18" d="M728.1,336.8c0,0-7.1,13.3-5.5,27.6C722.6,364.3,711.8,342.2,728.1,336.8z"/>
			<path class="st18" d="M728.1,336.8c0,0-11.5,6.4-14.6,21.8C713.5,358.6,709.1,335.6,728.1,336.8z"/>
			<path class="st18" d="M728.1,336.8c0,0-20.4-0.4-27.7,21.8C700.4,358.6,696.6,326.7,728.1,336.8z"/>
			<path class="st18" d="M728.1,336.8c0,0-16.5-9.1-31.1-5.3C697,331.5,716.6,318.7,728.1,336.8z"/>
			<path class="st18" d="M728.1,336.8c0,0,16.2-6.5,35.7,8.6C763.8,345.3,747.8,320.6,728.1,336.8z"/>
			<path class="st18" d="M728.1,336.8c0,0-5.3-15.3-16.2-18.5C711.9,318.2,729.3,316.5,728.1,336.8z"/>
		</g>
		<g>
			<path class="st17" d="M260.9,165.4c0,0,4-20.2-2.7-40.8l0,0c1.4,18.8-5.7,40.8-5.7,40.8H260.9z"/>
			<path class="st18" d="M258.4,125.7c0,0,9.2,8.7,11.2,23.7C269.7,149.4,275.7,126.7,258.4,125.7z"/>
			<path class="st18" d="M258.4,125.7c0,0,12.3-1.8,17.7,16.8C276.2,142.5,279.7,116.8,258.4,125.7z"/>
			<path class="st18" d="M258.4,125.7c0,0-4.1,7.8-3.2,16.1C255.2,141.8,249,128.9,258.4,125.7z"/>
			<path class="st18" d="M258.4,125.7c0,0-6.7,3.7-8.5,12.7C249.9,138.4,247.4,125,258.4,125.7z"/>
			<path class="st18" d="M258.4,125.7c0,0-11.9-0.2-16.1,12.7C242.3,138.4,240.1,119.8,258.4,125.7z"/>
			<path class="st18" d="M258.4,125.7c0,0-9.6-5.3-18.1-3.1C240.3,122.6,251.7,115.2,258.4,125.7z"/>
			<path class="st18" d="M258.4,125.7c0,0,9.4-3.8,20.8,5C279.3,130.7,269.9,116.3,258.4,125.7z"/>
			<path class="st18" d="M258.4,125.7c0,0-3.1-8.9-9.4-10.8C249,114.9,259.2,113.9,258.4,125.7z"/>
		</g>
		<line class="st5" x1="581.3" y1="340" x2="581.3" y2="398.7"/>
		<polyline class="st5" points="669.2,397.3 669.2,402.6 681.2,402.6 		"/>
		<line class="st5" x1="407.7" y1="177.1" x2="473.8" y2="177.1"/>
		<line class="st5" x1="512.7" y1="177.1" x2="526.7" y2="177.1"/>
		<polyline class="st5" points="489.5,96 498.3,96 499.9,92.2 		"/>
		<polyline class="st5" points="536.1,90.3 531.4,90.3 533.1,95.2 		"/>
		<polyline class="st5" points="564.7,82.6 564.7,80.4 550.5,80.4 		"/>
		<line class="st5" x1="297" y1="96.6" x2="306.3" y2="96.6"/>
		<line class="st5" x1="394.5" y1="25.9" x2="380.9" y2="25.9"/>
		<line class="st5" x1="411.4" y1="25.9" x2="418.7" y2="25.9"/>
		<polyline class="st5" points="473.9,18.6 473.9,21.8 458.6,21.8 		"/>
		<line class="st5" x1="371.7" y1="16.5" x2="397.6" y2="16.5"/>
		<polyline class="st5" points="818,473 835.7,473 835.7,482.8 		"/>
		<line class="st5" x1="835.7" y1="419.4" x2="835.7" y2="441.2"/>
		<line class="st5" x1="56.9" y1="409.2" x2="93.3" y2="409.2"/>
		<line class="st5" x1="128.9" y1="409.2" x2="153" y2="409.2"/>
		<line class="st5" x1="3.4" y1="436.7" x2="3.4" y2="460.6"/>
		<polyline class="st5" points="676.7,269.8 690.5,269.8 690.5,278.4 		"/>
		<line class="st5" x1="671.3" y1="269.8" x2="647.3" y2="269.8"/>
		<polyline class="st5" points="151.5,254.7 151.5,263.2 170.7,263.2 		"/>
		<line class="st5" x1="358.2" y1="249.3" x2="426.3" y2="249.3"/>
		<polyline class="st5" points="259.2,387.9 259.2,401.8 300.9,401.8 		"/>
		<line class="st5" x1="307" y1="401.8" x2="317.4" y2="401.8"/>
	</g>
</g>
</svg>
