<?xml version="1.0" encoding="utf-8"?>
<!-- Generator: $$$/GeneralStr/196=Adobe Illustrator 27.6.0, SVG Export Plug-In . SVG Version: 6.00 Build 0)  -->
<svg version="1.1" id="Calque_2" xmlns="http://www.w3.org/2000/svg" xmlns:xlink="http://www.w3.org/1999/xlink" x="0px" y="0px"
	 width="841.9px" height="595.3px" viewBox="0 0 841.9 595.3" style="enable-background:new 0 0 841.9 595.3;" xml:space="preserve"
	>
<style type="text/css">
	.st0{fill:#36A9E1;stroke:#000000;stroke-linecap:round;stroke-linejoin:round;stroke-miterlimit:10;}
	.st1{fill:#FFFFFF;stroke:#000000;stroke-miterlimit:10;}
	.st2{fill:#EDEDED;stroke:#000000;stroke-linecap:round;stroke-linejoin:round;stroke-miterlimit:10;}
	.st3{fill:#005F83;stroke:#000000;stroke-linecap:round;stroke-linejoin:round;stroke-miterlimit:10;}
	.st4{fill:#C6C6C6;stroke:#000000;stroke-linecap:round;stroke-linejoin:round;stroke-miterlimit:10;}
	.st5{fill:#E63812;stroke:#000000;stroke-linecap:round;stroke-linejoin:round;stroke-miterlimit:10;}
	.st6{fill:#EDEDED;stroke:#000000;stroke-width:0.5;stroke-linecap:round;stroke-linejoin:round;stroke-miterlimit:10;}
	.st7{fill:#1D71B8;stroke:#000000;stroke-linecap:round;stroke-linejoin:round;stroke-miterlimit:10;}
	.st8{fill:none;stroke:#29235C;stroke-linecap:round;stroke-linejoin:round;stroke-miterlimit:10;}
	.st9{fill:#008D36;stroke:#000000;stroke-linecap:round;stroke-linejoin:round;stroke-miterlimit:10;}
	.st10{fill:none;stroke:#412E14;stroke-linecap:round;stroke-linejoin:round;stroke-miterlimit:10;}
	.st11{fill:#DEDEDE;stroke:#000000;stroke-linecap:round;stroke-linejoin:round;stroke-miterlimit:10;}
	.st12{fill:#3AAA35;stroke:#000000;stroke-linecap:round;stroke-linejoin:round;stroke-miterlimit:10;}
	.st13{fill:#3AAA35;}
	.st14{fill:#604F25;}
	.st15{fill:#3AAA35;stroke:#604F25;stroke-linecap:round;stroke-linejoin:round;stroke-miterlimit:10;}
	.st16{fill:none;stroke:#000000;stroke-linecap:round;stroke-linejoin:round;stroke-miterlimit:10;}
	.st17{fill:#1E1E1C;}
	.st18{fill:#006633;}
	.st19{fill:#2FAC66;}
</style>
<g>
	<rect class="st0" width="841.9" height="595.3"/>
	<path class="st1" d="M541.2,50.1h-1.6c0-0.1,0-0.2,0-0.3c0-7.3-5.9-13.3-13.3-13.3c-4,0-7.6,1.8-10,4.5c-2.3-5-7.4-8.6-13.3-8.6
		c-8.1,0-14.6,6.6-14.6,14.6c0,1,0.1,2,0.3,2.9h-2.3c-6.9,0-12.5,5.6-12.5,12.5v0c0,6.9,5.6,12.5,12.5,12.5h54.8
		c6.9,0,12.5-5.6,12.5-12.5v0C553.7,55.7,548.1,50.1,541.2,50.1z"/>
	<path class="st1" d="M701.8,279h-1.1c0-0.1,0-0.1,0-0.2c0-5-4.1-9.1-9.1-9.1c-2.7,0-5.2,1.2-6.9,3.1c-1.6-3.5-5.1-5.9-9.2-5.9
		c-5.6,0-10.1,4.5-10.1,10.1c0,0.7,0.1,1.4,0.2,2h-1.6c-4.7,0-8.6,3.9-8.6,8.6l0,0c0,4.7,3.9,8.6,8.6,8.6h37.7
		c4.7,0,8.6-3.9,8.6-8.6l0,0C710.4,282.8,706.6,279,701.8,279z"/>
	<path class="st1" d="M225.1,52.6h-2.6c0-0.2,0-0.3,0-0.5c0-12-9.7-21.8-21.8-21.8c-6.5,0-12.4,2.9-16.4,7.5
		c-3.8-8.3-12.1-14-21.8-14c-13.3,0-24,10.7-24,24c0,1.6,0.2,3.2,0.5,4.8h-3.8c-11.2,0-20.4,9.2-20.4,20.4v0
		c0,11.2,9.2,20.4,20.4,20.4h89.9c11.2,0,20.4-9.2,20.4-20.4v0C245.6,61.8,236.4,52.6,225.1,52.6z"/>
	<rect x="295.3" y="358.7" class="st2" width="299.5" height="17.4"/>
	<rect x="281.5" y="376.1" class="st2" width="327.2" height="17.4"/>
	<rect x="308.9" y="341.4" class="st2" width="272.3" height="17.4"/>
	<rect x="321.4" y="324" class="st2" width="247.2" height="17.4"/>
	<rect x="324.1" y="173.5" class="st3" width="247.2" height="8.7"/>
	<rect x="315.4" y="149.3" class="st2" width="264.6" height="24.2"/>
	<g>
		<g>
			<rect x="339.3" y="315.2" class="st4" width="44.1" height="8.8"/>
			<rect x="344.3" y="306.4" class="st4" width="34.2" height="8.8"/>
			<polygon class="st2" points="358.7,208.9 357.9,306.4 347.1,306.4 351.1,208.9 			"/>
			<polygon class="st2" points="375.3,306.4 364.3,306.4 363.5,208.9 371.3,208.9 			"/>
			<path class="st5" d="M380.3,182.2c0,0-7.3,5.1-7.3,16h-22.7c0-10.8-7.3-16-7.3-16H380.3z"/>
			<path class="st2" d="M381.5,205.4c0,3.2-2.6,5.8-5.8,5.8c-1.7,0-3.2-0.9-4-2.3h-0.4v0h-20.2v0h-0.4c-0.8,1.4-2.3,2.3-4,2.3
				c-3.2,0-5.8-2.6-5.8-5.8c0-4,3.2-7.2,7.2-7.2h26.1C378.2,198.2,381.5,201.4,381.5,205.4z"/>
			<line class="st2" x1="354.6" y1="208.9" x2="351.3" y2="306.4"/>
			<polygon class="st2" points="364.3,306.4 357.9,306.4 358.7,208.9 363.5,208.9 			"/>
			<line class="st2" x1="367.6" y1="208.8" x2="370.9" y2="306.4"/>
			<line class="st2" x1="363.5" y1="208.9" x2="363.5" y2="208.8"/>
			<polyline class="st6" points="364.7,202.5 366.3,202.5 366.3,204.9 363.1,204.9 363.1,200.3 368.2,200.3 368.2,206.6 
				354.2,206.6 354.2,200.3 359.3,200.3 359.3,204.9 356.1,204.9 356.1,202.5 357.7,202.5 			"/>
			<rect x="360.5" y="202.1" class="st6" width="1.4" height="1.4"/>
			<path class="st2" d="M347.1,208.2c-1.3,0-2.4-1.1-2.4-2.4c0-1.6,1.3-3,3-3c2,0,3.7,1.6,3.7,3.7c0,0.8-0.2,1.6-0.6,2.3"/>
			<path class="st2" d="M371.7,208.9c-0.4-0.7-0.6-1.5-0.6-2.3c0-2,1.7-3.7,3.7-3.7c1.6,0,3,1.3,3,3c0,1.3-1.1,2.4-2.4,2.4"/>
		</g>
		<g>
			<rect x="395.7" y="315.2" class="st4" width="44.1" height="8.8"/>
			<rect x="400.6" y="306.4" class="st4" width="34.2" height="8.8"/>
			<polygon class="st2" points="415.1,208.9 414.2,306.4 403.5,306.4 407.5,208.9 			"/>
			<polygon class="st2" points="431.7,306.4 420.7,306.4 419.9,208.9 427.7,208.9 			"/>
			<path class="st5" d="M436.7,182.2c0,0-7.3,5.1-7.3,16h-22.7c0-10.8-7.3-16-7.3-16H436.7z"/>
			<path class="st2" d="M437.8,205.4c0,3.2-2.6,5.8-5.8,5.8c-1.7,0-3.2-0.9-4-2.3h-0.4v0h-20.2v0h-0.4c-0.8,1.4-2.3,2.3-4,2.3
				c-3.2,0-5.8-2.6-5.8-5.8c0-4,3.2-7.2,7.2-7.2h26.1C434.6,198.2,437.8,201.4,437.8,205.4z"/>
			<line class="st2" x1="411" y1="208.9" x2="407.6" y2="306.4"/>
			<polygon class="st2" points="420.7,306.4 414.2,306.4 415.1,208.9 419.9,208.9 			"/>
			<line class="st2" x1="423.9" y1="208.8" x2="427.3" y2="306.4"/>
			<line class="st2" x1="419.9" y1="208.9" x2="419.9" y2="208.8"/>
			<polyline class="st6" points="421.1,202.5 422.7,202.5 422.7,204.9 419.5,204.9 419.5,200.3 424.6,200.3 424.6,206.6 
				410.6,206.6 410.6,200.3 415.6,200.3 415.6,204.9 412.5,204.9 412.5,202.5 414.1,202.5 			"/>
			<rect x="416.9" y="202.1" class="st6" width="1.4" height="1.4"/>
			<path class="st2" d="M403.4,208.2c-1.3,0-2.4-1.1-2.4-2.4c0-1.6,1.3-3,3-3c2,0,3.7,1.6,3.7,3.7c0,0.8-0.2,1.6-0.6,2.3"/>
			<path class="st2" d="M428.1,208.9c-0.4-0.7-0.6-1.5-0.6-2.3c0-2,1.7-3.7,3.7-3.7c1.6,0,3,1.3,3,3c0,1.3-1.1,2.4-2.4,2.4"/>
		</g>
		<g>
			<rect x="452.1" y="315.2" class="st4" width="44.1" height="8.8"/>
			<rect x="457" y="306.4" class="st4" width="34.2" height="8.8"/>
			<polygon class="st2" points="471.4,208.9 470.6,306.4 459.8,306.4 463.8,208.9 			"/>
			<polygon class="st2" points="488,306.4 477.1,306.4 476.2,208.9 484,208.9 			"/>
			<path class="st5" d="M493,182.2c0,0-7.3,5.1-7.3,16H463c0-10.8-7.3-16-7.3-16H493z"/>
			<path class="st2" d="M494.2,205.4c0,3.2-2.6,5.8-5.8,5.8c-1.7,0-3.2-0.9-4-2.3H484v0h-20.2v0h-0.4c-0.8,1.4-2.3,2.3-4,2.3
				c-3.2,0-5.8-2.6-5.8-5.8c0-4,3.2-7.2,7.2-7.2H487C490.9,198.2,494.2,201.4,494.2,205.4z"/>
			<line class="st2" x1="467.4" y1="208.9" x2="464" y2="306.4"/>
			<polygon class="st2" points="477.1,306.4 470.6,306.4 471.4,208.9 476.2,208.9 			"/>
			<line class="st2" x1="480.3" y1="208.8" x2="483.7" y2="306.4"/>
			<line class="st2" x1="476.2" y1="208.9" x2="476.2" y2="208.8"/>
			<polyline class="st6" points="477.4,202.5 479,202.5 479,204.9 475.9,204.9 475.9,200.3 480.9,200.3 480.9,206.6 466.9,206.6 
				466.9,200.3 472,200.3 472,204.9 468.8,204.9 468.8,202.5 470.4,202.5 			"/>
			<rect x="473.2" y="202.1" class="st6" width="1.4" height="1.4"/>
			<path class="st2" d="M459.8,208.2c-1.3,0-2.4-1.1-2.4-2.4c0-1.6,1.3-3,3-3c2,0,3.7,1.6,3.7,3.7c0,0.8-0.2,1.6-0.6,2.3"/>
			<path class="st2" d="M484.4,208.9c-0.4-0.7-0.6-1.5-0.6-2.3c0-2,1.7-3.7,3.7-3.7c1.6,0,3,1.3,3,3c0,1.3-1.1,2.4-2.4,2.4"/>
		</g>
		<g>
			<rect x="508.4" y="315.2" class="st4" width="44.1" height="8.8"/>
			<rect x="513.4" y="306.4" class="st4" width="34.2" height="8.8"/>
			<polygon class="st2" points="527.8,208.9 526.9,306.4 516.2,306.4 520.2,208.9 			"/>
			<polygon class="st2" points="544.4,306.4 533.4,306.4 532.6,208.9 540.4,208.9 			"/>
			<path class="st5" d="M549.4,182.2c0,0-7.3,5.1-7.3,16h-22.7c0-10.8-7.3-16-7.3-16H549.4z"/>
			<path class="st2" d="M550.5,205.4c0,3.2-2.6,5.8-5.8,5.8c-1.7,0-3.2-0.9-4-2.3h-0.4v0h-20.2v0h-0.4c-0.8,1.4-2.3,2.3-4,2.3
				c-3.2,0-5.8-2.6-5.8-5.8c0-4,3.2-7.2,7.2-7.2h26.1C547.3,198.2,550.5,201.4,550.5,205.4z"/>
			<line class="st2" x1="523.7" y1="208.9" x2="520.4" y2="306.4"/>
			<polygon class="st2" points="533.4,306.4 526.9,306.4 527.8,208.9 532.6,208.9 			"/>
			<line class="st2" x1="536.6" y1="208.8" x2="540" y2="306.4"/>
			<line class="st2" x1="532.6" y1="208.9" x2="532.6" y2="208.8"/>
			<polyline class="st6" points="533.8,202.5 535.4,202.5 535.4,204.9 532.2,204.9 532.2,200.3 537.3,200.3 537.3,206.6 
				523.3,206.6 523.3,200.3 528.4,200.3 528.4,204.9 525.2,204.9 525.2,202.5 526.8,202.5 			"/>
			<rect x="529.6" y="202.1" class="st6" width="1.4" height="1.4"/>
			<path class="st2" d="M516.2,208.2c-1.3,0-2.4-1.1-2.4-2.4c0-1.6,1.3-3,3-3c2,0,3.7,1.6,3.7,3.7c0,0.8-0.2,1.6-0.6,2.3"/>
			<path class="st2" d="M540.8,208.9c-0.4-0.7-0.6-1.5-0.6-2.3c0-2,1.7-3.7,3.7-3.7c1.6,0,3,1.3,3,3c0,1.3-1.1,2.4-2.4,2.4"/>
		</g>
	</g>
	<g>
		<line class="st4" x1="552.3" y1="324" x2="508.1" y2="324"/>
		<line class="st5" x1="511.8" y1="182.2" x2="549.1" y2="182.2"/>
	</g>
	<path class="st5" d="M445.8,71.8l-141.4,77.5h282.8L445.8,71.8z M445.8,78.2L569.6,146H322L445.8,78.2z"/>
	<path class="st2" d="M445.8,78.2L322,146h247.6L445.8,78.2z M445.8,85.3l97.9,53.6H347.9L445.8,85.3z"/>
	<polygon class="st5" points="543.7,138.9 347.9,138.9 445.8,85.3 	"/>
	<g>
		<g>
			<rect x="335.4" y="149.3" class="st7" width="15.1" height="24.2"/>
			<line class="st8" x1="339" y1="152.3" x2="339" y2="169.5"/>
			<line class="st8" x1="347" y1="152.3" x2="347" y2="169.5"/>
			<line class="st8" x1="343" y1="152.3" x2="343" y2="169.5"/>
		</g>
		<g>
			<rect x="370.3" y="149.3" class="st7" width="15.1" height="24.2"/>
			<line class="st8" x1="373.9" y1="152.3" x2="373.9" y2="169.5"/>
			<line class="st8" x1="381.9" y1="152.3" x2="381.9" y2="169.5"/>
			<line class="st8" x1="377.9" y1="152.3" x2="377.9" y2="169.5"/>
		</g>
		<g>
			<rect x="405.2" y="149.3" class="st7" width="15.1" height="24.2"/>
			<line class="st8" x1="408.7" y1="152.3" x2="408.7" y2="169.5"/>
			<line class="st8" x1="416.8" y1="152.3" x2="416.8" y2="169.5"/>
			<line class="st8" x1="412.8" y1="152.3" x2="412.8" y2="169.5"/>
		</g>
		<g>
			<rect x="440.1" y="149.3" class="st7" width="15.1" height="24.2"/>
			<line class="st8" x1="443.6" y1="152.3" x2="443.6" y2="169.5"/>
			<line class="st8" x1="451.7" y1="152.3" x2="451.7" y2="169.5"/>
			<line class="st8" x1="447.7" y1="152.3" x2="447.7" y2="169.5"/>
		</g>
		<g>
			<rect x="474.9" y="149.3" class="st7" width="15.1" height="24.2"/>
			<line class="st8" x1="478.5" y1="152.3" x2="478.5" y2="169.5"/>
			<line class="st8" x1="486.5" y1="152.3" x2="486.5" y2="169.5"/>
			<line class="st8" x1="482.5" y1="152.3" x2="482.5" y2="169.5"/>
		</g>
		<g>
			<rect x="509.8" y="149.3" class="st7" width="15.1" height="24.2"/>
			<line class="st8" x1="513.3" y1="152.3" x2="513.3" y2="169.5"/>
			<line class="st8" x1="521.4" y1="152.3" x2="521.4" y2="169.5"/>
			<line class="st8" x1="517.4" y1="152.3" x2="517.4" y2="169.5"/>
		</g>
		<g>
			<rect x="544.7" y="149.3" class="st7" width="15.1" height="24.2"/>
			<line class="st8" x1="548.2" y1="152.3" x2="548.2" y2="169.5"/>
			<line class="st8" x1="556.3" y1="152.3" x2="556.3" y2="169.5"/>
			<line class="st8" x1="552.3" y1="152.3" x2="552.3" y2="169.5"/>
		</g>
	</g>
	<g>
		<path class="st9" d="M780.6,495.7c-14.1-0.7-53.7,1-53.7,1s-8.7-15-4.1-24.9s9.5,9.2,9.5,9.2s-3.5-18.1,1.4-28.7
			c4.9-10.6,8.9,16.2,8.9,16.2s1.2-19.3,8.7-15.7c7.4,3.6,3.3,23,3.3,23s4.3-29.7,12.9-25.8c8.6,3.9,4.7,24.1,4.7,24.1
			s5.5-16.6,10.9-13.7c5.4,2.9-3.2,18.6-3.2,18.6s12.7-11.1,9.2,3.2C789.2,482.1,784.7,495.9,780.6,495.7z"/>
		<polyline class="st10" points="763.5,493.5 764.4,487.7 763.5,476.2 766.1,463.6 		"/>
		<polyline class="st10" points="744.7,493.4 742.1,478.5 740.6,470.1 		"/>
		<line class="st10" x1="746.6" y1="474.5" x2="742.1" y2="478.5"/>
		<line class="st10" x1="743.4" y1="486.2" x2="736.8" y2="484.9"/>
		<line class="st10" x1="763.7" y1="479.6" x2="759.2" y2="482.5"/>
		<line class="st10" x1="764.9" y1="469.2" x2="762.2" y2="465.6"/>
		<line class="st10" x1="764" y1="489.9" x2="767.2" y2="489.9"/>
		<polyline class="st10" points="754,493.4 753.1,487.1 753.1,483.4 753.1,479.6 		"/>
		<line class="st10" x1="748.8" y1="482.5" x2="753.1" y2="483.4"/>
		<polyline class="st10" points="776.2,493.5 776.2,485.5 776.9,476.5 778,470.7 		"/>
		<line class="st10" x1="772.6" y1="477.3" x2="776.6" y2="479.6"/>
		<line class="st10" x1="779.3" y1="486.2" x2="776.2" y2="489.9"/>
		<line class="st10" x1="777.6" y1="473.1" x2="781.7" y2="470.1"/>
		<polyline class="st10" points="731.2,493.3 731.2,489.2 727.5,482.5 		"/>
		<line class="st10" x1="731.2" y1="483.4" x2="729.3" y2="485.5"/>
	</g>
	<polygon class="st11" points="0,150.4 218.8,150.4 153.7,221.9 150.3,273.6 145.4,309.4 147,353.1 190.2,363.1 248.3,375 
		276.5,390.9 615.1,390.9 650,402.8 670.6,462.5 720.6,493.3 821.3,493.7 841.9,462.4 841.9,595.3 0,595.3 	"/>
	<path class="st12" d="M180.2,120.8c-2.1,0-4.1,0.4-5.8,1.2c0.1-0.5,0.1-1.1,0.1-1.6c0-8.2-6.6-14.8-14.8-14.8
		c-1.3,0-2.5,0.2-3.7,0.5c-2.5-4.8-7.4-8-13.1-8c-5.7,0-10.6,3.2-13.1,7.9c-1-0.2-2.1-0.4-3.2-0.4c-8.2,0-14.8,6.6-14.8,14.8
		c0,0.2,0,0.4,0,0.6c-0.7-0.1-1.4-0.2-2.2-0.2c-8.2,0-14.8,6.6-14.8,14.8c0,8.2,6.6,14.8,14.8,14.8h70.6c8.2,0,14.8-6.6,14.8-14.8
		C195,127.4,188.3,120.8,180.2,120.8z"/>
	<g>
		<polyline class="st13" points="142.3,150.4 142.3,143.9 142.3,134.9 142.3,126.6 142.3,107.6 		"/>
		<path class="st14" d="M141.8,150.4c-0.7-0.2-0.4-0.4-0.5-0.7l0-0.7c0-0.8,0-3.2,0-4c0-8.3,0.1-18.4,0.2-26.8
			c0,0,0.2-10.7,0.2-10.7c0-0.3,0.2-0.5,0.5-0.5c0.3,0,0.5,0.2,0.5,0.5l0.2,10.7c0.1,8.4,0.2,18.5,0.2,26.8c0,0.8,0,3.2,0,4
			c0,0,0,0.7,0,0.7c0,0.2,0.2,0.4-0.5,0.7C142.5,150.5,142.1,150.5,141.8,150.4L141.8,150.4z"/>
	</g>
	<g>
		<path class="st14" d="M116.8,139.7l25.7,3.2l-0.6,0.1l12.6-5.4c0.6-0.2,1,0.6,0.4,0.9c0,0-12.2,6.3-12.2,6.3
			c-0.2,0.1-0.4,0.1-0.6,0.1l-25.5-4.2C116,140.6,116.1,139.7,116.8,139.7L116.8,139.7z"/>
	</g>
	<g>
		<path class="st14" d="M163.6,118.6c-6.3,5.2-13.2,10.6-19.6,15.7c-0.5,0.4-1.6,1.5-2.1,0.5c-0.1-0.8,0.8-1.1,1.2-1.6
			c2.4-1.9,6.8-5.3,9.2-7.2c3.5-2.8,7-5.5,10.6-8.2C163.5,117.5,164.1,118.2,163.6,118.6L163.6,118.6z"/>
	</g>
	<g>
		<path class="st14" d="M142.1,127c-0.4,0.2-0.9-0.2-1.2-0.3c0,0-1.1-0.6-1.1-0.6c-1.4-0.7-5.2-2.7-6.7-3.4c-3-1.5-5.9-3.1-8.9-4.7
			c-0.2-0.1-0.3-0.4-0.2-0.7c0.1-0.2,0.4-0.3,0.7-0.2c3,1.4,6.1,2.9,9.1,4.3c1.5,0.7,5.3,2.6,6.8,3.3c0.4,0.2,1.3,0.7,1.7,0.8
			C142.7,125.8,142.7,126.8,142.1,127L142.1,127z"/>
	</g>
	<line class="st15" x1="142.3" y1="115.2" x2="149.9" y2="111.7"/>
	<polyline class="st16" points="157.7,217.5 137.3,206.6 137.3,190.2 120.2,169.5 	"/>
	<line class="st16" x1="149.7" y1="278.2" x2="136.2" y2="282.6"/>
	<polyline class="st16" points="145.8,306.4 94.5,265.5 68.5,254.7 	"/>
	<polyline class="st16" points="0,222.1 10.2,253.1 33.4,204.7 	"/>
	<polyline class="st16" points="107.1,403.2 97.7,458.9 110,479.2 149.7,498.9 107.1,525.4 	"/>
	<polyline class="st16" points="190.2,363.1 194.8,393.5 194.8,429.7 214.5,433.1 221.3,464.3 	"/>
	<polyline class="st16" points="498,544.7 482.6,497.4 410.5,482 377.7,452.5 	"/>
	<polyline class="st16" points="295.3,595.3 275.8,579 275.8,554.1 	"/>
	<polyline class="st2" points="0,595.3 16.7,574.7 16.7,510.4 	"/>
	<polyline class="st16" points="774.6,493.5 755.6,510.4 755.6,544.7 804.1,564.8 	"/>
	<line class="st2" x1="841.9" y1="518.7" x2="823" y2="518.7"/>
	<polyline class="st16" points="638.4,398.8 631.5,419.4 638.4,510.4 594.8,583.7 	"/>
	<polyline class="st16" points="527.8,574.7 556.3,529.1 556.3,442.3 510.1,421.5 437.8,398.8 453.7,390.9 	"/>
	<path class="st17" d="M321.4,60.3c-7.8-15.9-28.8-9-28.8-9c20.8,0.3,28.8,13.1,28.8,13.1s8-12.8,28.8-13.1
		C350.3,51.3,329.2,44.4,321.4,60.3z"/>
	<path class="st17" d="M669.2,94.5c-15.6-31.9-57.9-18.1-57.9-18.1c41.8,0.6,57.9,26.3,57.9,26.3s16-25.7,57.9-26.3
		C727.1,76.3,684.9,62.5,669.2,94.5z"/>
	<path class="st17" d="M777.9,36.7c-8.9-18.3-33.1-10.4-33.1-10.4c23.9,0.4,33.1,15.1,33.1,15.1s9.2-14.7,33.1-15.1
		C811,26.3,786.9,18.4,777.9,36.7z"/>
	<path class="st17" d="M4.7,62.4c-1.4-2.8-3-5.1-4.7-7.1v8.3c3.3,3.2,4.7,5.5,4.7,5.5S17.9,48,52.4,47.5
		C52.4,47.5,17.6,36.1,4.7,62.4z"/>
	<path class="st16" d="M55.4,150.4c0,0-14,16.3-10.7,37.8c3.3,21.5,11.1,48.5-3.3,75.2"/>
	<path class="st16" d="M45.4,97"/>
	<g>
		<polygon class="st18" points="51.9,156.1 51.1,158.2 51,159.6 51.4,161.1 52.1,162.8 52.9,163.7 54.1,164.5 55.2,165.2 
			55.7,165.4 		"/>
		<path class="st19" d="M51.9,156.1c0,0,2,6.2,3.8,9.4l0-2.2l0.1-1.9l-0.1-2l-0.7-1.3l-1-1l-1.4-0.7L51.9,156.1z"/>
		<path class="st16" d="M51.9,156.1c0,0,4.4,1,4,4.9c-0.3,4-0.2,4.4-0.2,4.4S48.5,162.6,51.9,156.1z"/>
		<path class="st16" d="M58.2,163.4"/>
	</g>
	<g>
		<polygon class="st18" points="45.8,167.8 44.9,169.9 44,171 42.7,171.9 41.1,172.6 39.9,172.7 38.5,172.5 37.2,172.2 36.6,172 		
			"/>
		<path class="st19" d="M45.8,167.8c0,0-5.7,3.2-9.2,4.2l1.5-1.6l1.2-1.5l1.4-1.4l1.4-0.5l1.4,0l1.5,0.4L45.8,167.8z"/>
		<path class="st16" d="M45.8,167.8c0,0-3.8-2.3-6.3,0.9s-2.9,3.3-2.9,3.3S43.8,174.9,45.8,167.8z"/>
		<path class="st16" d="M36.2,168.9"/>
	</g>
	<g>
		<polygon class="st18" points="45.1,192.6 44.2,194.7 43.3,195.8 42,196.7 40.4,197.4 39.2,197.5 37.8,197.3 36.5,197 35.9,196.9 
					"/>
		<path class="st19" d="M45.1,192.6c0,0-5.7,3.2-9.2,4.2l1.5-1.6l1.2-1.5l1.4-1.4l1.4-0.5l1.4,0l1.5,0.4L45.1,192.6z"/>
		<path class="st16" d="M45.1,192.6c0,0-3.8-2.3-6.3,0.9c-2.5,3.1-2.9,3.3-2.9,3.3S43.1,199.7,45.1,192.6z"/>
		<path class="st16" d="M35.5,193.7"/>
	</g>
	<g>
		<polygon class="st18" points="48.4,216.3 47.4,218.4 46.5,219.4 45.2,220.2 43.5,220.9 42.3,220.9 40.9,220.6 39.6,220.4 
			39,220.1 		"/>
		<path class="st19" d="M48.4,216.3c0,0-5.8,3-9.4,3.8l1.5-1.5l1.3-1.4l1.5-1.3l1.4-0.4l1.4,0l1.5,0.5L48.4,216.3z"/>
		<path class="st16" d="M48.4,216.3c0,0-3.8-2.4-6.3,0.6c-2.6,3-3,3.2-3,3.2S46.1,223.3,48.4,216.3z"/>
		<path class="st16" d="M38.7,217"/>
	</g>
	<g>
		<polygon class="st18" points="48.8,238.3 47.1,239.8 45.8,240.4 44.2,240.6 42.4,240.6 41.3,240.1 40.2,239.3 39.1,238.5 
			38.7,238.1 		"/>
		<path class="st19" d="M48.8,238.3c0,0-6.5,0.4-10.1-0.2l2-0.8l1.7-0.8l1.9-0.6l1.5,0.2l1.3,0.6l1.2,1L48.8,238.3z"/>
		<path class="st16" d="M48.8,238.3c0,0-2.5-3.7-6.1-2c-3.6,1.8-4.1,1.8-4.1,1.8S43.9,243.8,48.8,238.3z"/>
		<path class="st16" d="M39.6,235.1"/>
	</g>
	<g>
		<polygon class="st18" points="44.3,256.2 42.3,257.3 40.9,257.6 39.3,257.5 37.6,257 36.6,256.4 35.6,255.3 34.8,254.3 
			34.4,253.8 		"/>
		<path class="st19" d="M44.3,256.2c0,0-6.5-1-9.8-2.4l2.1-0.3l1.9-0.4l2-0.2l1.4,0.5l1.1,0.9l0.9,1.3L44.3,256.2z"/>
		<path class="st16" d="M44.3,256.2c0,0-1.6-4.2-5.5-3.2c-3.9,0.9-4.3,0.8-4.3,0.8S38.3,260.5,44.3,256.2z"/>
		<path class="st16" d="M36,251.1"/>
	</g>
	<g>
		<polygon class="st18" points="44.5,177.7 44.7,179.9 45.2,181.3 46.2,182.5 47.6,183.7 48.7,184.1 50.1,184.3 51.4,184.5 
			52,184.5 		"/>
		<path class="st19" d="M44.5,177.7c0,0,4.4,4.8,7.4,6.9l-0.9-2l-0.7-1.8l-0.9-1.7l-1.2-0.9l-1.4-0.5l-1.6-0.1L44.5,177.7z"/>
		<path class="st16" d="M44.5,177.7c0,0,4.4-1,5.7,2.8c1.4,3.7,1.7,4.1,1.7,4.1S44.3,185,44.5,177.7z"/>
		<path class="st16" d="M53.4,181.7"/>
	</g>
	<g>
		<polygon class="st18" points="47.1,201.6 48.1,203.6 49.1,204.7 50.4,205.4 52.2,206.1 53.3,206.1 54.7,205.8 56,205.5 
			56.6,205.2 		"/>
		<path class="st19" d="M47.1,201.6c0,0,5.9,2.9,9.4,3.7l-1.6-1.5l-1.3-1.4l-1.5-1.3l-1.4-0.4l-1.4,0.1l-1.5,0.5L47.1,201.6z"/>
		<path class="st16" d="M47.1,201.6c0,0,3.7-2.5,6.4,0.5s3.1,3.2,3.1,3.2S49.5,208.5,47.1,201.6z"/>
		<path class="st16" d="M56.8,202.1"/>
	</g>
	<g>
		<polygon class="st18" points="49.9,225.4 50.4,227.6 51,228.9 52.1,230 53.5,231.1 54.7,231.4 56.1,231.5 57.4,231.5 58,231.5 		
			"/>
		<path class="st19" d="M49.9,225.4c0,0,4.9,4.4,8.1,6.1l-1.1-1.9l-0.9-1.7l-1.1-1.7l-1.3-0.8l-1.4-0.3l-1.6,0.1L49.9,225.4z"/>
		<path class="st16" d="M49.9,225.4c0,0,4.3-1.4,6,2.2c1.7,3.6,2.1,3.9,2.1,3.9S50.4,232.7,49.9,225.4z"/>
		<path class="st16" d="M59.1,228.5"/>
	</g>
	<g>
		<polygon class="st18" points="47.7,247.6 48.1,249.9 48.7,251.1 49.8,252.2 51.2,253.3 52.4,253.7 53.8,253.7 55.1,253.8 
			55.7,253.7 		"/>
		<path class="st19" d="M47.7,247.6c0,0,4.9,4.4,8.1,6.1l-1.1-1.9l-0.9-1.7l-1.1-1.7l-1.3-0.8l-1.4-0.3l-1.6,0.1L47.7,247.6z"/>
		<path class="st16" d="M47.7,247.6c0,0,4.3-1.4,6,2.2c1.7,3.6,2.1,3.9,2.1,3.9S48.1,255,47.7,247.6z"/>
		<path class="st16" d="M56.8,250.8"/>
	</g>
	<g>
		<polygon class="st18" points="42.5,261.8 42.9,264 43.5,265.3 44.6,266.4 46.1,267.5 47.2,267.9 48.6,267.9 50,268 50.6,267.9 		
			"/>
		<path class="st19" d="M42.5,261.8c0,0,4.9,4.4,8.1,6.1l-1.1-1.9l-0.9-1.7l-1.1-1.7l-1.3-0.8l-1.4-0.3l-1.6,0.1L42.5,261.8z"/>
		<path class="st16" d="M42.5,261.8c0,0,4.3-1.4,6,2.2s2.1,3.9,2.1,3.9S42.9,269.1,42.5,261.8z"/>
		<path class="st16" d="M51.7,265"/>
	</g>
	<path class="st16" d="M205.9,164.5c0,0-15.4,30.4-7.3,57.8c6.1,20.8,11.1,48.5-3.3,75.2"/>
	<g>
		<polygon class="st18" points="196.9,196.4 197.9,198.5 198.8,199.6 200.1,200.4 201.7,201.1 202.9,201.2 204.3,200.9 205.6,200.7 
			206.2,200.5 		"/>
		<path class="st19" d="M196.9,196.4c0,0,5.8,3.1,9.3,4.1l-1.5-1.6l-1.2-1.5l-1.5-1.3l-1.4-0.5l-1.4,0l-1.5,0.4L196.9,196.4z"/>
		<path class="st16" d="M196.9,196.4c0,0,3.8-2.3,6.3,0.8c2.5,3.1,2.9,3.3,2.9,3.3S199,203.5,196.9,196.4z"/>
		<path class="st16" d="M206.6,197.3"/>
	</g>
	<g>
		<polygon class="st18" points="200.2,182.1 200.6,184.3 201.3,185.6 202.3,186.7 203.8,187.8 204.9,188.1 206.4,188.1 207.7,188.2 
			208.3,188.1 		"/>
		<path class="st19" d="M200.2,182.1c0,0,4.9,4.4,8.1,6.1l-1.1-1.9l-0.9-1.7l-1.1-1.6l-1.3-0.8l-1.4-0.3l-1.6,0.1L200.2,182.1z"/>
		<path class="st16" d="M200.2,182.1c0,0,4.2-1.4,6,2.2c1.7,3.6,2.1,3.9,2.1,3.9S200.6,189.4,200.2,182.1z"/>
		<path class="st16" d="M209.4,185.2"/>
	</g>
	<g>
		<polygon class="st18" points="203.8,170.3 204,172.6 204.5,173.9 205.4,175.1 206.8,176.4 207.8,176.8 209.2,177 210.6,177.3 
			211.1,177.3 		"/>
		<path class="st19" d="M203.8,170.3c0,0,4.3,4.9,7.3,7l-0.9-2l-0.7-1.8l-0.9-1.8l-1.2-0.9l-1.4-0.5l-1.6-0.1L203.8,170.3z"/>
		<path class="st16" d="M203.8,170.3c0,0,4.4-0.9,5.7,2.9s1.6,4.1,1.6,4.1S203.4,177.6,203.8,170.3z"/>
		<path class="st16" d="M212.6,174.4"/>
	</g>
	<g>
		<polygon class="st18" points="195.8,205.9 194.9,208 194,209.1 192.7,210 191.1,210.7 189.9,210.8 188.5,210.5 187.2,210.3 
			186.6,210.1 		"/>
		<path class="st19" d="M195.8,205.9c0,0-5.7,3.2-9.2,4.2l1.5-1.6l1.2-1.5l1.4-1.4l1.4-0.5l1.4,0l1.5,0.4L195.8,205.9z"/>
		<path class="st16" d="M195.8,205.9c0,0-3.8-2.3-6.3,0.9c-2.5,3.1-2.9,3.3-2.9,3.3S193.8,213,195.8,205.9z"/>
		<path class="st16" d="M186.2,207"/>
	</g>
	<g>
		<polygon class="st18" points="197.5,190.4 196.3,192.4 195.3,193.4 193.8,194 192.1,194.5 190.9,194.4 189.6,194 188.3,193.6 
			187.8,193.3 		"/>
		<path class="st19" d="M197.5,190.4c0,0-6.1,2.4-9.7,2.9l1.7-1.4l1.4-1.3l1.6-1.2l1.5-0.3l1.4,0.2l1.4,0.6L197.5,190.4z"/>
		<path class="st16" d="M197.5,190.4c0,0-3.5-2.8-6.4,0c-2.9,2.8-3.3,2.9-3.3,2.9S194.5,197.1,197.5,190.4z"/>
		<path class="st16" d="M187.8,190.1"/>
	</g>
	<g>
		<polygon class="st18" points="200,227.2 199.1,229.3 198.2,230.4 196.9,231.2 195.2,232 194.1,232.1 192.7,231.8 191.4,231.6 
			190.8,231.4 		"/>
		<path class="st19" d="M200,227.2c0,0-5.7,3.2-9.2,4.2l1.5-1.6l1.2-1.5l1.4-1.4l1.4-0.5l1.4,0l1.5,0.4L200,227.2z"/>
		<path class="st16" d="M200,227.2c0,0-3.8-2.3-6.3,0.9c-2.5,3.1-2.9,3.3-2.9,3.3S198,234.3,200,227.2z"/>
		<path class="st16" d="M190.4,228.2"/>
	</g>
	<g>
		<polygon class="st18" points="203.9,250.1 202.9,252.1 202,253.2 200.7,254 199,254.7 197.8,254.7 196.4,254.4 195.1,254.1 
			194.5,253.9 		"/>
		<path class="st19" d="M203.9,250.1c0,0-5.8,3-9.4,3.8l1.5-1.5l1.3-1.4l1.5-1.3l1.4-0.4l1.4,0l1.5,0.5L203.9,250.1z"/>
		<path class="st16" d="M203.9,250.1c0,0-3.8-2.4-6.3,0.6s-3,3.2-3,3.2S201.6,257.1,203.9,250.1z"/>
		<path class="st16" d="M194.2,250.7"/>
	</g>
	<g>
		<polygon class="st18" points="203.3,271.7 201.6,273.2 200.3,273.9 198.7,274.1 196.9,274 195.8,273.6 194.7,272.7 193.6,272 
			193.2,271.5 		"/>
		<path class="st19" d="M203.3,271.7c0,0-6.5,0.4-10.1-0.2l2-0.8l1.7-0.8l1.9-0.6l1.5,0.2l1.3,0.6l1.2,1L203.3,271.7z"/>
		<path class="st16" d="M203.3,271.7c0,0-2.5-3.7-6.1-2s-4.1,1.8-4.1,1.8S198.4,277.2,203.3,271.7z"/>
		<path class="st16" d="M194.1,268.5"/>
	</g>
	<g>
		<polygon class="st18" points="198.9,289.3 196.9,290.3 195.5,290.7 193.9,290.5 192.2,290.1 191.2,289.4 190.3,288.4 189.4,287.4 
			189,286.9 		"/>
		<path class="st19" d="M198.9,289.3c0,0-6.5-1-9.8-2.4l2.1-0.3l1.9-0.4l2-0.2l1.4,0.5l1.1,0.9l0.9,1.3L198.9,289.3z"/>
		<path class="st16" d="M198.9,289.3c0,0-1.6-4.2-5.5-3.2c-3.9,0.9-4.3,0.8-4.3,0.8S192.9,293.6,198.9,289.3z"/>
		<path class="st16" d="M190.6,284.1"/>
	</g>
	<g>
		<polygon class="st18" points="197.3,214.9 198.2,217 199.1,218.1 200.5,218.9 202.1,219.6 203.3,219.6 204.7,219.4 206,219.1 
			206.6,218.9 		"/>
		<path class="st19" d="M197.3,214.9c0,0,5.8,3.1,9.3,4l-1.5-1.5l-1.2-1.5l-1.5-1.3l-1.4-0.5l-1.4,0l-1.5,0.4L197.3,214.9z"/>
		<path class="st16" d="M197.3,214.9c0,0,3.8-2.4,6.3,0.7s3,3.3,3,3.3S199.5,221.9,197.3,214.9z"/>
		<path class="st16" d="M206.9,215.7"/>
	</g>
	<g>
		<polygon class="st18" points="202.6,237.2 203.6,239.2 204.6,240.3 205.9,241.1 207.6,241.7 208.8,241.7 210.2,241.4 211.5,241.1 
			212,240.9 		"/>
		<path class="st19" d="M202.6,237.2c0,0,5.9,2.9,9.4,3.7l-1.6-1.5l-1.3-1.4l-1.5-1.3l-1.4-0.4l-1.4,0.1l-1.5,0.5L202.6,237.2z"/>
		<path class="st16" d="M202.6,237.2c0,0,3.7-2.5,6.4,0.5c2.6,3,3.1,3.2,3.1,3.2S205,244.1,202.6,237.2z"/>
		<path class="st16" d="M212.3,237.7"/>
	</g>
	<g>
		<polygon class="st18" points="205.1,260.6 205.5,262.8 206.1,264.1 207.2,265.2 208.7,266.3 209.8,266.7 211.2,266.7 212.6,266.8 
			213.1,266.7 		"/>
		<path class="st19" d="M205.1,260.6c0,0,4.9,4.4,8.1,6.1l-1.1-1.9l-0.9-1.7l-1.1-1.7l-1.3-0.8l-1.4-0.3l-1.6,0.1L205.1,260.6z"/>
		<path class="st16" d="M205.1,260.6c0,0,4.3-1.4,6,2.2c1.7,3.6,2.1,3.9,2.1,3.9S205.5,267.9,205.1,260.6z"/>
		<path class="st16" d="M214.3,263.7"/>
	</g>
	<g>
		<polygon class="st18" points="202.2,281.7 202.6,284 203.3,285.3 204.3,286.4 205.8,287.5 206.9,287.8 208.3,287.9 209.7,287.9 
			210.3,287.9 		"/>
		<path class="st19" d="M202.2,281.7c0,0,4.9,4.4,8.1,6.1l-1.1-1.9l-0.9-1.7l-1.1-1.7l-1.3-0.8l-1.4-0.3l-1.6,0.1L202.2,281.7z"/>
		<path class="st16" d="M202.2,281.7c0,0,4.3-1.4,6,2.2s2.1,3.9,2.1,3.9S202.6,289.1,202.2,281.7z"/>
		<path class="st16" d="M211.4,284.9"/>
	</g>
	<g>
		<polygon class="st18" points="196.5,296 196.9,298.2 197.5,299.5 198.6,300.6 200.1,301.7 201.2,302 202.6,302.1 203.9,302.1 
			204.5,302.1 		"/>
		<path class="st19" d="M196.5,296c0,0,4.9,4.4,8.1,6.1l-1.1-1.9l-0.9-1.7l-1.1-1.7l-1.3-0.8l-1.4-0.3l-1.6,0.1L196.5,296z"/>
		<path class="st16" d="M196.5,296c0,0,4.3-1.4,6,2.2c1.7,3.6,2.1,3.9,2.1,3.9S196.9,303.3,196.5,296z"/>
		<path class="st16" d="M205.6,299.1"/>
	</g>
	<path class="st16" d="M162.1,356.8c0,0-14,16.3-10.7,37.8s5.5,18.2,2.5,35.6"/>
	<g>
		<polygon class="st18" points="158.6,362.5 157.8,364.6 157.7,366 158.1,367.5 158.8,369.2 159.6,370.1 160.8,370.9 161.9,371.6 
			162.4,371.8 		"/>
		<path class="st19" d="M158.6,362.5c0,0,2,6.2,3.8,9.4l0-2.2l0.1-1.9l-0.1-2l-0.7-1.3l-1-1l-1.4-0.7L158.6,362.5z"/>
		<path class="st16" d="M158.6,362.5c0,0,4.4,1,4,4.9s-0.2,4.4-0.2,4.4S155.2,369,158.6,362.5z"/>
		<path class="st16" d="M164.9,369.8"/>
	</g>
	<g>
		<polygon class="st18" points="152.5,374.2 151.6,376.3 150.7,377.4 149.4,378.3 147.8,379 146.6,379.1 145.2,378.8 143.9,378.6 
			143.3,378.4 		"/>
		<path class="st19" d="M152.5,374.2c0,0-5.7,3.2-9.2,4.2l1.5-1.6l1.2-1.5l1.4-1.4l1.4-0.5l1.4,0l1.5,0.4L152.5,374.2z"/>
		<path class="st16" d="M152.5,374.2c0,0-3.8-2.3-6.3,0.9s-2.9,3.3-2.9,3.3S150.5,381.3,152.5,374.2z"/>
		<path class="st16" d="M142.9,375.3"/>
	</g>
	<g>
		<polygon class="st18" points="151.8,399 150.9,401.1 150,402.2 148.7,403.1 147.1,403.8 145.9,403.9 144.5,403.7 143.2,403.4 
			142.6,403.3 		"/>
		<path class="st19" d="M151.8,399c0,0-5.7,3.2-9.2,4.2l1.5-1.6l1.2-1.5l1.4-1.4l1.4-0.5l1.4,0l1.5,0.4L151.8,399z"/>
		<path class="st16" d="M151.8,399c0,0-3.8-2.3-6.3,0.9c-2.5,3.1-2.9,3.3-2.9,3.3S149.8,406.1,151.8,399z"/>
		<path class="st16" d="M142.2,400.1"/>
	</g>
	<g>
		<polygon class="st18" points="154.5,421.5 153.6,423.6 152.6,424.6 151.3,425.4 149.6,426.1 148.4,426.1 147,425.8 145.7,425.6 
			145.2,425.3 		"/>
		<path class="st19" d="M154.5,421.5c0,0-5.8,3-9.4,3.8l1.5-1.5l1.3-1.4l1.5-1.3l1.4-0.4l1.4,0l1.5,0.5L154.5,421.5z"/>
		<path class="st16" d="M154.5,421.5c0,0-3.8-2.4-6.3,0.6s-3,3.2-3,3.2S152.2,428.5,154.5,421.5z"/>
		<path class="st16" d="M144.9,422.2"/>
	</g>
	<g>
		<polygon class="st18" points="151.3,384.1 151.5,386.3 151.9,387.6 152.9,388.9 154.3,390.1 155.4,390.5 156.8,390.7 158.1,390.9 
			158.7,390.9 		"/>
		<path class="st19" d="M151.3,384.1c0,0,4.4,4.8,7.4,6.9l-0.9-2l-0.7-1.8l-0.9-1.7l-1.2-0.9l-1.4-0.5l-1.6-0.1L151.3,384.1z"/>
		<path class="st16" d="M151.3,384.1c0,0,4.4-1,5.7,2.8c1.4,3.7,1.7,4.1,1.7,4.1S151,391.4,151.3,384.1z"/>
		<path class="st16" d="M160.1,388.1"/>
	</g>
	<g>
		<polygon class="st18" points="153.8,408 154.9,410 155.8,411 157.1,411.8 158.9,412.5 160,412.5 161.4,412.2 162.7,411.8 
			163.3,411.6 		"/>
		<path class="st19" d="M153.8,408c0,0,5.9,2.9,9.4,3.7l-1.6-1.5l-1.3-1.4l-1.5-1.3l-1.4-0.4l-1.4,0.1l-1.5,0.5L153.8,408z"/>
		<path class="st16" d="M153.8,408c0,0,3.7-2.5,6.4,0.5s3.1,3.2,3.1,3.2S156.3,414.9,153.8,408z"/>
		<path class="st16" d="M163.5,408.5"/>
	</g>
	<path class="st16" d="M697.2,479.6c0,0-14,16.3-10.7,37.8c3.3,21.5,5.5,26-9.2,53"/>
	<g>
		<polygon class="st18" points="693.7,485.3 692.9,487.4 692.8,488.8 693.2,490.3 693.9,492 694.7,492.9 695.9,493.6 697,494.4 
			697.5,494.6 		"/>
		<path class="st19" d="M693.7,485.3c0,0,2,6.2,3.8,9.4l0-2.2l0.1-1.9l-0.1-2l-0.7-1.3l-1-1l-1.4-0.7L693.7,485.3z"/>
		<path class="st16" d="M693.7,485.3c0,0,4.4,1,4,4.9s-0.2,4.4-0.2,4.4S690.3,491.8,693.7,485.3z"/>
		<path class="st16" d="M700,492.6"/>
	</g>
	<g>
		<polygon class="st18" points="687.6,497 686.7,499.1 685.8,500.2 684.5,501.1 682.9,501.8 681.7,501.9 680.3,501.6 679,501.4 
			678.4,501.2 		"/>
		<path class="st19" d="M687.6,497c0,0-5.7,3.2-9.2,4.2l1.5-1.6l1.2-1.5l1.4-1.4l1.4-0.5l1.4,0l1.5,0.4L687.6,497z"/>
		<path class="st16" d="M687.6,497c0,0-3.8-2.3-6.3,0.9c-2.5,3.1-2.9,3.3-2.9,3.3S685.6,504.1,687.6,497z"/>
		<path class="st16" d="M678,498.1"/>
	</g>
	<g>
		<polygon class="st18" points="686.9,521.8 686,523.9 685.1,525 683.8,525.9 682.2,526.6 681,526.7 679.6,526.5 678.3,526.2 
			677.7,526 		"/>
		<path class="st19" d="M686.9,521.8c0,0-5.7,3.2-9.2,4.2l1.5-1.6l1.2-1.5l1.4-1.4l1.4-0.5l1.4,0l1.5,0.4L686.9,521.8z"/>
		<path class="st16" d="M686.9,521.8c0,0-3.8-2.3-6.3,0.9c-2.5,3.1-2.9,3.3-2.9,3.3S684.9,528.9,686.9,521.8z"/>
		<path class="st16" d="M677.3,522.9"/>
	</g>
	<g>
		<polygon class="st18" points="688.2,542.8 687.1,544.8 686,545.8 684.7,546.5 682.9,547 681.7,547 680.4,546.6 679.1,546.2 
			678.6,546 		"/>
		<path class="st19" d="M688.2,542.8c0,0-6,2.6-9.6,3.2l1.6-1.4l1.4-1.3l1.6-1.2l1.4-0.3l1.4,0.1l1.5,0.6L688.2,542.8z"/>
		<path class="st16" d="M688.2,542.8c0,0-3.6-2.7-6.4,0.2c-2.8,2.8-3.2,3-3.2,3S685.4,549.6,688.2,542.8z"/>
		<path class="st16" d="M678.5,542.8"/>
	</g>
	<g>
		<polygon class="st18" points="682.2,559.6 681.2,561.7 680.3,562.7 679,563.5 677.3,564.2 676.1,564.2 674.7,563.9 673.4,563.6 
			672.8,563.4 		"/>
		<path class="st19" d="M682.2,559.6c0,0-5.9,2.9-9.4,3.8l1.6-1.5l1.3-1.4l1.5-1.3l1.4-0.4l1.4,0.1l1.5,0.5L682.2,559.6z"/>
		<path class="st16" d="M682.2,559.6c0,0-3.7-2.4-6.3,0.6s-3,3.2-3,3.2S679.9,566.6,682.2,559.6z"/>
		<path class="st16" d="M672.6,560.2"/>
	</g>
	<g>
		<polygon class="st18" points="686.3,506.8 686.5,509.1 687,510.4 688,511.6 689.4,512.9 690.4,513.3 691.9,513.5 693.2,513.7 
			693.8,513.7 		"/>
		<path class="st19" d="M686.3,506.8c0,0,4.4,4.8,7.4,6.9l-0.9-2l-0.7-1.8l-0.9-1.7l-1.2-0.9l-1.4-0.5l-1.6-0.1L686.3,506.8z"/>
		<path class="st16" d="M686.3,506.8c0,0,4.4-1,5.7,2.8c1.4,3.7,1.7,4.1,1.7,4.1S686.1,514.2,686.3,506.8z"/>
		<path class="st16" d="M695.2,510.8"/>
	</g>
	<g>
		<polygon class="st18" points="688.9,530.7 689.9,532.8 690.9,533.8 692.2,534.6 693.9,535.3 695.1,535.3 696.5,534.9 697.8,534.6 
			698.4,534.4 		"/>
		<path class="st19" d="M688.9,530.7c0,0,5.9,2.9,9.4,3.7l-1.6-1.5l-1.3-1.4l-1.5-1.3l-1.4-0.4l-1.4,0.1l-1.5,0.5L688.9,530.7z"/>
		<path class="st16" d="M688.9,530.7c0,0,3.7-2.5,6.4,0.5c2.6,3,3.1,3.2,3.1,3.2S691.3,537.7,688.9,530.7z"/>
		<path class="st16" d="M698.6,531.2"/>
	</g>
	<g>
		<polygon class="st18" points="686,552.9 686.3,555.2 686.8,556.5 687.8,557.7 689.2,558.9 690.3,559.3 691.7,559.5 693.1,559.6 
			693.7,559.6 		"/>
		<path class="st19" d="M686,552.9c0,0,4.5,4.7,7.6,6.7l-1-1.9l-0.7-1.8l-1-1.7l-1.2-0.9l-1.4-0.4l-1.6-0.1L686,552.9z"/>
		<path class="st16" d="M686,552.9c0,0,4.3-1.1,5.8,2.6c1.5,3.7,1.8,4,1.8,4S686,560.3,686,552.9z"/>
		<path class="st16" d="M695,556.7"/>
	</g>
	<path class="st1" d="M841.9,109v72.8h-69.1c-6.6,0-12.6-2.7-16.9-7c-4.4-4.3-7-10.3-7-17c0-13.2,10.8-24,24-24h4.4
		c-0.4-1.8-0.6-3.7-0.6-5.6c0-15.5,12.6-28.2,28.2-28.2c11.4,0,21.2,6.8,25.6,16.5C833.4,113.1,837.4,110.4,841.9,109z"/>
	<polyline class="st16" points="291.4,378 283.9,378 283.9,382.1 	"/>
	<line class="st0" x1="462.7" y1="373.5" x2="521.7" y2="373.5"/>
	<line class="st0" x1="535.5" y1="373.5" x2="546.4" y2="373.5"/>
	<polyline class="st16" points="578.4,347.2 578.4,355.7 568.7,355.7 	"/>
	<line class="st16" x1="565.4" y1="355.7" x2="562.9" y2="355.7"/>
	<line class="st16" x1="383.4" y1="339" x2="364.3" y2="339"/>
	<line class="st16" x1="350.8" y1="317.3" x2="360.3" y2="317.3"/>
	<line class="st16" x1="362.7" y1="317.3" x2="366.4" y2="317.3"/>
	<polyline class="st16" points="453.7,318.4 453.7,321.9 457.1,321.9 	"/>
	<line class="st16" x1="462.7" y1="321.9" x2="472.7" y2="321.9"/>
	<line class="st16" x1="516.2" y1="308.2" x2="529.3" y2="308.2"/>
	<line class="st16" x1="382.1" y1="180.1" x2="406" y2="180.1"/>
	<line class="st16" x1="416.9" y1="180.1" x2="494.7" y2="180.1"/>
	<polyline class="st16" points="566.4,150.9 577.8,150.9 577.8,155.6 	"/>
	<line class="st16" x1="577.8" y1="157.9" x2="577.8" y2="161.2"/>
	<line class="st16" x1="396.1" y1="136.3" x2="440" y2="136.3"/>
	<line class="st16" x1="463.5" y1="136.3" x2="482.8" y2="136.3"/>
	<line class="st16" x1="488.6" y1="97.3" x2="511.5" y2="110"/>
	<polyline class="st16" points="339,138.6 328.6,144.2 342.7,144.2 	"/>
	<line class="st16" x1="348.8" y1="144.2" x2="355.1" y2="144.2"/>
	<polyline class="st16" points="421.8,168 421.8,171.7 430.9,171.7 	"/>
	<line class="st16" x1="352.6" y1="150.8" x2="362.9" y2="150.8"/>
	<line class="st16" x1="367.4" y1="171.5" x2="361.9" y2="171.5"/>
	<line class="st16" x1="358.8" y1="171.5" x2="356.6" y2="171.5"/>
	<polyline class="st16" points="492,159.4 492,171.2 500.7,171.2 	"/>
</g>
</svg>
