<?xml version="1.0" encoding="utf-8"?>
<!-- Generator: $$$/GeneralStr/196=Adobe Illustrator 27.6.0, SVG Export Plug-In . SVG Version: 6.00 Build 0)  -->
<svg version="1.1" xmlns="http://www.w3.org/2000/svg" xmlns:xlink="http://www.w3.org/1999/xlink" x="0px" y="0px" width="841.9px"
	 height="595.3px" viewBox="0 0 841.9 595.3" style="enable-background:new 0 0 841.9 595.3;" xml:space="preserve">
<style type="text/css">
	.st0{fill:#36A9E1;stroke:#000000;stroke-miterlimit:10;}
	.st1{fill:#FFFFFF;stroke:#000000;stroke-miterlimit:10;}
	.st2{fill:#CA9E67;stroke:#000000;stroke-width:0.5;stroke-linecap:round;stroke-linejoin:round;stroke-miterlimit:10;}
	.st3{fill:none;stroke:#000000;stroke-width:0.5;stroke-linecap:round;stroke-linejoin:round;stroke-miterlimit:10;}
	.st4{fill:#B17F4A;stroke:#000000;stroke-miterlimit:10;}
	.st5{fill:#432918;stroke:#000000;stroke-miterlimit:10;}
	.st6{fill:#7D4E24;stroke:#000000;stroke-width:0.5;stroke-linecap:round;stroke-linejoin:round;stroke-miterlimit:10;}
	.st7{fill:#706F6F;stroke:#000000;stroke-width:0.5;stroke-miterlimit:10;}
	.st8{fill:#FFFFFF;stroke:#000000;stroke-linecap:round;stroke-linejoin:round;stroke-miterlimit:10;}
	.st9{fill:#CA9E67;stroke:#000000;stroke-linecap:round;stroke-linejoin:round;stroke-miterlimit:10;}
	.st10{fill:#B17F4A;stroke:#000000;stroke-width:0.5;stroke-linecap:round;stroke-linejoin:round;stroke-miterlimit:10;}
	.st11{fill:#1E1E1C;}
	.st12{fill:#3AAA35;stroke:#000000;stroke-miterlimit:10;}
	.st13{fill:#FBC67B;stroke:#000000;stroke-miterlimit:10;}
	.st14{fill:#9D9D9C;}
	.st15{fill:#C6C6C6;}
	.st16{fill:#FCCB8D;stroke:#000000;stroke-linecap:round;stroke-linejoin:round;stroke-miterlimit:10;}
	.st17{fill:none;stroke:#000000;stroke-linecap:round;stroke-linejoin:round;stroke-miterlimit:10;}
	.st18{fill:#3AAA35;stroke:#000000;stroke-linecap:round;stroke-linejoin:round;stroke-miterlimit:10;}
	.st19{fill:#936037;stroke:#000000;stroke-width:0.5;stroke-linecap:round;stroke-linejoin:round;stroke-miterlimit:10;}
	.st20{fill:none;}
	.st21{fill:#F4C323;}
	.st22{fill:#E30613;}
	.st23{fill:#878787;stroke:#000000;stroke-linecap:round;stroke-linejoin:round;stroke-miterlimit:10;}
	.st24{fill:none;stroke:#000000;stroke-miterlimit:10;}
	.st25{fill:#936037;stroke:#000000;stroke-miterlimit:10;}
	.st26{fill:#683C11;stroke:#000000;stroke-miterlimit:10;}
	.st27{fill:#683C11;stroke:#000000;stroke-linecap:round;stroke-linejoin:round;stroke-miterlimit:10;}
	.st28{fill:#CA9F76;stroke:#000000;stroke-linecap:round;stroke-linejoin:round;stroke-miterlimit:10;}
	.st29{fill:#B2B2B2;stroke:#000000;stroke-linecap:round;stroke-linejoin:round;stroke-miterlimit:10;}
	.st30{fill:none;stroke:#432918;stroke-miterlimit:10;}
</style>
<g id="Calque_2">
	<g>
		<path class="st0" d="M841.9,0v374H532.3l-24.9-145.9c-0.7-4-4.1-6.9-8.2-6.9H342.6c-4,0-7.5,2.9-8.2,6.9L309.6,374H0V0H841.9z"/>
		<path class="st1" d="M81.7,46h-1.2c0-0.1,0-0.1,0-0.2c0-5.4-4.4-9.8-9.8-9.8c-2.9,0-5.6,1.3-7.4,3.3c-1.7-3.7-5.4-6.3-9.8-6.3
			c-5.9,0-10.8,4.8-10.8,10.8c0,0.7,0.1,1.4,0.2,2.1h-1.7c-5,0-9.2,4.1-9.2,9.2v0c0,5,4.1,9.2,9.2,9.2h40.3c5,0,9.2-4.1,9.2-9.2v0
			C90.9,50.1,86.8,46,81.7,46z"/>
		<g>
			<path class="st2" d="M42.2,79.6v76.3h159.3V79.6H42.2z M84.4,124.2h-19v-19.1h19V124.2z"/>
			<line class="st2" x1="201.5" y1="84.6" x2="42.2" y2="84.6"/>
			<line class="st2" x1="201.5" y1="89.6" x2="42.2" y2="89.6"/>
			<line class="st2" x1="201.5" y1="94.9" x2="42.2" y2="94.9"/>
			<line class="st3" x1="201.5" y1="99.9" x2="42.2" y2="99.9"/>
			<line class="st3" x1="65.3" y1="105.2" x2="42.2" y2="105.2"/>
			<line class="st3" x1="201.5" y1="105.2" x2="84.4" y2="105.2"/>
			<line class="st3" x1="65.3" y1="110.1" x2="42.2" y2="110.1"/>
			<line class="st3" x1="201.5" y1="110.1" x2="84.4" y2="110.1"/>
			<line class="st3" x1="65.3" y1="115.2" x2="42.2" y2="115.2"/>
			<line class="st3" x1="201.5" y1="115.2" x2="84.4" y2="115.2"/>
			<line class="st3" x1="65.3" y1="120.2" x2="42.2" y2="120.2"/>
			<line class="st3" x1="201.5" y1="120.2" x2="84.4" y2="120.2"/>
			<line class="st3" x1="201.5" y1="125.7" x2="42.2" y2="125.7"/>
			<line class="st2" x1="201.5" y1="130.7" x2="42.2" y2="130.7"/>
			<line class="st2" x1="201.5" y1="135.2" x2="42.2" y2="135.2"/>
			<line class="st2" x1="201.5" y1="145.4" x2="42.2" y2="145.4"/>
			<path class="st4" d="M171.6,157.2h-5.5c-1.7,23.6-15.8,36.7-29.1,40.8v-40.8h-18.4v32.3c-3-0.1-9.5-0.6-16.9-2.3h0
				c0,0-13.1-15.3-8.8-30h-4.9c-3.9,11.7,1.9,22.2,4.7,27.3c-11.6-4.3-23-12.4-25.6-27.3h-7.1c0,0,3.1,36.8,58.6,40.3v68.1h18.4v-60
				C152.6,199.5,168.8,195.4,171.6,157.2z"/>
			<rect x="148.4" y="102.5" class="st5" width="25" height="53.3"/>
			<line class="st2" x1="169.9" y1="102.5" x2="169.9" y2="155.8"/>
			<line class="st2" x1="166.1" y1="102.5" x2="166.1" y2="155.8"/>
			<line class="st2" x1="162.3" y1="102.5" x2="162.3" y2="155.8"/>
			<line class="st2" x1="158.5" y1="102.5" x2="158.5" y2="155.8"/>
			<line class="st2" x1="154.8" y1="102.5" x2="154.8" y2="155.8"/>
			<line class="st2" x1="151" y1="102.5" x2="151" y2="155.8"/>
			<polygon class="st6" points="201.5,79.6 42.2,79.6 121.8,13.2 164.2,48.5 182.6,63.8 			"/>
			<polygon class="st2" points="84.4,114.2 84.4,115.1 75.3,115.1 75.3,124.2 74.4,124.2 74.4,115.1 65.3,115.1 65.3,114.2 
				74.4,114.2 74.4,105.2 75.3,105.2 75.3,114.2 			"/>
			<polygon class="st7" points="182.6,39.2 182.6,63.8 164.2,48.5 164.2,39.2 			"/>
			<path class="st8" d="M188.8,1.5c0.4,1,0.6,2.1,0.6,3.2c0,3.5-2.1,6.4-5.2,7.6c0.2,0.7,0.3,1.4,0.3,2.1c0,0.7-0.1,1.3-0.2,2
				c1.8,1.5,2.9,3.7,2.9,6.2c0,4.5-3.7,8.2-8.2,8.2c-2.5,0-4.7-1.1-6.2-2.9c-1.3,0.9-2.9,1.4-4.6,1.4c-4.5,0-8.2-3.7-8.2-8.2
				c0-1,0.2-1.9,0.5-2.7c-2.3-1.5-3.8-4-3.8-6.9c0-0.4,0-0.8,0.1-1.1h-0.1c-4.5,0-8.2-3.7-8.2-8.2c0-0.7,0.1-1.5,0.3-2.1h41.1
				C189.5,0.5,189.1,1.1,188.8,1.5z"/>
			<line class="st9" x1="201.5" y1="150.4" x2="42.2" y2="150.4"/>
			<path class="st10" d="M223.8,134.5v3.4H18.3v-3.4H17v22.6h208.2v-22.6H223.8z M223.8,155.8H18.3V151h205.5V155.8z M223.8,149.7
				H18.3v-10.5h205.5V149.7z"/>
			<path class="st10" d="M33.5,154.4L33.5,154.4c-1.1,0-2-0.9-2-2v-16.5c0-1.1,0.9-2,2-2h0c1.1,0,2,0.9,2,2v16.5
				C35.6,153.5,34.7,154.4,33.5,154.4z"/>
			<path class="st10" d="M58.3,154.4L58.3,154.4c-1.1,0-2-0.9-2-2v-16.5c0-1.1,0.9-2,2-2h0c1.1,0,2,0.9,2,2v16.5
				C60.3,153.5,59.4,154.4,58.3,154.4z"/>
			<path class="st10" d="M83.2,154.4L83.2,154.4c-1.1,0-2-0.9-2-2v-16.5c0-1.1,0.9-2,2-2h0c1.1,0,2,0.9,2,2v16.5
				C85.2,153.5,84.3,154.4,83.2,154.4z"/>
			<path class="st10" d="M108,154.4L108,154.4c-1.1,0-2-0.9-2-2v-16.5c0-1.1,0.9-2,2-2l0,0c1.1,0,2,0.9,2,2v16.5
				C110,153.5,109.1,154.4,108,154.4z"/>
			<path class="st10" d="M132.9,154.4L132.9,154.4c-1.1,0-2-0.9-2-2v-16.5c0-1.1,0.9-2,2-2h0c1.1,0,2,0.9,2,2v16.5
				C134.9,153.5,134,154.4,132.9,154.4z"/>
			<path class="st10" d="M157.7,154.4L157.7,154.4c-1.1,0-2-0.9-2-2v-16.5c0-1.1,0.9-2,2-2h0c1.1,0,2,0.9,2,2v16.5
				C159.7,153.5,158.8,154.4,157.7,154.4z"/>
			<path class="st10" d="M183.2,154.4L183.2,154.4c-1.1,0-2-0.9-2-2v-16.5c0-1.1,0.9-2,2-2l0,0c1.1,0,2,0.9,2,2v16.5
				C185.2,153.5,184.3,154.4,183.2,154.4z"/>
			<path class="st10" d="M208,154.4L208,154.4c-1.1,0-2-0.9-2-2v-16.5c0-1.1,0.9-2,2-2l0,0c1.1,0,2,0.9,2,2v16.5
				C210,153.5,209.1,154.4,208,154.4z"/>
		</g>
		<path class="st11" d="M493.1,43.9c-8.9-32-50.1-26.6-50.1-26.6c38.3,7.8,48.6,34.1,48.6,34.1s19.1-20.9,57.7-14.3
			C549.3,37.1,512.9,17.2,493.1,43.9z"/>
		<path class="st1" d="M622.1,92.6h-1.5c0-0.1,0-0.2,0-0.3c0-6.9-5.6-12.5-12.5-12.5c-3.7,0-7.1,1.7-9.4,4.3c-2.2-4.7-6.9-8-12.5-8
			c-7.6,0-13.7,6.2-13.7,13.7c0,0.9,0.1,1.8,0.3,2.7h-2.2c-6.4,0-11.7,5.3-11.7,11.7v0c0,6.4,5.3,11.7,11.7,11.7h51.5
			c6.4,0,11.7-5.3,11.7-11.7v0C633.8,97.9,628.6,92.6,622.1,92.6z"/>
		<path class="st1" d="M432.8,38.2h-2c0-0.1,0-0.2,0-0.4c0-9.4-7.6-17-17-17c-5.1,0-9.7,2.3-12.8,5.8c-3-6.5-9.5-11-17.1-11
			c-10.4,0-18.8,8.4-18.8,18.8c0,1.3,0.1,2.5,0.4,3.7h-2.9c-8.8,0-16,7.2-16,16v0c0,8.8,7.2,16,16,16h70.2c8.8,0,16-7.2,16-16v0
			C448.8,45.4,441.6,38.2,432.8,38.2z"/>
		<polygon class="st12" points="309.6,374 267.1,595.3 0,595.3 0,374 		"/>
		<polygon class="st12" points="841.9,374 841.9,595.3 574.8,595.3 532.3,374 		"/>
		<path class="st13" d="M574.8,595.3H267.1L309.6,374l0.4-2.3l2.4-14.2l2.4-14.2l2.4-14.2l2.4-13.9l2.4-14.2l2.4-14.3l2.4-14.2
			l2.4-14.2l2.4-14.2l2.4-14.2l0.3-1.6c0.7-4,4.1-6.9,8.2-6.9h156.6c4,0,7.5,2.9,8.2,6.9l0.3,1.6l2.4,14.2l4.8,28.4l2.4,14.2
			l2.4,14.3l2.4,14.2l2.4,13.9l2.4,14.2l2.4,14.2l2.4,14.2l0.4,2.3L574.8,595.3z"/>
		<g>
			<polygon class="st14" points="330.6,85.8 331.3,87.6 332,89.4 332,90.1 331.4,90.5 331.1,90.8 331.1,92.4 331.4,93.5 331.8,94.5 
				330.5,94.5 330.5,85.6 			"/>
			<polygon class="st15" points="330.5,85.8 329.8,87.6 329,89.4 329.1,90.1 329.7,90.5 330,90.8 330,92.4 329.7,93.5 329.3,94.5 
				330.5,94.5 330.5,85.6 			"/>
			<ellipse class="st16" cx="312.9" cy="96.1" rx="8.7" ry="8.1"/>
			<path d="M308.7,95.5L308.7,95.5c-0.3,0-0.6-0.3-0.6-0.6v-0.8c0-0.3,0.3-0.6,0.6-0.6l0,0c0.3,0,0.6,0.3,0.6,0.6v0.8
				C309.3,95.2,309.1,95.5,308.7,95.5z"/>
			<path d="M317,95.5L317,95.5c-0.3,0-0.6-0.3-0.6-0.6v-0.8c0-0.3,0.3-0.6,0.6-0.6l0,0c0.3,0,0.6,0.3,0.6,0.6v0.8
				C317.6,95.2,317.3,95.5,317,95.5z"/>
			<path class="st17" d="M309.3,97.8c0,0,3.5,3,7,0"/>
			<path class="st18" d="M323.8,116.8H302c0.2-3.8,1.7-7.1,3.9-9.4c0,0,0,0,0,0c0.1-0.1,0.3-0.3,0.4-0.4c1.1-1,2.3-1.8,3.6-2.2h0
				c1-0.4,2-0.5,3-0.5s2.1,0.2,3,0.5c1.3,0.5,2.5,1.2,3.5,2.2c0.8,0.7,1.5,1.6,2.1,2.6c0,0,0,0.1,0,0.1
				C322.8,111.6,323.6,114.1,323.8,116.8z"/>
			<path class="st18" d="M329.7,106.5l-2,2.6c-0.5,0.6-1.3,1-2,0.9l-4.1-0.4c0,0-0.8-1.5-1.3-2l5.5,0.8l2.7-3.2L329.7,106.5z"/>
			<path class="st16" d="M330.7,105.2L330.7,105.2l-1,1.3l-1.3-1.5l0.4-0.5h0c0-0.5-0.1-1.4,0.5-2.3c0.1-0.2,0.4-0.1,0.5,0.1
				c0,0.4,0.1,0.8,0.4,0.6C332.9,100.8,333,104.1,330.7,105.2z"/>
			<rect x="330" y="94.5" class="st19" width="1" height="21.8"/>
			<path class="st3" d="M331.1,90.7v1.4c0,0.9,0.8,2.5,0.8,2.5h-2.5c0,0,0.8-1.5,0.8-2.5v-1.4c0,0-1.4-0.3-1-1.3s1.5-3.8,1.5-3.8
				s1.1,2.8,1.5,3.8S331.1,90.7,331.1,90.7z"/>
			<g>
				<path class="st20" d="M310.7,106.2C310.7,106.2,310.7,106.2,310.7,106.2"/>
				<path class="st21" d="M315.1,106.2c-0.9,1.7-2.2,2-2.2,2s-0.3-0.1-0.7-0.3c0,0,0,0-0.1-0.1c-0.4-0.2-0.8-0.7-1.2-1.3
					c0,0,0-0.1-0.1-0.1c0-0.1-0.1-0.1-0.1-0.2c0.1,0,0.7,0.3,1.9,0.3c0-0.2,0.1-0.3,0.3-0.3c0.2,0,0.3,0.1,0.3,0.3
					C314.4,106.4,315,106.2,315.1,106.2z"/>
				<path class="st20" d="M315.1,106.2C315.1,106.2,315.1,106.2,315.1,106.2"/>
			</g>
			<path class="st22" d="M305.5,107c0.2-0.1,1.3-0.3,2.7,0.8c1.5,1.1,3.5,0.2,3.9,0c-0.4-0.2-0.8-0.7-1.2-1.3c0,0,0-0.1-0.1-0.1
				c-0.2-0.1-1.1-0.9-1-2.2C308.1,104.7,306.7,105.7,305.5,107z"/>
			<path class="st22" d="M320.2,107c-0.2-0.1-1.2-0.2-2.6,0.8c-1.5,1.1-3.5,0.2-3.9,0c0.4-0.2,0.8-0.7,1.2-1.3c0,0,0-0.1,0.1-0.1
				c0.2-0.1,1-0.9,1-2.2C317.6,104.7,319,105.7,320.2,107z"/>
			<path class="st16" d="M312.9,96.1"/>
			<path class="st16" d="M321.6,94v4.1c0.8,0,1.4-0.9,1.4-2S322.3,94,321.6,94z"/>
			<path class="st16" d="M304.2,94v4.1c-0.8,0-1.4-0.9-1.4-2S303.4,94,304.2,94z"/>
			<path class="st23" d="M320.8,92.6c0-0.1,0-0.3,0-0.4c0-4.6-3.6-8.3-8-8.3c-4.4,0-8,3.7-8,8.3c0,0.1,0,0.3,0,0.4H320.8z"/>
			<line class="st17" x1="320.6" y1="89.9" x2="305.3" y2="89.9"/>
			<g>
				<circle cx="319" cy="91.3" r="0.6"/>
				<circle cx="316.5" cy="91.3" r="0.6"/>
				<circle cx="314.1" cy="91.3" r="0.6"/>
				<circle cx="311.6" cy="91.3" r="0.6"/>
				<circle cx="309.1" cy="91.3" r="0.6"/>
				<circle cx="306.7" cy="91.3" r="0.6"/>
			</g>
		</g>
		<g>
			<polygon class="st14" points="546.6,85.8 547.3,87.6 548,89.4 547.9,90.2 547.4,90.6 547,90.8 547.1,92.4 547.3,93.5 547.8,94.6 
				546.5,94.6 546.5,85.7 			"/>
			<polygon class="st15" points="546.5,85.8 545.7,87.6 545,89.4 545.1,90.2 545.6,90.6 546,90.8 546,92.4 545.7,93.5 545.3,94.6 
				546.5,94.6 546.5,85.7 			"/>
			<ellipse class="st16" cx="528.8" cy="96.1" rx="8.7" ry="8.1"/>
			<path d="M524.7,95.5L524.7,95.5c-0.3,0-0.6-0.3-0.6-0.6v-0.8c0-0.3,0.3-0.6,0.6-0.6l0,0c0.3,0,0.6,0.3,0.6,0.6v0.8
				C525.3,95.2,525.1,95.5,524.7,95.5z"/>
			<path d="M533,95.5L533,95.5c-0.3,0-0.6-0.3-0.6-0.6v-0.8c0-0.3,0.3-0.6,0.6-0.6l0,0c0.3,0,0.6,0.3,0.6,0.6v0.8
				C533.6,95.2,533.3,95.5,533,95.5z"/>
			<path class="st17" d="M525.3,97.8c0,0,3.5,3,7,0"/>
			<path class="st18" d="M539.7,116.8H518c0.2-3.8,1.7-7.1,3.9-9.4c0,0,0,0,0,0c0.1-0.1,0.3-0.3,0.4-0.4c1.1-1,2.3-1.8,3.6-2.2h0
				c1-0.4,2-0.5,3-0.5s2.1,0.2,3,0.5c1.3,0.5,2.5,1.2,3.5,2.2c0.8,0.7,1.5,1.6,2.1,2.6c0,0,0,0.1,0,0.1
				C538.8,111.6,539.6,114.1,539.7,116.8z"/>
			<path class="st18" d="M545.7,106.5l-2,2.6c-0.5,0.6-1.3,1-2,0.9l-4.1-0.4c0,0-0.8-1.5-1.3-2l5.5,0.8l2.7-3.2L545.7,106.5z"/>
			<path class="st16" d="M546.7,105.2L546.7,105.2l-1,1.3l-1.3-1.5l0.4-0.5h0c0-0.5-0.1-1.4,0.5-2.3c0.1-0.2,0.4-0.1,0.5,0.1
				c0,0.4,0.1,0.8,0.4,0.6C548.9,100.8,548.9,104.2,546.7,105.2z"/>
			<rect x="546" y="94.6" class="st19" width="1" height="21.8"/>
			<path class="st3" d="M547,90.7v1.4c0,0.9,0.8,2.5,0.8,2.5h-2.5c0,0,0.8-1.5,0.8-2.5v-1.4c0,0-1.4-0.3-1-1.3s1.5-3.8,1.5-3.8
				s1.1,2.8,1.5,3.8S547,90.7,547,90.7z"/>
			<g>
				<path class="st20" d="M526.7,106.2C526.7,106.2,526.7,106.2,526.7,106.2"/>
				<path class="st21" d="M531,106.2c-0.9,1.7-2.2,2-2.2,2s-0.3-0.1-0.7-0.3c0,0,0,0-0.1-0.1c-0.4-0.2-0.8-0.7-1.2-1.3
					c0,0,0-0.1-0.1-0.1c0-0.1-0.1-0.1-0.1-0.2c0.1,0,0.7,0.3,1.9,0.3c0-0.2,0.1-0.3,0.3-0.3c0.2,0,0.3,0.1,0.3,0.3
					C530.3,106.5,531,106.2,531,106.2z"/>
				<path class="st20" d="M531.1,106.2C531.1,106.2,531.1,106.2,531.1,106.2"/>
			</g>
			<path class="st22" d="M521.5,107c0.2-0.1,1.3-0.3,2.7,0.8c1.5,1.1,3.5,0.2,3.9,0c-0.4-0.2-0.8-0.7-1.2-1.3c0,0,0-0.1-0.1-0.1
				c-0.2-0.1-1.1-0.9-1-2.2C524.1,104.7,522.7,105.7,521.5,107z"/>
			<path class="st22" d="M536.2,107c-0.2-0.1-1.2-0.2-2.6,0.8c-1.5,1.1-3.5,0.2-3.9,0c0.4-0.2,0.8-0.7,1.2-1.3c0,0,0-0.1,0.1-0.1
				c0.2-0.1,1-0.9,1-2.2C533.6,104.7,534.9,105.7,536.2,107z"/>
			<path class="st16" d="M528.8,96.1"/>
			<path class="st16" d="M537.6,94v4.1c0.8,0,1.4-0.9,1.4-2S538.3,94,537.6,94z"/>
			<path class="st16" d="M520.1,94v4.1c-0.8,0-1.4-0.9-1.4-2S519.4,94,520.1,94z"/>
			<path class="st23" d="M536.8,92.6c0-0.1,0-0.3,0-0.4c0-4.6-3.6-8.3-8-8.3c-4.4,0-8,3.7-8,8.3c0,0.1,0,0.3,0,0.4H536.8z"/>
			<line class="st17" x1="536.6" y1="90" x2="521.3" y2="90"/>
			<g>
				<circle cx="535" cy="91.3" r="0.6"/>
				<circle cx="532.5" cy="91.3" r="0.6"/>
				<circle cx="530" cy="91.3" r="0.6"/>
				<circle cx="527.6" cy="91.3" r="0.6"/>
				<circle cx="525.1" cy="91.3" r="0.6"/>
				<circle cx="522.6" cy="91.3" r="0.6"/>
			</g>
		</g>
		<path class="st4" d="M574.8,156.1V374h-42.5l-0.4-2.3l-2.4-14.2l-2.4-14.2l-2.4-14.2l-2.4-13.9l-2.4-14.2l-2.4-14.3l-2.4-14.2
			l-4.8-28.4l-2.4-14.2l-0.3-1.6c-0.7-4-4.1-6.9-8.2-6.9H342.6c-4,0-7.5,2.9-8.2,6.9l-0.3,1.6l-2.4,14.2l-2.4,14.2l-2.4,14.2
			l-2.4,14.2l-2.4,14.3l-2.4,14.2l-2.4,13.9l-2.4,14.2l-2.4,14.2l-2.4,14.2l-0.4,2.3h-42.5V156.1H574.8z"/>
		<path class="st4" d="M322.6,129c-0.3,0-0.7,0.1-1,0.4l-2,2l-6.5,6.5l-6.5-6.5l-2-2c-0.3-0.3-0.6-0.4-1-0.4H322.6z"/>
		<path class="st4" d="M359.1,129v27h-92v-27h36.5c0.3,0,0.7,0.1,1,0.4l2,2l6.5,6.5l6.5-6.5l2-2c0.3-0.3,0.6-0.4,1-0.4H359.1z"/>
		<path class="st4" d="M359.1,55.4v27H290c0.3,0,0.7-0.1,0.9-0.4l2.5-2.5c0.5-0.5,0.5-1.4,0-1.9l-2-2l-6.5-6.5l8.5-8.5
			c0.5-0.5,0.5-1.4,0-1.9l-2.5-2.5c-0.5-0.5-1.4-0.5-1.9,0l-2,2l-6.5,6.5l-6.5-6.5l-2-2c-0.5-0.5-1.4-0.5-1.9,0l-2.5,2.5
			c-0.3,0.3-0.4,0.6-0.4,1v-4.1h36.4c-0.3,0-0.6,0.1-0.9,0.4l-2.5,2.5c-0.5,0.5-0.5,1.4,0,1.9l8.5,8.5l-6.5,6.5l-2,2
			c-0.5,0.5-0.5,1.4,0,1.9l2.5,2.5c0.5,0.5,1.4,0.5,1.9,0l2-2l6.5-6.5l6.5,6.5l2,2c0.5,0.5,1.4,0.5,1.9,0l2.5-2.5
			c0.5-0.5,0.5-1.4,0-1.9l-2-2l-6.5-6.5l6.5-6.5l2-2c0.5-0.5,0.5-1.4,0-1.9l-2.5-2.5c-0.2-0.2-0.6-0.4-0.9-0.4h13.5
			c-0.3,0-0.6,0.1-0.9,0.4l-2.5,2.5c-0.5,0.5-0.5,1.4,0,1.9l8.5,8.5l-6.5,6.5l-2,2c-0.5,0.5-0.5,1.4,0,1.9l2.5,2.5
			c0.5,0.5,1.4,0.5,1.9,0l2-2l6.5-6.5l8.5,8.5c0.5,0.5,1.4,0.5,1.9,0l2.5-2.5c0.5-0.5,0.5-1.4,0-1.9l-2-2l-6.5-6.5l6.5-6.5l2-2
			c0.5-0.5,0.5-1.4,0-1.9l-2.5-2.5c-0.2-0.2-0.6-0.4-0.9-0.4H359.1z"/>
		<path class="st4" d="M322.5,55.4c-0.3,0-0.6,0.1-0.9,0.4l-2,2l-6.5,6.5l-6.5-6.5l-2-2c-0.2-0.2-0.6-0.4-0.9-0.4H322.5z"/>
		<path class="st24" d="M326.1,77.3c0.5,0.5,0.5,1.4,0,1.9l-2.5,2.5c-0.5,0.5-1.4,0.5-1.9,0l-2-2l-6.5-6.5l-6.5,6.5l-2,2
			c-0.5,0.5-1.4,0.5-1.9,0l-2.5-2.5c-0.5-0.5-0.5-1.4,0-1.9l2-2l6.5-6.5l-8.5-8.5c-0.5-0.5-0.5-1.4,0-1.9l2.5-2.5
			c0.2-0.2,0.5-0.4,0.9-0.4h0.2c0.3,0,0.6,0.1,0.9,0.4l2,2l6.5,6.5l6.5-6.5l2-2c0.2-0.2,0.6-0.4,0.9-0.4h0.2c0.3,0,0.6,0.1,0.9,0.4
			l2.5,2.5c0.5,0.5,0.5,1.4,0,1.9l-2,2l-6.5,6.5l6.5,6.5L326.1,77.3z"/>
		<path class="st4" d="M355.1,55.4c-0.3,0-0.6,0.1-0.9,0.4l-2,2l-6.5,6.5l-6.5-6.5l-2-2c-0.2-0.2-0.5-0.4-0.9-0.4H355.1z"/>
		<path class="st24" d="M358.7,77.3c0.5,0.5,0.5,1.4,0,1.9l-2.5,2.5c-0.5,0.5-1.4,0.5-1.9,0l-8.5-8.5l-6.5,6.5l-2,2
			c-0.5,0.5-1.4,0.5-1.9,0l-2.5-2.5c-0.5-0.5-0.5-1.4,0-1.9l2-2l6.5-6.5l-8.5-8.5c-0.5-0.5-0.5-1.4,0-1.9l2.5-2.5
			c0.2-0.2,0.5-0.4,0.9-0.4h0.2c0.3,0,0.6,0.1,0.9,0.4l2,2l6.5,6.5l6.5-6.5l2-2c0.2-0.2,0.6-0.4,0.9-0.4h0.2c0.3,0,0.6,0.1,0.9,0.4
			l2.5,2.5c0.5,0.5,0.5,1.4,0,1.9l-2,2l-6.5,6.5l6.5,6.5L358.7,77.3z"/>
		<path class="st4" d="M276,69l-6.5,6.5l-2,2c-0.3,0.3-0.4,0.6-0.4,1v-19c0,0.3,0.1,0.7,0.4,1L276,69z"/>
		<path class="st4" d="M271,82.4h-3.9v-3.9c0,0.3,0.1,0.7,0.4,1L270,82C270.3,82.2,270.6,82.4,271,82.4z"/>
		<path class="st24" d="M271.9,82c-0.3,0.3-0.6,0.4-1,0.4c-0.3,0-0.7-0.1-1-0.4l-2.5-2.5c-0.3-0.3-0.4-0.6-0.4-1s0.1-0.7,0.4-1l2-2
			L276,69l-8.5-8.5c-0.3-0.3-0.4-0.6-0.4-1c0-0.4,0.1-0.7,0.4-1L270,56c0.5-0.5,1.4-0.5,1.9,0l2,2l6.5,6.5l6.5-6.5l2-2
			c0.5-0.5,1.4-0.5,1.9,0l2.5,2.5c0.5,0.5,0.5,1.4,0,1.9l-8.5,8.5l6.5,6.5l2,2c0.5,0.5,0.5,1.4,0,1.9l-2.5,2.5
			c-0.3,0.3-0.6,0.4-0.9,0.4c-0.4,0-0.7-0.1-1-0.4l-2-2l-6.5-6.5L271.9,82z"/>
		<rect x="267.1" y="82.4" class="st24" width="92" height="34.4"/>
		<rect x="482.8" y="116.8" class="st4" width="92" height="12.3"/>
		<rect x="482.8" y="129" class="st4" width="92" height="27"/>
		<path class="st24" d="M482.8,82.4v34.4h92V82.4H482.8z M565.8,68.7l6.5-6.5l2-2c0.5-0.5,0.5-1.4,0-1.9l-2.5-2.5
			c-0.2-0.2-0.6-0.4-0.9-0.4h-0.2c-0.3,0-0.6,0.1-0.9,0.4l-2,2l-6.5,6.5l-6.5-6.5l-2-2c-0.2-0.2-0.5-0.4-0.9-0.4h-0.2
			c-0.3,0-0.6,0.1-0.9,0.4l-2.5,2.5c-0.5,0.5-0.5,1.4,0,1.9l8.5,8.5l-6.5,6.5l-2,2c-0.5,0.5-0.5,1.4,0,1.9l2.5,2.5
			c0.5,0.5,1.4,0.5,1.9,0l2-2l6.5-6.5l6.5,6.5l2,2c0.5,0.5,1.4,0.5,1.9,0l2.5-2.5c0.5-0.5,0.5-1.4,0-1.9L565.8,68.7z M539.7,75.2
			l-6.5-6.5l8.5-8.5c0.5-0.5,0.5-1.4,0-1.9l-2.5-2.5c-0.2-0.2-0.5-0.4-0.9-0.4h-0.2c-0.3,0-0.6,0.1-0.9,0.4l-2,2l-6.5,6.5l-6.5-6.5
			l-2-2c-0.2-0.2-0.5-0.4-0.9-0.4h-0.2c-0.3,0-0.6,0.1-0.9,0.4l-2.5,2.5c-0.5,0.5-0.5,1.4,0,1.9l2,2l6.5,6.5l-6.5,6.5l-2,2
			c-0.5,0.5-0.5,1.4,0,1.9l2.5,2.5c0.5,0.5,1.4,0.5,1.9,0l2-2l6.5-6.5l8.5,8.5c0.5,0.5,1.4,0.5,1.9,0l2.5-2.5c0.5-0.5,0.5-1.4,0-1.9
			L539.7,75.2z M507.1,75.5l-6.5-6.5l6.5-6.5l2.1-2c0.5-0.5,0.5-1.4,0-1.9l-2.5-2.5c-0.5-0.5-1.4-0.5-1.9,0l-2,2l-6.5,6.5l-6.5-6.5
			l-2-2c-0.5-0.5-1.4-0.5-1.9,0l-2.5,2.5c-0.5,0.5-0.5,1.4,0,1.9l2,2l6.5,6.5l-8.5,8.5c-0.5,0.5-0.5,1.4,0,1.9l2.5,2.5
			c0.3,0.3,0.6,0.4,1,0.4c0.3,0,0.7-0.1,1-0.4l2-2l6.5-6.5l6.5,6.5l2,2c0.3,0.3,0.6,0.4,1,0.4c0.3,0,0.7-0.1,1-0.4l2.5-2.5
			c0.5-0.5,0.5-1.4,0-1.9L507.1,75.5z"/>
		<path class="st4" d="M570.8,55.4c-0.3,0-0.6,0.1-0.9,0.4l-2,2l-6.5,6.5l-6.5-6.5l-2-2c-0.2-0.2-0.5-0.4-0.9-0.4H570.8z"/>
		<path class="st4" d="M538.2,55.4c-0.3,0-0.6,0.1-0.9,0.4l-2,2l-6.5,6.5l-6.5-6.5l-2-2c-0.2-0.2-0.5-0.4-0.9-0.4H538.2z"/>
		<path class="st4" d="M574.8,55.4v27h-69.1c0.3,0,0.7-0.1,1-0.4l2.5-2.5c0.5-0.5,0.5-1.4,0-1.9l-2.1-2l-6.5-6.5l6.5-6.5l2.1-2
			c0.5-0.5,0.5-1.4,0-1.9l-2.5-2.5c-0.5-0.5-1.4-0.5-1.9,0l-2,2l-6.5,6.5l-6.5-6.5l-2-2c-0.5-0.5-1.4-0.5-1.9,0l-2.5,2.5
			c-0.5,0.5-0.5,1.4,0,1.9l2,2l6.5,6.5l-8.5,8.5c-0.5,0.5-0.5,1.4,0,1.9l2.5,2.5c0.3,0.3,0.6,0.4,1,0.4h-3.9v-27h36.4
			c-0.3,0-0.6,0.1-0.9,0.4l-2.5,2.5c-0.5,0.5-0.5,1.4,0,1.9l2,2l6.5,6.5l-6.5,6.5l-2,2c-0.5,0.5-0.5,1.4,0,1.9l2.5,2.5
			c0.5,0.5,1.4,0.5,1.9,0l2-2l6.5-6.5l8.5,8.5c0.5,0.5,1.4,0.5,1.9,0l2.5-2.5c0.5-0.5,0.5-1.4,0-1.9l-2-2l-6.5-6.5l8.5-8.5
			c0.5-0.5,0.5-1.4,0-1.9l-2.5-2.5c-0.2-0.2-0.5-0.4-0.9-0.4h13.5c-0.3,0-0.6,0.1-0.9,0.4l-2.5,2.5c-0.5,0.5-0.5,1.4,0,1.9l8.5,8.5
			l-6.5,6.5l-2,2c-0.5,0.5-0.5,1.4,0,1.9l2.5,2.5c0.5,0.5,1.4,0.5,1.9,0l2-2l6.5-6.5l6.5,6.5l2,2c0.5,0.5,1.4,0.5,1.9,0l2.5-2.5
			c0.5-0.5,0.5-1.4,0-1.9l-8.5-8.5l6.5-6.5l2-2c0.5-0.5,0.5-1.4,0-1.9l-2.5-2.5c-0.2-0.2-0.6-0.4-0.9-0.4H574.8z"/>
		<polyline class="st24" points="359.1,129.1 368.8,129.1 370.8,129.1 380.1,129.1 382.1,129.1 391.5,129.1 393.5,129.1 
			402.8,129.1 404.8,129.1 414.2,129.1 416.2,129.1 425.5,129.1 427.5,129.1 436.9,129.1 438.9,129.1 448.2,129.1 450.2,129.1 
			459.8,129.1 461.8,129.1 471.1,129.1 473.1,129.1 482.8,129.1 		"/>
		<rect x="267.1" y="116.8" class="st4" width="92" height="12.3"/>
		<polyline class="st24" points="482.8,116.8 473.1,116.8 471.1,116.8 461.8,116.8 459.8,116.8 450.2,116.8 448.2,116.8 
			438.9,116.8 436.9,116.8 427.5,116.8 425.5,116.8 416.2,116.8 414.2,116.8 404.8,116.8 402.8,116.8 393.5,116.8 391.5,116.8 
			382.1,116.8 380.1,116.8 370.8,116.8 368.8,116.8 359.1,116.8 		"/>
		<g>
			<rect x="368.7" y="116.8" class="st25" width="2" height="12.3"/>
			<rect x="380.1" y="116.8" class="st25" width="2" height="12.3"/>
			<rect x="391.5" y="116.8" class="st25" width="2" height="12.3"/>
			<rect x="402.8" y="116.8" class="st25" width="2" height="12.3"/>
			<rect x="414.2" y="116.8" class="st25" width="2" height="12.3"/>
			<rect x="425.5" y="116.8" class="st25" width="2" height="12.3"/>
			<rect x="436.9" y="116.8" class="st25" width="2" height="12.3"/>
			<rect x="448.2" y="116.8" class="st25" width="2" height="12.3"/>
			<rect x="459.8" y="116.8" class="st25" width="2" height="12.3"/>
			<rect x="471.1" y="116.8" class="st25" width="2" height="12.3"/>
		</g>
		<path class="st4" d="M290,82.4h-19c0.4,0,0.7-0.1,1-0.4l8.5-8.5l6.5,6.5l2,2C289.3,82.2,289.6,82.4,290,82.4z"/>
		<path class="st4" d="M505.7,82.4h-19c0.3,0,0.7-0.1,1-0.4l2-2l6.5-6.5l6.5,6.5l2,2C505,82.2,505.3,82.4,505.7,82.4z"/>
		<g>
			<g>
				<path class="st26" d="M339.2,57.8l-4.5,4.5l-2-2c-0.5-0.5-0.5-1.4,0-1.9l2.5-2.5c0.2-0.2,0.5-0.4,0.9-0.4h0.2
					c0.3,0,0.6,0.1,0.9,0.4L339.2,57.8z"/>
				<path class="st26" d="M358.7,79.2l-2.5,2.5c-0.5,0.5-1.4,0.5-1.9,0l-2-2l4.5-4.5l2,2C359.2,77.8,359.2,78.7,358.7,79.2z"/>
			</g>
			
				<rect x="348" y="69.6" transform="matrix(0.7071 -0.7071 0.7071 0.7071 50.3809 270.0503)" class="st25" width="6.3" height="9.2"/>
			
				<rect x="337.1" y="58.7" transform="matrix(0.7079 -0.7063 0.7063 0.7079 54.6903 258.7896)" class="st25" width="6.3" height="9.2"/>
			<g>
				<path class="st26" d="M358.7,60.2l-2,2l-4.5-4.5l2-2c0.2-0.2,0.6-0.4,0.9-0.4h0.2c0.3,0,0.6,0.1,0.9,0.4l2.5,2.5
					C359.2,58.8,359.2,59.7,358.7,60.2z"/>
				<path class="st26" d="M339.2,79.7l-2,2c-0.5,0.5-1.4,0.5-1.9,0l-2.5-2.5c-0.5-0.5-0.5-1.4,0-1.9l2-2L339.2,79.7z"/>
			</g>
			<polygon class="st25" points="356.6,62.2 339.2,79.7 334.8,75.2 341.2,68.7 345.7,64.3 352.2,57.8 			"/>
		</g>
		<g>
			<g>
				<path class="st26" d="M274,58.1l-4.4,4.5l-2-2c-0.3-0.3-0.4-0.6-0.4-1c0-0.4,0.1-0.7,0.4-1L270,56c0.5-0.5,1.4-0.5,1.9,0
					L274,58.1z"/>
				<path class="st26" d="M293.5,79.4l-2.5,2.5c-0.3,0.3-0.6,0.4-0.9,0.4c-0.4,0-0.7-0.1-1-0.4l-2-2l4.4-4.5l2,2
					C294,78.1,294,78.9,293.5,79.4z"/>
			</g>
			
				<rect x="282.8" y="69.9" transform="matrix(0.7071 -0.7071 0.7071 0.7071 31.0927 224.0036)" class="st25" width="6.3" height="9.2"/>
			
				<rect x="271.9" y="58.9" transform="matrix(0.7071 -0.7071 0.7071 0.7071 35.6242 213.0635)" class="st25" width="6.3" height="9.2"/>
			<g>
				<path class="st26" d="M293.5,60.5l-2,2l-4.4-4.5l2-2c0.5-0.5,1.4-0.5,1.9,0l2.5,2.5C294,59.1,294,59.9,293.5,60.5z"/>
				<path class="st26" d="M274,79.9l-2,2c-0.3,0.3-0.6,0.4-1,0.4c-0.3,0-0.7-0.1-1-0.4l-2.5-2.5c-0.3-0.3-0.4-0.6-0.4-1
					s0.1-0.7,0.4-1l2-2L274,79.9z"/>
			</g>
			<polygon class="st25" points="291.4,62.5 274,79.9 269.5,75.5 276,69 280.5,64.5 287,58.1 			"/>
		</g>
		<g>
			<g>
				<path class="st26" d="M306.6,57.8l-4.4,4.5l-2-2c-0.5-0.5-0.5-1.4,0-1.9l2.5-2.5c0.2-0.2,0.5-0.4,0.9-0.4h0.2
					c0.3,0,0.6,0.1,0.9,0.4L306.6,57.8z"/>
				<path class="st26" d="M326.1,79.2l-2.5,2.5c-0.5,0.5-1.4,0.5-1.9,0l-2-2l4.5-4.5l2,2C326.6,77.8,326.6,78.7,326.1,79.2z"/>
			</g>
			
				<rect x="315.4" y="69.6" transform="matrix(0.7071 -0.7071 0.7071 0.7071 40.8275 246.9863)" class="st25" width="6.3" height="9.2"/>
			<polygon class="st25" points="313.1,64.3 308.6,68.7 302.2,62.2 306.6,57.8 			"/>
			<g>
				<path class="st26" d="M326.1,60.2l-2,2l-4.5-4.5l2-2c0.2-0.2,0.6-0.4,0.9-0.4h0.2c0.3,0,0.6,0.1,0.9,0.4l2.5,2.5
					C326.6,58.8,326.6,59.7,326.1,60.2z"/>
				<path class="st26" d="M306.6,79.7l-2,2c-0.5,0.5-1.4,0.5-1.9,0l-2.5-2.5c-0.5-0.5-0.5-1.4,0-1.9l2-2L306.6,79.7z"/>
			</g>
			<polygon class="st25" points="324,62.2 317.5,68.7 313.1,73.2 306.6,79.7 302.2,75.2 308.6,68.7 313.1,64.3 319.6,57.8 			"/>
		</g>
		<g>
			<g>
				<path class="st26" d="M339.2,131.5l-4.4,4.4l-2-2c-0.5-0.5-0.5-1.4,0-1.9l2.5-2.5c0.5-0.5,1.4-0.5,1.9,0L339.2,131.5z"/>
				<path class="st26" d="M358.7,152.9l-2.5,2.5c-0.5,0.5-1.4,0.5-1.9,0l-2-2l4.5-4.4l2,2C359.2,151.5,359.2,152.3,358.7,152.9z"/>
			</g>
			
				<rect x="348" y="143.3" transform="matrix(0.7076 -0.7067 0.7067 0.7076 -1.815 291.406)" class="st25" width="6.3" height="9.2"/>
			
				<rect x="337.1" y="132.4" transform="matrix(0.7071 -0.7071 0.7071 0.7071 2.8074 280.6924)" class="st25" width="6.3" height="9.2"/>
			<g>
				<path class="st26" d="M358.7,133.9l-2,2l-4.5-4.4l2-2c0.5-0.5,1.4-0.5,1.9,0l2.5,2.5C359.2,132.5,359.2,133.4,358.7,133.9z"/>
				<path class="st26" d="M339.2,153.4l-2,2c-0.5,0.5-1.4,0.5-1.9,0l-2.5-2.5c-0.5-0.5-0.5-1.4,0-1.9l2-2L339.2,153.4z"/>
			</g>
			<polygon class="st25" points="356.6,135.9 350.1,142.4 345.7,146.9 339.2,153.4 334.8,148.9 341.3,142.4 345.7,138 352.2,131.5 
							"/>
		</g>
		<g>
			<g>
				<path class="st26" d="M274,131.7l-4.4,4.4l-2-2c-0.5-0.5-0.5-1.4,0-1.9l2.5-2.5c0.5-0.5,1.4-0.5,1.9,0L274,131.7z"/>
				<path class="st26" d="M293.4,153.1l-2.5,2.5c-0.5,0.5-1.4,0.5-1.9,0l-2-2l4.5-4.4l2,2C294,151.7,294,152.6,293.4,153.1z"/>
			</g>
			
				<rect x="282.8" y="143.6" transform="matrix(0.7076 -0.7067 0.7067 0.7076 -21.0741 245.3861)" class="st25" width="6.3" height="9.2"/>
			
				<rect x="271.9" y="132.6" transform="matrix(0.7071 -0.7071 0.7071 0.7071 -16.4811 234.6433)" class="st25" width="6.3" height="9.2"/>
			<g>
				<path class="st26" d="M293.4,134.2l-2,2l-4.5-4.4l2-2c0.5-0.5,1.4-0.5,1.9,0l2.5,2.5C294,132.8,294,133.6,293.4,134.2z"/>
				<path class="st26" d="M274,153.6l-2,2c-0.5,0.5-1.4,0.5-1.9,0l-2.5-2.5c-0.5-0.5-0.5-1.4,0-1.9l2-2L274,153.6z"/>
			</g>
			<polygon class="st25" points="291.4,136.2 284.9,142.7 280.5,147.1 274,153.6 269.5,149.2 276,142.7 280.5,138.2 287,131.7 			
				"/>
		</g>
		<g>
			<g>
				<path class="st26" d="M306.6,131.5l-4.4,4.4l-2-2c-0.5-0.5-0.5-1.4,0-1.9l2.5-2.5c0.3-0.3,0.6-0.4,1-0.4c0.3,0,0.7,0.1,1,0.4
					L306.6,131.5z"/>
				<path class="st26" d="M326.1,152.9l-2.5,2.5c-0.5,0.5-1.4,0.5-1.9,0l-2-2l4.5-4.4l2,2C326.6,151.5,326.6,152.3,326.1,152.9z"/>
			</g>
			
				<rect x="315.4" y="143.3" transform="matrix(0.7076 -0.7067 0.7067 0.7076 -11.3531 268.3582)" class="st25" width="6.3" height="9.2"/>
			<polygon class="st25" points="313.1,138 308.6,142.4 302.2,135.9 306.6,131.5 			"/>
			<g>
				<path class="st26" d="M326.1,133.9l-2,2l-4.5-4.4l2-2c0.3-0.3,0.6-0.4,1-0.4c0.3,0,0.7,0.1,1,0.4l2.5,2.5
					C326.6,132.5,326.6,133.4,326.1,133.9z"/>
				<path class="st26" d="M306.6,153.4l-2,2c-0.5,0.5-1.4,0.5-1.9,0l-2.5-2.5c-0.5-0.5-0.5-1.4,0-1.9l2-2L306.6,153.4z"/>
			</g>
			<polygon class="st25" points="324,135.9 317.5,142.4 306.6,153.4 302.2,148.9 313.1,138 319.6,131.5 			"/>
		</g>
		<g>
			<g>
				<path class="st26" d="M554.9,57.8l-4.4,4.5l-2-2c-0.5-0.5-0.5-1.4,0-1.9l2.5-2.5c0.2-0.2,0.5-0.4,0.9-0.4h0.2
					c0.3,0,0.6,0.1,0.9,0.4L554.9,57.8z"/>
				<path class="st26" d="M574.4,79.2l-2.5,2.5c-0.5,0.5-1.4,0.5-1.9,0l-2-2l4.5-4.5l2,2C574.9,77.8,574.9,78.7,574.4,79.2z"/>
			</g>
			
				<rect x="563.7" y="69.6" transform="matrix(0.7071 -0.7071 0.7071 0.7071 113.5558 422.5679)" class="st25" width="6.3" height="9.2"/>
			<polygon class="st25" points="561.4,64.3 557,68.7 550.5,62.2 554.9,57.8 			"/>
			<g>
				<path class="st26" d="M574.4,60.2l-2,2l-4.5-4.5l2-2c0.2-0.2,0.6-0.4,0.9-0.4h0.2c0.3,0,0.6,0.1,0.9,0.4l2.5,2.5
					C574.9,58.8,574.9,59.7,574.4,60.2z"/>
				<path class="st26" d="M554.9,79.7l-2,2c-0.5,0.5-1.4,0.5-1.9,0l-2.5-2.5c-0.5-0.5-0.5-1.4,0-1.9l2-2L554.9,79.7z"/>
			</g>
			<polygon class="st25" points="572.3,62.2 565.8,68.7 561.4,73.2 554.9,79.7 550.5,75.2 557,68.7 561.4,64.3 567.9,57.8 			"/>
		</g>
		<g>
			<g>
				<path class="st26" d="M489.7,58.1l-4.4,4.5l-2-2c-0.5-0.5-0.5-1.4,0-1.9l2.5-2.5c0.5-0.5,1.4-0.5,1.9,0L489.7,58.1z"/>
				<path class="st26" d="M509.2,79.4l-2.5,2.5c-0.3,0.3-0.6,0.4-1,0.4c-0.3,0-0.7-0.1-1-0.4l-2-2l4.4-4.5l2.1,2
					C509.7,78.1,509.7,78.9,509.2,79.4z"/>
			</g>
			
				<rect x="498.5" y="69.9" transform="matrix(0.7071 -0.7071 0.7071 0.7071 94.2686 376.5223)" class="st25" width="6.3" height="9.2"/>
			
				<rect x="487.6" y="58.9" transform="matrix(0.7071 -0.7071 0.7071 0.7071 98.7995 365.583)" class="st25" width="6.3" height="9.2"/>
			<g>
				<path class="st26" d="M509.2,60.5l-2.1,2l-4.4-4.5l2-2c0.5-0.5,1.4-0.5,1.9,0l2.5,2.5C509.7,59.1,509.7,59.9,509.2,60.5z"/>
				<path class="st26" d="M489.7,79.9l-2,2c-0.3,0.3-0.6,0.4-1,0.4c-0.3,0-0.7-0.1-1-0.4l-2.5-2.5c-0.5-0.5-0.5-1.4,0-1.9l2-2
					L489.7,79.9z"/>
			</g>
			<polygon class="st25" points="507.1,62.5 500.6,69 496.2,73.5 489.7,79.9 485.2,75.5 496.2,64.5 502.7,58.1 			"/>
		</g>
		<g>
			<g>
				<path class="st26" d="M522.3,57.8l-4.4,4.5l-2-2c-0.5-0.5-0.5-1.4,0-1.9l2.5-2.5c0.2-0.2,0.5-0.4,0.9-0.4h0.2
					c0.3,0,0.6,0.1,0.9,0.4L522.3,57.8z"/>
				<path class="st26" d="M541.8,79.2l-2.5,2.5c-0.5,0.5-1.4,0.5-1.9,0l-2-2l4.4-4.5l2,2C542.3,77.8,542.3,78.7,541.8,79.2z"/>
			</g>
			
				<rect x="531.1" y="69.6" transform="matrix(0.7071 -0.7071 0.7071 0.7071 104.006 399.5103)" class="st25" width="6.3" height="9.2"/>
			<polygon class="st25" points="528.8,64.3 524.3,68.7 517.8,62.2 522.3,57.8 			"/>
			<g>
				<path class="st26" d="M541.8,60.2l-2,2l-4.4-4.5l2-2c0.2-0.2,0.5-0.4,0.9-0.4h0.2c0.3,0,0.6,0.1,0.9,0.4l2.5,2.5
					C542.3,58.8,542.3,59.7,541.8,60.2z"/>
				<path class="st26" d="M522.3,79.7l-2,2c-0.5,0.5-1.4,0.5-1.9,0l-2.5-2.5c-0.5-0.5-0.5-1.4,0-1.9l2-2L522.3,79.7z"/>
			</g>
			<polygon class="st25" points="539.7,62.2 533.2,68.7 528.8,73.2 522.3,79.7 517.8,75.2 524.3,68.7 528.8,64.3 535.3,57.8 			"/>
		</g>
		<g>
			<g>
				<path class="st26" d="M554.9,131.5l-4.4,4.4l-2-2c-0.5-0.5-0.5-1.4,0-1.9l2.5-2.5c0.5-0.5,1.4-0.5,1.9,0L554.9,131.5z"/>
				<path class="st26" d="M574.4,152.9l-2.5,2.5c-0.5,0.5-1.4,0.5-1.9,0l-2-2l4.5-4.4l2,2C574.9,151.5,574.9,152.3,574.4,152.9z"/>
			</g>
			
				<rect x="563.7" y="143.3" transform="matrix(0.7076 -0.7067 0.7067 0.7076 61.2637 443.8288)" class="st25" width="6.3" height="9.2"/>
			
				<rect x="552.8" y="132.4" transform="matrix(0.7071 -0.7071 0.7071 0.7071 65.9827 433.2119)" class="st25" width="6.3" height="9.2"/>
			<g>
				<path class="st26" d="M574.4,133.9l-2,2l-4.5-4.4l2-2c0.5-0.5,1.4-0.5,1.9,0l2.5,2.5C574.9,132.5,574.9,133.4,574.4,133.9z"/>
				<path class="st26" d="M554.9,153.4l-2,2c-0.5,0.5-1.4,0.5-1.9,0l-2.5-2.5c-0.5-0.5-0.5-1.4,0-1.9l2-2L554.9,153.4z"/>
			</g>
			<polygon class="st25" points="572.3,135.9 565.8,142.4 561.4,146.9 554.9,153.4 550.5,148.9 557,142.4 561.4,138 567.9,131.5 			
				"/>
		</g>
		<g>
			<g>
				<path class="st26" d="M489.7,131.7l-4.4,4.4l-2-2c-0.5-0.5-0.5-1.4,0-1.9l2.5-2.5c0.5-0.5,1.4-0.5,1.9,0L489.7,131.7z"/>
				<path class="st26" d="M509.1,153.1l-2.5,2.5c-0.5,0.5-1.4,0.5-1.9,0l-2-2l4.5-4.4l2,2C509.7,151.7,509.7,152.6,509.1,153.1z"/>
			</g>
			
				<rect x="498.5" y="143.6" transform="matrix(0.7076 -0.7067 0.7067 0.7076 42.0045 397.8088)" class="st25" width="6.3" height="9.2"/>
			
				<rect x="487.6" y="132.6" transform="matrix(0.7071 -0.7071 0.7071 0.7071 46.6942 387.1629)" class="st25" width="6.3" height="9.2"/>
			<g>
				<path class="st26" d="M509.1,134.2l-2,2l-4.5-4.4l2-2c0.5-0.5,1.4-0.5,1.9,0l2.5,2.5C509.7,132.8,509.7,133.6,509.1,134.2z"/>
				<path class="st26" d="M489.7,153.6l-2,2c-0.5,0.5-1.4,0.5-1.9,0l-2.5-2.5c-0.5-0.5-0.5-1.4,0-1.9l2-2L489.7,153.6z"/>
			</g>
			<polygon class="st25" points="507.1,136.2 500.6,142.7 496.2,147.1 489.7,153.6 485.2,149.2 491.7,142.7 496.2,138.2 
				502.7,131.7 			"/>
		</g>
		<g>
			<g>
				<path class="st26" d="M522.3,131.5l-4.4,4.4l-2-2c-0.5-0.5-0.5-1.4,0-1.9l2.5-2.5c0.5-0.5,1.4-0.5,1.9,0L522.3,131.5z"/>
				<path class="st26" d="M541.8,152.9l-2.5,2.5c-0.5,0.5-1.4,0.5-1.9,0l-2-2l4.5-4.4l2,2C542.3,151.5,542.3,152.3,541.8,152.9z"/>
			</g>
			
				<rect x="531.1" y="143.3" transform="matrix(0.7076 -0.7067 0.7067 0.7076 51.7255 420.7809)" class="st25" width="6.3" height="9.2"/>
			
				<rect x="520.2" y="132.4" transform="matrix(0.7071 -0.7071 0.7071 0.7071 56.4299 410.1495)" class="st25" width="6.3" height="9.2"/>
			<g>
				<path class="st26" d="M541.8,133.9l-2,2l-4.5-4.4l2-2c0.5-0.5,1.4-0.5,1.9,0l2.5,2.5C542.3,132.5,542.3,133.4,541.8,133.9z"/>
				<path class="st26" d="M522.3,153.4l-2,2c-0.5,0.5-1.4,0.5-1.9,0l-2.5-2.5c-0.5-0.5-0.5-1.4,0-1.9l2-2L522.3,153.4z"/>
			</g>
			<polygon class="st25" points="539.7,135.9 533.2,142.4 528.8,146.9 522.3,153.4 517.8,148.9 524.3,142.4 528.8,138 535.3,131.5 
							"/>
		</g>
		<line class="st24" x1="278.6" y1="116.8" x2="267.1" y2="103.1"/>
		<line class="st24" x1="347.5" y1="116.8" x2="359.1" y2="103.1"/>
		<line class="st24" x1="494.3" y1="116.5" x2="482.8" y2="102.9"/>
		<line class="st24" x1="563.2" y1="116.5" x2="574.8" y2="102.9"/>
		<g>
			<rect x="256.3" y="199.2" class="st27" width="10.8" height="174.8"/>
			<polygon class="st28" points="256.3,199.2 261.7,179.3 267.1,199.2 			"/>
		</g>
		<g>
			<rect x="245.5" y="199.2" class="st27" width="10.8" height="174.8"/>
			<polygon class="st28" points="245.5,199.2 250.9,179.3 256.3,199.2 			"/>
		</g>
		<g>
			<rect x="234.6" y="199.2" class="st27" width="10.8" height="174.8"/>
			<polygon class="st28" points="234.6,199.2 240.1,179.3 245.5,199.2 			"/>
		</g>
		<g>
			<rect x="223.8" y="199.2" class="st27" width="10.8" height="174.8"/>
			<polygon class="st28" points="223.8,199.2 229.2,179.3 234.6,199.2 			"/>
		</g>
		<g>
			<rect x="213" y="199.2" class="st27" width="10.8" height="174.8"/>
			<polygon class="st28" points="213,199.2 218.4,179.3 223.8,199.2 			"/>
		</g>
		<g>
			<rect x="202.2" y="199.2" class="st27" width="10.8" height="174.8"/>
			<polygon class="st28" points="202.2,199.2 207.6,179.3 213,199.2 			"/>
		</g>
		<g>
			<rect x="191.4" y="199.2" class="st27" width="10.8" height="174.8"/>
			<polygon class="st28" points="191.4,199.2 196.8,179.3 202.2,199.2 			"/>
		</g>
		<g>
			<rect x="180.6" y="199.2" class="st27" width="10.8" height="174.8"/>
			<polygon class="st28" points="180.6,199.2 186,179.3 191.4,199.2 			"/>
		</g>
		<g>
			<rect x="169.8" y="199.2" class="st27" width="10.8" height="174.8"/>
			<polygon class="st28" points="169.7,199.2 175.2,179.3 180.6,199.2 			"/>
		</g>
		<g>
			<rect x="158.9" y="199.2" class="st27" width="10.8" height="174.8"/>
			<polygon class="st28" points="158.9,199.2 164.3,179.3 169.7,199.2 			"/>
		</g>
		<g>
			<rect x="148.1" y="199.2" class="st27" width="10.8" height="174.8"/>
			<polygon class="st28" points="148.1,199.2 153.5,179.3 158.9,199.2 			"/>
		</g>
		<g>
			<rect x="137.3" y="199.2" class="st27" width="10.8" height="174.8"/>
			<polygon class="st28" points="137.3,199.2 142.7,179.3 148.1,199.2 			"/>
		</g>
		<g>
			<rect x="126.5" y="199.2" class="st27" width="10.8" height="174.8"/>
			<polygon class="st28" points="126.5,199.2 131.9,179.3 137.3,199.2 			"/>
		</g>
		<g>
			<rect x="115.7" y="199.2" class="st27" width="10.8" height="174.8"/>
			<polygon class="st28" points="115.7,199.2 121.1,179.3 126.5,199.2 			"/>
		</g>
		<g>
			<rect x="104.9" y="199.2" class="st27" width="10.8" height="174.8"/>
			<polygon class="st28" points="104.9,199.2 110.3,179.3 115.7,199.2 			"/>
		</g>
		<g>
			<rect x="94" y="199.2" class="st27" width="10.8" height="174.8"/>
			<polygon class="st28" points="94,199.2 99.4,179.3 104.9,199.2 			"/>
		</g>
		<g>
			<rect x="83.2" y="199.2" class="st27" width="10.8" height="174.8"/>
			<polygon class="st28" points="83.2,199.2 88.6,179.3 94,199.2 			"/>
		</g>
		<g>
			<rect x="72.4" y="199.2" class="st27" width="10.8" height="174.8"/>
			<polygon class="st28" points="72.4,199.2 77.8,179.3 83.2,199.2 			"/>
		</g>
		<g>
			<rect x="61.6" y="199.2" class="st27" width="10.8" height="174.8"/>
			<polygon class="st28" points="61.6,199.2 67,179.3 72.4,199.2 			"/>
		</g>
		<g>
			<rect x="50.8" y="199.2" class="st27" width="10.8" height="174.8"/>
			<polygon class="st28" points="50.8,199.2 56.2,179.3 61.6,199.2 			"/>
		</g>
		<g>
			<rect x="40" y="199.2" class="st27" width="10.8" height="174.8"/>
			<polygon class="st28" points="40,199.2 45.4,179.3 50.8,199.2 			"/>
		</g>
		<g>
			<rect x="29.2" y="199.2" class="st27" width="10.8" height="174.8"/>
			<polygon class="st28" points="29.1,199.2 34.6,179.3 40,199.2 			"/>
		</g>
		<g>
			<rect x="18.3" y="199.2" class="st27" width="10.8" height="174.8"/>
			<polygon class="st28" points="18.3,199.2 23.7,179.3 29.1,199.2 			"/>
		</g>
		<g>
			<rect x="7.5" y="199.2" class="st27" width="10.8" height="174.8"/>
			<polygon class="st28" points="7.5,199.2 12.9,179.3 18.3,199.2 			"/>
		</g>
		<g>
			<rect y="199.2" class="st27" width="7.5" height="174.8"/>
			<polygon class="st28" points="7.5,199.2 0,199.2 0,187.1 2.1,179.3 			"/>
		</g>
		<g>
			<rect x="834.3" y="199.2" class="st27" width="7.5" height="174.8"/>
			<polygon class="st28" points="841.9,187.2 841.9,199.2 834.3,199.2 839.8,179.3 			"/>
		</g>
		<g>
			<rect x="823.5" y="199.2" class="st27" width="10.8" height="174.8"/>
			<polygon class="st28" points="823.5,199.2 828.9,179.3 834.3,199.2 			"/>
		</g>
		<g>
			<rect x="812.7" y="199.2" class="st27" width="10.8" height="174.8"/>
			<polygon class="st28" points="812.7,199.2 818.1,179.3 823.5,199.2 			"/>
		</g>
		<g>
			<rect x="801.9" y="199.2" class="st27" width="10.8" height="174.8"/>
			<polygon class="st28" points="801.9,199.2 807.3,179.3 812.7,199.2 			"/>
		</g>
		<g>
			<rect x="791.1" y="199.2" class="st27" width="10.8" height="174.8"/>
			<polygon class="st28" points="791.1,199.2 796.5,179.3 801.9,199.2 			"/>
		</g>
		<g>
			<rect x="780.3" y="199.2" class="st27" width="10.8" height="174.8"/>
			<polygon class="st28" points="780.3,199.2 785.7,179.3 791.1,199.2 			"/>
		</g>
		<g>
			<rect x="769.5" y="199.2" class="st27" width="10.8" height="174.8"/>
			<polygon class="st28" points="769.5,199.2 774.9,179.3 780.3,199.2 			"/>
		</g>
		<g>
			<rect x="758.6" y="199.2" class="st27" width="10.8" height="174.8"/>
			<polygon class="st28" points="758.6,199.2 764,179.3 769.5,199.2 			"/>
		</g>
		<g>
			<rect x="747.8" y="199.2" class="st27" width="10.8" height="174.8"/>
			<polygon class="st28" points="747.8,199.2 753.2,179.3 758.6,199.2 			"/>
		</g>
		<g>
			<rect x="737" y="199.2" class="st27" width="10.8" height="174.8"/>
			<polygon class="st28" points="737,199.2 742.4,179.3 747.8,199.2 			"/>
		</g>
		<g>
			<rect x="726.2" y="199.2" class="st27" width="10.8" height="174.8"/>
			<polygon class="st28" points="726.2,199.2 731.6,179.3 737,199.2 			"/>
		</g>
		<g>
			<rect x="715.4" y="199.2" class="st27" width="10.8" height="174.8"/>
			<polygon class="st28" points="715.4,199.2 720.8,179.3 726.2,199.2 			"/>
		</g>
		<g>
			<rect x="704.6" y="199.2" class="st27" width="10.8" height="174.8"/>
			<polygon class="st28" points="704.6,199.2 710,179.3 715.4,199.2 			"/>
		</g>
		<g>
			<rect x="693.7" y="199.2" class="st27" width="10.8" height="174.8"/>
			<polygon class="st28" points="693.7,199.2 699.1,179.3 704.6,199.2 			"/>
		</g>
		<g>
			<rect x="682.9" y="199.2" class="st27" width="10.8" height="174.8"/>
			<polygon class="st28" points="682.9,199.2 688.3,179.3 693.7,199.2 			"/>
		</g>
		<g>
			<rect x="672.1" y="199.2" class="st27" width="10.8" height="174.8"/>
			<polygon class="st28" points="672.1,199.2 677.5,179.3 682.9,199.2 			"/>
		</g>
		<g>
			<rect x="661.3" y="199.2" class="st27" width="10.8" height="174.8"/>
			<polygon class="st28" points="661.3,199.2 666.7,179.3 672.1,199.2 			"/>
		</g>
		<g>
			<rect x="650.5" y="199.2" class="st27" width="10.8" height="174.8"/>
			<polygon class="st28" points="650.5,199.2 655.9,179.3 661.3,199.2 			"/>
		</g>
		<g>
			<rect x="639.7" y="199.2" class="st27" width="10.8" height="174.8"/>
			<polygon class="st28" points="639.7,199.2 645.1,179.3 650.5,199.2 			"/>
		</g>
		<g>
			<rect x="628.8" y="199.2" class="st27" width="10.8" height="174.8"/>
			<polygon class="st28" points="628.8,199.2 634.3,179.3 639.7,199.2 			"/>
		</g>
		<g>
			<rect x="618" y="199.2" class="st27" width="10.8" height="174.8"/>
			<polygon class="st28" points="618,199.2 623.4,179.3 628.8,199.2 			"/>
		</g>
		<g>
			<rect x="607.2" y="199.2" class="st27" width="10.8" height="174.8"/>
			<polygon class="st28" points="607.2,199.2 612.6,179.3 618,199.2 			"/>
		</g>
		<g>
			<rect x="596.4" y="199.2" class="st27" width="10.8" height="174.8"/>
			<polygon class="st28" points="596.4,199.2 601.8,179.3 607.2,199.2 			"/>
		</g>
		<g>
			<rect x="585.6" y="199.2" class="st27" width="10.8" height="174.8"/>
			<polygon class="st28" points="585.6,199.2 591,179.3 596.4,199.2 			"/>
		</g>
		<g>
			<rect x="574.8" y="199.2" class="st27" width="10.8" height="174.8"/>
			<polygon class="st28" points="574.8,199.2 580.2,179.3 585.6,199.2 			"/>
		</g>
		<path class="st1" d="M841.9,119v28.2h-27.7c-2.5,0-4.8-1-6.5-2.7c-1.7-1.7-2.7-4-2.7-6.5c0-5,4.1-9.2,9.2-9.2h1.7
			c-0.1-0.7-0.2-1.4-0.2-2.1c0-6,4.8-10.8,10.8-10.8c4.4,0,8.1,2.6,9.8,6.3C837.7,120.5,839.6,119.3,841.9,119z"/>
		<path class="st1" d="M783.9,23.5h-1.5c0-0.1,0-0.2,0-0.3c0-6.9-5.6-12.5-12.5-12.5c-3.7,0-7.1,1.7-9.4,4.3c-2.2-4.7-6.9-8-12.5-8
			c-7.6,0-13.7,6.2-13.7,13.7c0,0.9,0.1,1.8,0.3,2.7h-2.2c-6.4,0-11.7,5.3-11.7,11.7v0c0,6.4,5.3,11.7,11.7,11.7h51.5
			c6.4,0,11.7-5.3,11.7-11.7v0C795.7,28.8,790.4,23.5,783.9,23.5z"/>
		<path class="st11" d="M644.6,37.2c-3.2-12.8-19.6-11-19.6-11c15.1,3.4,18.9,13.9,18.9,13.9s7.8-8.1,23-5.1
			C666.9,35,652.7,26.8,644.6,37.2z"/>
		<path class="st11" d="M689,111.9c-12.1-15.9-33.8-3.7-33.8-3.7c23.1-4.2,34.7,8.2,34.7,8.2s6-15.9,28.9-20.8
			C718.9,95.6,694.2,92.6,689,111.9z"/>
		<path class="st11" d="M23.7,31.2c-3.5-7.2-13.1-4.1-13.1-4.1c9.5,0.1,13.1,6,13.1,6s3.6-5.8,13.1-6C36.8,27.1,27.3,24,23.7,31.2z"
			/>
		<path class="st29" d="M213,519.6l-5.4-28.5l-18-6.4l-25.2-4.6c-3.6-0.7-7.4-0.7-11-0.1l-29.4,4.7l-30,3.5l-5.4,11.1l-3.8,9.1
			c-0.9,2.1,0.1,4.4,2.1,5.4l12.6,5.7H213z"/>
		<polyline class="st29" points="207.6,509.7 209.1,516.3 197.5,516.3 		"/>
		<line class="st29" x1="189.6" y1="516.3" x2="177.3" y2="516.3"/>
		<polyline class="st29" points="105.5,489.2 95.6,490.5 93.1,495.5 		"/>
		<polygon class="st29" points="774.9,484.6 808.6,477.4 801.9,430.7 764,388.9 707.6,395.6 682.9,443.8 697.6,474 728.7,484.6 		
			"/>
		<polyline class="st29" points="802.3,462.2 805.1,474.6 791.9,477.4 		"/>
		<line class="st29" x1="788.6" y1="478.2" x2="781.4" y2="479.6"/>
		<polyline class="st17" points="750.7,393.4 762.8,391.9 767.7,397.2 		"/>
		<line class="st29" x1="685.9" y1="444.7" x2="692.6" y2="457.3"/>
		<line class="st29" x1="694.1" y1="460.5" x2="696.6" y2="465"/>
		<polygon class="st29" points="275.1,431 278.3,419.9 264.3,411.8 245.2,406.9 244,421.4 254.3,431 		"/>
		<line class="st29" x1="247" y1="409.5" x2="259.6" y2="413.1"/>
		<line class="st29" x1="272.8" y1="428.6" x2="262.1" y2="428.6"/>
		<path class="st12" d="M46.9,434.7l5.6-8.5c1.1-1.7,3.5-1.8,4.8-0.1l2.8,3.7c0.9,1.2,2.5,1.7,4,1.2l9.4-3.4
			c1.5-0.5,3.2,0.3,3.7,1.8l0.9,2.7"/>
		<path class="st12" d="M177.3,568.2l6.7-8.1c1.1-1.4,3.2-1.2,4.1,0.3l1.9,3.1c0.9,1.6,3.2,1.7,4.2,0.2l4.8-6.5
			c0.9-1.3,2.8-1.4,3.9-0.3l4.4,4.6c1,1,2.6,1,3.6,0.1l5-4.8c1.1-1.1,2.9-0.9,3.8,0.3l8.6,11.2"/>
		<path class="st12" d="M188,402l5.8-8.1c0.8-1.2,2.6-0.9,3.2,0.4l2.1,5.1c0.5,1.2,2.1,1.5,3,0.6l6.3-6.6c0.9-1,2.5-0.6,3,0.6
			l3.2,8.1"/>
		<path class="st12" d="M622,561l7.6-11.8c1.2-1.9,4-1.9,5.3,0l5.2,7.9c1.3,1.9,4,1.9,5.3,0l4.9-7.3c1.4-2,4.4-1.8,5.5,0.4l6.2,12.6
			c1.1,2.3,4.3,2.4,5.6,0.2l8.5-14.8c1.4-2.4,5-2,5.8,0.7l4,13.6"/>
		<path class="st12" d="M580.2,424.5l3.2-6.4c1.1-2.3,4.1-2.9,6-1.2l6,5.1c1.7,1.4,4.2,1.2,5.6-0.5l3.9-4.9c1.3-1.6,3.7-1.9,5.4-0.7
			l11.8,8.7"/>
		<path class="st12" d="M780.3,534.6l3.9-9c0.6-1.4,2.6-1.5,3.3-0.1l2.6,5.3c0.7,1.4,2.8,1.3,3.3-0.2l1.6-4.3
			c0.6-1.5,2.7-1.6,3.4-0.1l2.3,5.4c0.6,1.3,2.3,1.5,3.2,0.3l5.9-8.4c0.6-0.8,1.7-1,2.5-0.4l16.7,11.5"/>
		<line class="st30" x1="267.1" y1="172.8" x2="574.8" y2="172.8"/>
		<line class="st30" x1="267.1" y1="158.6" x2="574.8" y2="158.6"/>
		<line class="st30" x1="267.1" y1="187" x2="574.8" y2="187"/>
		<line class="st30" x1="267.1" y1="201.2" x2="574.8" y2="201.2"/>
		<line class="st30" x1="267.1" y1="215.4" x2="574.8" y2="215.4"/>
		<line class="st30" x1="574.8" y1="229.7" x2="507.7" y2="229.7"/>
		<line class="st30" x1="334.2" y1="229.7" x2="267.1" y2="229.7"/>
		<line class="st30" x1="574.8" y1="243.9" x2="510.1" y2="243.9"/>
		<line class="st30" x1="331.8" y1="243.9" x2="267.1" y2="243.9"/>
		<line class="st30" x1="574.8" y1="258.1" x2="512.6" y2="258.1"/>
		<polyline class="st30" points="329.3,258.1 267.1,258.1 267.1,258.1 		"/>
		<line class="st30" x1="574.8" y1="272.3" x2="515" y2="272.3"/>
		<line class="st30" x1="326.9" y1="272.3" x2="267.1" y2="272.3"/>
		<line class="st30" x1="574.8" y1="286.6" x2="517.4" y2="286.6"/>
		<line class="st30" x1="324.5" y1="286.6" x2="267.1" y2="286.6"/>
		<line class="st30" x1="574.8" y1="300.9" x2="519.8" y2="300.9"/>
		<line class="st30" x1="322" y1="300.9" x2="267.1" y2="300.9"/>
		<line class="st30" x1="574.8" y1="315.1" x2="522.3" y2="315.1"/>
		<polyline class="st30" points="319.6,315.1 267.1,315.1 267.1,315.1 		"/>
		<line class="st30" x1="574.8" y1="329.1" x2="524.7" y2="329.1"/>
		<polyline class="st30" points="317.2,329.1 267.1,329.1 267.1,329.1 		"/>
		<line class="st30" x1="574.8" y1="343.3" x2="527.1" y2="343.3"/>
		<polyline class="st30" points="314.8,343.3 267.1,343.3 267.1,343.3 		"/>
		<line class="st30" x1="574.8" y1="357.5" x2="529.5" y2="357.5"/>
		<polyline class="st30" points="312.4,357.5 267.1,357.5 267.1,357.5 		"/>
		<line class="st30" x1="574.8" y1="371.7" x2="531.9" y2="371.7"/>
		<polyline class="st30" points="310,371.7 267.1,371.7 267.1,371.7 		"/>
		<polyline class="st3" points="176.4,40.4 181.1,40.4 181.1,43.6 		"/>
		<line class="st3" x1="181.1" y1="45.7" x2="181.1" y2="48.2"/>
		<line class="st3" x1="56.2" y1="77.6" x2="96.1" y2="77.6"/>
		<line class="st3" x1="101.6" y1="77.6" x2="107.9" y2="77.6"/>
		<polyline class="st3" points="109.1,27.2 121.8,16.3 144.3,35.4 		"/>
		<polyline class="st3" points="131.4,158.6 135.3,158.6 135.3,161.9 		"/>
		<path class="st3" d="M63.8,164.3c0,0,2.2,7.2,8.4,13.4"/>
		<line class="st3" x1="304.9" y1="126.6" x2="326.5" y2="126.6"/>
		<line class="st3" x1="329.7" y1="126.6" x2="333.3" y2="126.6"/>
		<polyline class="st3" points="484.6,121.9 484.6,118.7 492.5,118.7 		"/>
		<polyline class="st3" points="572.8,125.1 572.8,127 564.5,127 		"/>
	</g>
</g>
<g id="Calque_1">
</g>
</svg>
