<?xml version="1.0" encoding="utf-8"?>
<!-- Generator: $$$/GeneralStr/196=Adobe Illustrator 27.6.0, SVG Export Plug-In . SVG Version: 6.00 Build 0)  -->
<svg version="1.1" id="Calque_1" xmlns="http://www.w3.org/2000/svg" xmlns:xlink="http://www.w3.org/1999/xlink" x="0px" y="0px"
	 width="841.9px" height="595.3px" viewBox="0 0 841.9 595.3" style="enable-background:new 0 0 841.9 595.3;" xml:space="preserve"
	>
<style type="text/css">
	.st0{fill:#00B4EC;}
	.st1{fill:#FFFFFF;stroke:#000000;stroke-miterlimit:10;}
	.st2{fill:#FFF69E;stroke:#000000;stroke-miterlimit:10;}
	.st3{fill:none;stroke:#000000;stroke-linecap:round;stroke-linejoin:round;stroke-miterlimit:10;}
	.st4{fill:#FFF482;stroke:#000000;stroke-miterlimit:10;}
	.st5{fill:#69B42E;stroke:#000000;stroke-linecap:round;stroke-linejoin:round;stroke-miterlimit:10;}
	.st6{fill:#B17F4A;stroke:#000000;stroke-linecap:round;stroke-linejoin:round;stroke-miterlimit:10;}
	.st7{opacity:0.22;stroke:#000000;stroke-linecap:round;stroke-linejoin:round;stroke-miterlimit:10;}
	.st8{fill:#D9A266;stroke:#000000;stroke-width:0.5;stroke-miterlimit:10;}
	.st9{fill:#FFFFFF;stroke:#000000;stroke-width:0.5;stroke-miterlimit:10;}
	.st10{fill:#36A9E1;stroke:#000000;stroke-width:0.5;stroke-miterlimit:10;}
	.st11{fill:none;stroke:#000000;stroke-width:0.5;stroke-miterlimit:10;}
	.st12{fill:#FFF599;stroke:#000000;stroke-width:0.5;stroke-miterlimit:10;}
	.st13{fill:#D9A266;stroke:#000000;stroke-width:0.5;stroke-linecap:round;stroke-linejoin:round;stroke-miterlimit:10;}
	.st14{stroke:#000000;stroke-width:0.5;stroke-linecap:round;stroke-linejoin:round;stroke-miterlimit:10;}
	.st15{fill:none;stroke:#000000;stroke-width:0.5;stroke-linecap:round;stroke-linejoin:round;stroke-miterlimit:10;}
	.st16{fill:#36A9E1;stroke:#000000;stroke-width:0.5;stroke-linecap:round;stroke-linejoin:round;stroke-miterlimit:10;}
	.st17{fill:#E30613;stroke:#000000;stroke-width:0.5;stroke-miterlimit:10;}
	.st18{fill:#7B6A58;stroke:#000000;stroke-width:0.5;stroke-linecap:round;stroke-linejoin:round;stroke-miterlimit:10;}
	.st19{fill:#FFFFFF;}
	.st20{fill:#525251;stroke:#000000;stroke-width:0.5;stroke-linecap:round;stroke-linejoin:round;stroke-miterlimit:10;}
	.st21{fill:#B48D59;stroke:#000000;stroke-width:0.5;stroke-linecap:round;stroke-linejoin:round;stroke-miterlimit:10;}
	.st22{fill:#CA9E63;stroke:#000000;stroke-width:0.5;stroke-linecap:round;stroke-linejoin:round;stroke-miterlimit:10;}
	.st23{fill:#FFED00;stroke:#000000;stroke-width:0.5;stroke-linecap:round;stroke-linejoin:round;stroke-miterlimit:10;}
	.st24{fill:#FFFFFF;stroke:#000000;stroke-width:0.5;stroke-linecap:round;stroke-linejoin:round;stroke-miterlimit:10;}
	.st25{fill:#1E1E1C;}
</style>
<g>
	<rect class="st0" width="841.9" height="595.3"/>
	<path class="st1" d="M221.1,58.2H218c0-0.2,0-0.4,0-0.5c0-14.1-11.4-25.5-25.5-25.5c-7.7,0-14.5,3.4-19.2,8.7
		c-4.4-9.7-14.2-16.5-25.6-16.5c-15.6,0-28.2,12.6-28.2,28.2c0,1.9,0.2,3.8,0.6,5.6h-4.4c-13.2,0-24,10.8-24,24v0
		c0,13.2,10.8,24,24,24h105.4c13.2,0,24-10.8,24-24v0C245.1,69,234.3,58.2,221.1,58.2z"/>
	<path class="st1" d="M743,93.2h-1.8c0-0.1,0-0.2,0-0.3c0-8.2-6.7-14.9-14.9-14.9c-4.5,0-8.5,2-11.2,5.1c-2.6-5.7-8.3-9.6-14.9-9.6
		c-9.1,0-16.4,7.3-16.4,16.4c0,1.1,0.1,2.2,0.3,3.3h-2.6c-7.7,0-14,6.3-14,14v0c0,7.7,6.3,14,14,14H743c7.7,0,14-6.3,14-14v0
		C757,99.5,750.7,93.2,743,93.2z"/>
	<path class="st1" d="M841.9,272.2V318h-26.2c-3.8,0-7.3-1.6-9.9-4.1c-2.5-2.5-4.1-6-4.1-9.9c0-7.7,6.3-14,14-14h2.6
		c-0.2-1-0.3-2.1-0.3-3.3c0-9.1,7.4-16.4,16.4-16.4C837,270.3,839.6,271,841.9,272.2z"/>
	<path class="st1" d="M429.5,157h-2.9c0-0.2,0-0.3,0-0.5c0-13.5-10.9-24.4-24.4-24.4c-7.3,0-13.9,3.2-18.4,8.4
		c-4.2-9.3-13.6-15.7-24.4-15.7c-14.8,0-26.9,12-26.9,26.9c0,1.8,0.2,3.6,0.5,5.3h-4.2c-12.6,0-22.9,10.3-22.9,22.9v0
		c0,12.6,10.3,22.9,22.9,22.9h100.6c12.6,0,22.9-10.3,22.9-22.9v0C452.4,167.3,442.1,157,429.5,157z"/>
	<polyline class="st2" points="603.2,510.2 722.5,279.6 841.9,510.2 	"/>
	<polyline class="st2" points="236,536.1 505.7,15.7 775.4,536.1 	"/>
	<polygon class="st2" points="407.8,510.2 0,510.2 38.2,440.4 85.8,353.7 186.6,169.7 203.7,138.5 203.9,138.2 263.4,246.9 
		294.1,302.8 321.7,353.1 347.2,399.7 348.8,402.7 348.8,402.7 369.5,440.4 	"/>
	<line class="st3" x1="263.4" y1="246.9" x2="223" y2="246.9"/>
	<line class="st3" x1="215.5" y1="246.9" x2="204.9" y2="246.9"/>
	<line class="st3" x1="294.1" y1="302.8" x2="143.9" y2="302.8"/>
	<line class="st3" x1="85.8" y1="353.7" x2="197.6" y2="353.7"/>
	<line class="st3" x1="243.2" y1="353.7" x2="276.4" y2="353.7"/>
	<line class="st3" x1="369.5" y1="440.4" x2="219" y2="440.4"/>
	<line class="st3" x1="103.1" y1="440.4" x2="38.2" y2="440.4"/>
	<line class="st3" x1="761.7" y1="355.2" x2="712.3" y2="355.2"/>
	<line class="st3" x1="742.4" y1="317.9" x2="731.6" y2="317.9"/>
	<line class="st3" x1="786.2" y1="402.7" x2="757.6" y2="402.7"/>
	<line class="st3" x1="742.4" y1="449.6" x2="796.7" y2="449.6"/>
	<line class="st3" x1="602.6" y1="202.8" x2="456.5" y2="202.8"/>
	<line class="st3" x1="743.3" y1="474.1" x2="420.9" y2="474.1"/>
	<line class="st3" x1="348.8" y1="402.7" x2="459.7" y2="402.7"/>
	<line class="st3" x1="526.7" y1="402.7" x2="617.3" y2="402.7"/>
	<line class="st3" x1="662.3" y1="317.9" x2="416.5" y2="317.9"/>
	<line class="st3" x1="390.3" y1="317.9" x2="363.4" y2="317.9"/>
	<line class="st3" x1="539.5" y1="80.9" x2="490.8" y2="80.9"/>
	<line class="st3" x1="631.4" y1="258.2" x2="596.8" y2="258.2"/>
	<path class="st4" d="M841.9,440.4v154.9H0V440.4c13.7-1.3,27-2.3,39.9-3c52.2-2.8,97.7-0.9,138.7,4c5,0.6,9.9,1.2,14.7,1.9
		c29.4,4.1,56.6,9.7,82.5,16.1c43.4,10.7,83.2,23.7,123.7,35.6c44.3,13,89.6,24.7,141.8,30.7c71.8,8.4,131.2-0.7,177.7-15.6
		c13-4.2,25-8.8,36-13.6c26.6-11.7,47.2-24.6,61.7-35.1C833.4,449.3,841.9,440.4,841.9,440.4z"/>
	<path class="st5" d="M261.1,267.3c0,0.4,0,0.9,0,1.3c-0.2,2.3-0.8,4.9-1.7,7.5c-2.6,7.6-7.7,16-12.4,22.8c-1.3,1.9-2.6,3.6-3.8,5.2
		c-3.7,5-6.5,8.3-6.5,8.3c-3-3.4-5.7-6.6-8.1-9.6v0c-4.4-5.6-7.8-10.7-10.3-15.1c-3.8-6.6-5.8-11.7-6.9-15.1
		c-0.2-0.6-0.3-1.1-0.5-1.6c-0.5-2-0.7-3-0.7-3c3.6-9.5,9.3-16.2,14.3-20.6c1.7-1.5,3.2-2.7,4.6-3.7c3.1-2.2,5.2-3.2,5.2-3.2
		c2.3,0.5,4.4,1.4,6.4,2.5c1.2,0.7,2.4,1.4,3.5,2.3C254.8,253.2,261.1,267.3,261.1,267.3z"/>
	<path class="st5" d="M327.9,373.3L247,299c4.7-6.8,9.8-15.2,12.4-22.8c0.9-2.7,1.5-5.2,1.7-7.5c3.5,1.4,6.8,2.8,10,4.4
		C344.8,308.4,327.9,373.3,327.9,373.3z"/>
	<path class="st5" d="M218.3,287.7l-12.1,39.6c-19.1,15.4-47.3,23.2-47.3,23.2c1.6-47.4,24.3-69.4,30.9-74.8
		c10.3-2,18.1-2.9,21.6-3.2C212.4,276,214.5,281.1,218.3,287.7z"/>
	<path class="st5" d="M229.2,243.7c-1.4,1-3,2.2-4.6,3.7c-5,4.4-10.7,11.1-14.3,20.6c0,0,0.1,1,0.7,3c0.1,0.5,0.3,1,0.5,1.6
		c-3.5,0.3-11.3,1.1-21.6,3.2c-22.7,4.4-57.6,14.6-86.4,37.6c0,0-1.5-66.5,71.2-77c12.5-1.8,23.1-1.7,32.1-0.3
		C215.7,237.5,223.1,240.2,229.2,243.7z"/>
	<path class="st5" d="M355.2,281.1c0,0-42.7-16.9-84.2-8.2c-3.2-1.5-6.5-3-10-4.4c0-0.4,0-0.9,0-1.3c0,0-6.3-14.1-16.9-22
		c0.2-1.3,0.4-2.9,0.6-4.6c10.2-5.4,31.5-14,63.7-14C355.2,226.8,355.2,281.1,355.2,281.1z"/>
	<path class="st5" d="M244.8,240.7c-0.2,1.7-0.4,3.2-0.6,4.6c-1.1-0.8-2.3-1.6-3.5-2.3c-2-1.1-4.2-2-6.4-2.5c0,0-2.1,1-5.2,3.2
		c-6.1-3.5-13.5-6.2-22.5-7.7c-8.6-31.8-62.3-62.6-62.3-62.6c26.9-7.4,49.3-4.5,62.5-1.3c12.6,3.1,23.7,11.1,30.1,22.4
		C246.1,210.6,246,229.4,244.8,240.7z"/>
	<path class="st6" d="M243.2,304.2l-7.6,20L219,370.5l-0.7,25.6l-37.7,71.3L171,493l-27.2,59.8h-22.8l41-68.7l4.2-22.6l22.3-36.3
		l21.7-30.3v-28l12.8-29.1l5.6-34.9c2.4,3,5.1,6.3,8.1,9.6C236.7,312.5,239.5,309.2,243.2,304.2z"/>
	<path class="st5" d="M265.8,276.5c0,0,46.8,18.2,58.4,69.7"/>
	<path class="st5" d="M324.9,352.4c0,0,1.3,3.9,1.2,10"/>
	<path class="st5" d="M190.6,277.6c0,0-18.8,17.6-26.7,53.4"/>
	<path class="st5" d="M306,229.1c0,0,25.5,0,34.7,16.2"/>
	<path class="st5" d="M343.6,250.9c0,0,4.4,4.8,5.4,12"/>
	<path class="st5" d="M212.6,175.9c0,0,26.4,13.1,28.8,39.3"/>
	<path class="st5" d="M215.5,240.9c0,0-64.8-18-99.5,36.6"/>
	<path class="st5" d="M113.8,281.5c0,0-5.6,8.1-7.7,24.9"/>
	<path class="st5" d="M242,302.2l-5,7c0,0-12.3-14.7-16.2-22.8"/>
	<polyline class="st3" points="145.5,544.9 142.8,550.9 135.2,550.9 	"/>
	<polyline class="st3" points="216.9,386.2 216.9,395.4 204.5,417.7 	"/>
	<polyline class="st3" points="174,452 168.1,461.9 166,474.6 	"/>
	<line class="st3" x1="165.5" y1="477.7" x2="164.6" y2="483.5"/>
	<ellipse class="st7" cx="265.5" cy="552.6" rx="83.4" ry="16.5"/>
	<g>
		<g>
			<path class="st8" d="M294.7,499.3c-0.9,0.5-1.9,0.8-2.8,0.9c-0.7,0.1-1.4,0-2.1-0.2c-0.7-0.2-1.4-0.5-2.1-1
				c-0.2-0.2-0.4-0.4-0.4-0.7c-0.1-4.4-1.7-5.2-1.7-5.2c0,1.6-0.9,2.8-1.4,3.2c-0.1,0.1-0.2,0-0.2-0.1c0-0.7-0.1-2.4-0.1-3.7
				c0-1.7,1.4-3.3,1.4-3.3c-0.6-23.6-6.5-39-6.5-39l2,38.7c-9.6,2.1-19.1,2.1-28.7,0l2-38.7c0,0-5.8,15.4-6.5,39
				c0,0,1.4,1.6,1.4,3.3c0,1.3-0.1,3-0.1,3.7c0,0.1-0.1,0.2-0.2,0.1c-0.4-0.4-1.4-1.6-1.4-3.2c0,0-1.6,0.8-1.7,5.2
				c0,0.3-0.1,0.5-0.4,0.7c-0.7,0.5-1.4,0.8-2.1,1c-0.7,0.2-1.4,0.2-2.1,0.2c-0.9-0.1-1.9-0.4-2.8-0.9c-0.6-0.3-0.9-1-0.7-1.6
				c1.6-6.7,4.1-8.3,4.1-8.3c1.2-24.4,5.7-36.8,6.7-40.6c0.3-1.2,1.9-2.3,3.8-3.1h0c4.1-1.8,9.8-2.7,9.8-2.7
				c2.2-0.4,1.8-3.9,1.8-3.9c1.2,0.5,2.1,0.8,2.6,0.8c0.5,0,1.5-0.3,2.7-0.9l0,0c0,0-0.4,3.5,1.8,3.9c0,0,5.7,0.9,9.7,2.6
				c0,0,0,0,0,0c0,0,0.2,0.1,0.6,0.2c0,0,0,0,0,0c0,0,0,0,0,0c0,0,0,0,0,0c1.7,0.8,3,1.8,3.3,2.9c0.9,3.7,5.4,16.2,6.7,40.6
				c0,0,2.5,1.6,4.1,8.3C295.6,498.3,295.3,499,294.7,499.3z"/>
			<path class="st8" d="M282.8,422.1l-0.1,5.5l-0.1,3c0,0.8-0.4,1.5-1.1,1.9c-2.5,1.4-8.6,5-12.4,6.6c-1.2,0.5-2.2,0.9-2.7,0.9
				c-0.5,0-1.4-0.3-2.6-0.8c-3.7-1.6-9.9-5.2-12.4-6.6c-0.7-0.4-1.1-1.1-1.1-1.9l-0.2-8.5c0-0.3,0.1-0.6,0.1-0.8
				c0.3-1.9,0.7-3.8,1.2-5.8c0.4-1.7,0.9-3.5,1.5-5.4h0c0.2-0.6,0.4-1.3,0.7-2c0.1-0.3,0.2-0.7,0.3-1c0,0,10.7-3.1,25,0
				c0,0,0.1,0.3,0.4,0.9c0.2,0.5,0.4,1.2,0.7,2c0.5,1.5,1.1,3.4,1.6,5.7c0.4,1.8,0.8,3.8,1.1,5.9
				C282.8,421.7,282.8,421.9,282.8,422.1z"/>
			<path class="st9" d="M252.9,410c-0.6,1.9-1.1,3.7-1.5,5.4c-4.8,2.2-7.2-1.9-7.2-1.9c0.8-2.3,1.6-4.1,2.1-5.4
				C246.3,408,248.5,412.8,252.9,410z"/>
			<path class="st10" d="M251.4,415.4c-0.5,2-0.9,4-1.2,5.8c-4.9,3.7-8.4-0.7-8.4-0.7c0.8-2.7,1.6-5.1,2.3-7.1
				C244.2,413.4,246.6,417.6,251.4,415.4z"/>
			<path class="st9" d="M250.2,421.2c0,0.3-0.1,0.6-0.1,0.8c-0.3,2.1-0.5,4-0.5,5.8c0,0-5.8,3.1-9.3-1.6c0.5-2,1-3.9,1.6-5.7
				C241.9,420.6,245.3,424.9,250.2,421.2z"/>
			<path class="st10" d="M249.7,435.2c0,0-7.5,1.7-10.9-2.4c0.5-2.3,1-4.5,1.5-6.5c3.4,4.7,9.3,1.6,9.3,1.6
				C249.4,430.6,249.5,433,249.7,435.2z"/>
			<path class="st9" d="M250.5,440.3c0,0-8.2,2.3-12.7-2.2c0.3-1.8,0.6-3.6,1-5.3c3.4,4.1,10.9,2.4,10.9,2.4
				C249.9,437.2,250.2,438.9,250.5,440.3z"/>
			<path class="st10" d="M252.2,445.6c-16.9,5.7-14.7-6-14.7-6c0.1-0.5,0.2-1,0.3-1.6c4.5,4.5,12.7,2.2,12.7,2.2
				C251.3,443.7,252.2,445.5,252.2,445.6z"/>
			<path class="st9" d="M272,395.3c-3.7,2.2-7.5,2-11.5,0c1.6-0.6,3-1,4-1.2c1.2-0.3,2.5-0.2,3.8,0.1
				C269.6,394.5,270.8,394.9,272,395.3z"/>
			<path class="st10" d="M276.8,397.5c-6.9,3.7-13.9,3.6-21,0.1c1.6-1,3.2-1.7,4.7-2.3c4,2,7.8,2.2,11.5,0
				C273.8,396,275.4,396.7,276.8,397.5z"/>
			<path class="st9" d="M281.4,400.7c0,0-14.9,7.1-29.8,0c1.4-1.2,2.8-2.2,4.1-3.1c0,0,0,0,0,0c7.1,3.4,14.1,3.5,21-0.1
				C278.7,398.6,280.2,399.7,281.4,400.7z"/>
			<path class="st9" d="M288.9,413.4c-1,1.1-3.7,3.5-7.3,2.3c-0.5-2.3-1.1-4.2-1.6-5.7h0.1c4.4,2.8,6.4-1.9,6.5-2.1
				C287.4,409.7,288.2,411.5,288.9,413.4C288.9,413.3,288.9,413.3,288.9,413.4C288.9,413.3,288.9,413.3,288.9,413.4z"/>
			<path class="st10" d="M291.2,420.4c-1.4,1-4.8,3.2-8.5,1.2c-0.3-2.1-0.7-4.1-1.1-5.9c3.5,1.2,6.3-1.3,7.3-2.3
				C289.8,415.7,290.6,418.1,291.2,420.4z"/>
			<path class="st9" d="M292.8,426.3C292.8,426.3,292.8,426.3,292.8,426.3c-3.2,3.5-7.7,2.2-9.4,1.6c-0.1-2-0.3-3.9-0.5-5.8
				c0-0.2,0-0.3-0.1-0.5c3.6,2,7.1-0.1,8.5-1.2c0,0,0,0,0,0.1c0.6,1.9,1.1,3.9,1.5,5.7C292.8,426.2,292.8,426.2,292.8,426.3z"/>
			<path class="st10" d="M294.2,432.9L294.2,432.9c-3.1,3.5-8.8,2.9-11.1,2.5c0.3-2.6,0.3-5.1,0.2-7.5c1.7,0.6,6.3,1.9,9.4-1.6
				C293.4,428.6,293.8,430.8,294.2,432.9C294.2,432.8,294.2,432.8,294.2,432.9C294.2,432.8,294.2,432.8,294.2,432.9z"/>
			<path class="st9" d="M295.1,438.1L295.1,438.1c-4.2,3.9-11,2.7-12.7,2.3c0.4-1.7,0.7-3.3,0.8-5c2.3,0.4,7.9,1,11.1-2.5
				C294.6,434.9,294.8,436.6,295.1,438.1z"/>
			<path class="st10" d="M295,443.9c-2.6,5.3-11.2,2.8-13.6,1.9c0,0,0,0,0,0c0,0,0,0,0,0c0,0,0,0,0,0c-0.2-0.1-0.4-0.2-0.6-0.3
				c0.7-1.7,1.2-3.5,1.6-5.2c1.7,0.4,8.6,1.6,12.7-2.3c0.2,1.1,0.3,2,0.4,2.7C295.6,441.8,295.5,443,295,443.9z"/>
			<path class="st11" d="M281.3,445.9c-0.4-0.1-0.6-0.2-0.6-0.2c0,0,0,0,0,0C280.9,445.7,281.1,445.8,281.3,445.9z"/>
			<path class="st11" d="M244.6,494.8c0,0-1.4,3.3-1.4,5.2"/>
			<path class="st11" d="M242.6,494.8c0,0-1.5,2.7-1.5,5.4"/>
			<path class="st11" d="M240.8,494.5c0,0-1.7,2.6-1.7,5"/>
			<path class="st12" d="M281.1,494.1c-4.6,1.1-9.2,1.6-13.8,1.7c-2,0-4.1,0-6.1-0.2c-3.1-0.3-6.2-0.8-9.3-1.5l0.3-5
				c9.6,2.1,19.1,2.1,28.7,0L281.1,494.1z"/>
			<path class="st9" d="M282.8,525.8c0.1,1.2-0.7,2.3-1.8,2.7c-1.2,0.5-2.4,0.8-3.6,1.2c-2,0.6-4.1,1-6.1,1.2
				c-3.3,0.4-6.6,0.4-9.9,0c-2-0.3-4.1-0.7-6.1-1.3c-1.1-0.3-2.2-0.7-3.3-1.1s-1.8-1.5-1.8-2.7l1.7-31.7c3.1,0.7,6.2,1.2,9.3,1.5
				v9.8l3.1,4.6l3.1-4.6v-9.5c4.6-0.1,9.2-0.6,13.8-1.7L282.8,525.8z"/>
			<path class="st11" d="M288.4,494.8c0,0,1.4,3.3,1.4,5.2"/>
			<path class="st11" d="M290.5,494.8c0,0,1.5,2.7,1.5,5.4"/>
			<path class="st11" d="M292.3,494.5c0,0,1.7,2.6,1.7,5"/>
			<path class="st13" d="M262,552.1c-2.6,1.6-5.3,1.6-7.9,0C258.1,547.6,262,552.1,262,552.1z"/>
			<path class="st13" d="M262.1,550.1c-0.2-0.3-3.9-4.4-7.8-0.1c0.2-1.3,0.7-2.1,0.9-2.5c0.1-0.2,0.2-0.4,0.2-0.6v-17.3
				c2,0.6,4.1,1,6.1,1.3v16.2c0,0.2,0,0.5,0.2,0.7C261.8,548.2,262,548.9,262.1,550.1z"/>
			<path class="st14" d="M262,552.1c0,0-3.9-4.4-7.9,0c0-0.8,0.1-1.5,0.2-2.1c3.9-4.3,7.6-0.2,7.8,0.1
				C262.1,550.6,262.1,551.3,262,552.1z"/>
			<line class="st11" x1="261.4" y1="530.8" x2="261.4" y2="530.8"/>
			<path class="st15" d="M262.1,550.1C262.1,550.1,262.1,550.1,262.1,550.1"/>
			<path class="st13" d="M278.5,550c-3.9-4.3-7.5-0.2-7.8,0.1c0.1-1.2,0.3-1.9,0.5-2.3c0.1-0.2,0.2-0.5,0.2-0.7v-16.2
				c2-0.3,4.1-0.7,6.1-1.2v17.2c0,0.2,0.1,0.4,0.2,0.6C277.9,547.9,278.3,548.7,278.5,550z"/>
			<line class="st11" x1="277.5" y1="529.6" x2="277.5" y2="529.5"/>
			<path class="st14" d="M278.7,552.1c-4-4.4-7.9,0-7.9,0c-0.1-0.8-0.1-1.4-0.1-2c0.2-0.3,3.9-4.4,7.8-0.1
				C278.7,550.6,278.7,551.3,278.7,552.1z"/>
			<path class="st13" d="M278.7,552.1c-2.7,1.6-5.3,1.6-7.9,0C270.8,552.1,274.7,547.6,278.7,552.1z"/>
			<line class="st11" x1="271.4" y1="530.9" x2="271.4" y2="530.8"/>
			<path class="st15" d="M270.7,550.1C270.7,550.1,270.7,550.1,270.7,550.1"/>
			<line class="st15" x1="278.5" y1="550" x2="278.5" y2="550"/>
			<path class="st16" d="M286.6,407.9C286.6,407.9,286.6,407.9,286.6,407.9c0,0.1-2.1,4.8-6.5,2.1H280c-0.3-0.9-0.5-1.5-0.7-2
				c-0.2-0.6-0.4-0.9-0.4-0.9c-14.3-3.1-25,0-25,0c-0.1,0.3-0.2,0.7-0.3,1c-0.2,0.7-0.4,1.3-0.7,2h0c-4.4,2.8-6.6-1.9-6.6-1.9
				c0.7-1.6,1.1-2.4,1.1-2.4c1.3-1.9,2.7-3.5,4.2-4.9c14.9,7.1,29.8,0,29.8,0c3.1,2.7,4.1,4.9,4.1,4.9
				C285.9,406.4,286.2,407.1,286.6,407.9L286.6,407.9z"/>
			<ellipse class="st14" cx="258.3" cy="418.8" rx="1.1" ry="2"/>
			<ellipse class="st14" cx="274.2" cy="418.8" rx="1.1" ry="2"/>
			<path class="st15" d="M274.2,428.9c0,0-7.7,6.8-15.9,0"/>
			<polygon class="st17" points="268,412.2 266.2,415.4 264.4,412.2 264.4,412.1 266.2,410.3 			"/>
			<path class="st11" d="M264.4,412.1c-3.5-0.4-7-2.1-10.5-5.1"/>
			<path class="st11" d="M279,407c-3.7,3-7.4,4.7-10.9,5.1"/>
			<path class="st12" d="M267.3,495.8v9.5l-3.1,4.6l-3.1-4.6v-9.8C263.2,495.7,265.3,495.8,267.3,495.8z"/>
			<g>
				<path class="st18" d="M259.9,416.2h-2.8c-0.3,0-0.5-0.3-0.5-0.6l0,0c0-0.2,0.2-0.4,0.4-0.4h2c0.2,0,0.6,0.2,0.8,0.4l0,0
					C260.1,415.9,260.2,416.2,259.9,416.2z"/>
			</g>
			<g>
				<path class="st18" d="M272.6,416.2h2.8c0.3,0,0.5-0.3,0.5-0.6l0,0c0-0.2-0.2-0.4-0.4-0.4h-2c-0.2,0-0.6,0.2-0.8,0.4l0,0
					C272.4,415.9,272.4,416.2,272.6,416.2z"/>
			</g>
			<ellipse class="st19" cx="258.5" cy="418.2" rx="0.3" ry="0.4"/>
			<ellipse class="st19" cx="274.1" cy="418.1" rx="0.3" ry="0.4"/>
		</g>
		<path class="st15" d="M281.2,522.6l0.4,2.7c0,0,0.3,1.9-2.7,2.7"/>
		<line class="st15" x1="252.6" y1="495.1" x2="255.5" y2="495.7"/>
		<path class="st15" d="M268.5,438.2l-1.7,0.6c-0.2,0.1-0.3,0-0.5,0l-1.9-0.7"/>
		<line class="st13" x1="278.7" y1="470.4" x2="278.9" y2="472.7"/>
		<line class="st13" x1="278" y1="457.6" x2="278.6" y2="468.3"/>
	</g>
	<g>
		<path class="st20" d="M621.7,562.5c0,0-11.3,4.8-21.4,0.2c0,0-0.1,0-0.1,0c-0.7-0.3-1.1-1-1.2-1.7c-0.1-1.5,0-4,1.2-6.4
			c0.7-1.3,1.7-2.6,3.3-3.6c0.3-0.2,0.5-0.4,0.7-0.6c7.4,4.6,14.6,0,14.6,0L621.7,562.5z"/>
		<path class="st20" d="M775.6,561.4c0,0-13.1,7.5-26.8,0.7c-0.4-0.2-0.4-0.6-0.5-1c-0.4-2.5,0.7-8.9,5.6-10.6
			c0.6-0.2,1.1-0.7,1.3-1.3c0,0,6.5,4,16.4,0.3l0.1,0.7L775.6,561.4z"/>
		<path class="st16" d="M708.7,404.3l-4.2,1.1l-5.4,1.5c-1.8,0.5-3.6-0.4-4.4-2l-7.1-14.5c-0.8-1.6-2.5-2.4-4.2-2l-32.3,7.1
			c-1.5,0.3-2.7,1.6-2.9,3.1l-3.1,19.3c-0.3,1.6-1.5,2.8-3,3.1l-16,3c-1.9,0.4-3.7-0.8-4.3-2.6l-12.7-41.4l0,0c2.7-3.6,5.8-7,9.2-10
			c3.9-3.5,8.1-6.6,12.7-9.1c0.1,0.1,0.2,0.3,0.3,0.4l6,13.5c0.4,1,1.5,1.5,2.5,1.2l36-9.9c0.8-0.2,1.4-0.9,1.5-1.7l1.3-7.1
			c0-0.1,0-0.1,0-0.2c3.4,1.6,6.8,3.6,10.1,6.2c0.9,0.7,1.7,1.4,2.6,2.1c4,3.4,7.7,6.4,11.2,9c0,0,0,0,0,0
			c0.2,0.4,6.6,12.8,8.8,25.4C711.8,401.9,710.6,403.8,708.7,404.3z"/>
		<path class="st21" d="M771.6,549.5c-9.9,3.7-16.4-0.3-16.4-0.3c0.1-0.3,0.2-0.7,0.2-1l-2.5-41c-0.1-2-0.7-3.9-1.7-5.5l-16.5-27.1
			l-21.4-35.3l-8.9,7.1h0c-47,33.2-85.4-7.1-85.4-7.1v110.9c0,0-7.2,4.6-14.6,0c0.3-0.4,0.5-1,0.5-1.6v-45.1l-6-41.2v0l-1.9-13
			c-5.5,1.1-10.6,1.6-15.2,1.7c-54.4,0.9-44.1-62.9-44.1-62.9c-2.8-0.5-6.2-0.8-9.6-0.3c-7.3,1.1-14.2,6.1-27.6,3.4
			c-0.7-0.1-1.3-0.5-1.8-1.1c-0.5-0.7-0.7-1.7,1-2.6c0,0-3.1-1.9-0.9-4.1c0.5-0.5,0.7-0.9,0.8-1.4c0.1-0.3,0-0.7,0-1
			c0,0,4.8,0.9,4.5-3.9l0-0.2c5-1.4,13.1-3.6,15.7-8.8c1.4-2.7,12.8,0.2,20.6,0.8c2.9,0.2,5.8,1.7,7.2,4.1c-1.5,1-2.2,1.9-2.3,2
			l2.3-2c2.6-1.8,7.4-4.2,14.8-3.4c0,0-1.7,9.7-13.5,9.3l-3.6-0.4c1.3,0.2,2.5,0.4,3.6,0.4c3.6,30.8,22.6,64.1,55.6,8.3
			c1.5-2.5,3.1-4.9,4.8-7.2l0,0l12.7,41.4c0.6,1.8,2.4,3,4.3,2.6l16-3c1.6-0.3,2.8-1.5,3-3.1l3.1-19.3c0.2-1.5,1.4-2.8,2.9-3.1
			l32.3-7.1c1.7-0.4,3.4,0.5,4.2,2l7.1,14.5c0.8,1.6,2.6,2.5,4.4,2l9.6-2.6c1.9-0.5,3.1-2.4,2.7-4.3c-2.2-12.6-8.6-25.1-8.8-25.4
			c11.7,8.8,20.5,13.3,27,15.6c0.6,0.2,1.1,0.4,1.6,0.6l0.4,0.2c8.8,3.7,15.4,11.5,17.4,20.9l17.1,79.2L771.6,549.5z"/>
		<path class="st15" d="M529.4,373.5c0,1.9-1.8,3.5-4.1,3.5s-4.1-1.6-4.1-3.5H529.4z"/>
		<path class="st14" d="M525.4,377c-2.2,0-4.1-1.6-4.1-3.5h8.1C529.4,375.4,527.6,377,525.4,377z M543.1,389.5l-5.6-1.4"/>
		<path class="st19" d="M525.4,375.9c-0.9,0-1.6-0.6-1.6-1.4h3.3C527,375.3,526.3,375.9,525.4,375.9z"/>
		<path class="st15" d="M499.6,387.6c2.2-1.2,4.7,1.6,7.8-1.9"/>
		<path class="st20" d="M732.1,561.5c0,0-11,5.3-23.4,0.3c-0.4-0.1-0.6-0.6-0.5-0.9c0.5-2.2,2.4-8.8,6.9-10.3
			c0.9-0.3,1.6-0.9,2.1-1.6c4.9,4.1,12.6,1.3,12.6,1.3L732.1,561.5z"/>
		<path class="st21" d="M741.9,506.1l-12.2,44.1c0,0-7.7,2.8-12.6-1.3c0.2-0.3,0.4-0.7,0.5-1.1l10.6-35.7c1-3.2,0.8-6.7-0.5-9.8
			l-23.5-55.9h0l8.9-7.1l21.4,35.3L741.9,506.1z"/>
		<line class="st15" x1="545.1" y1="375.2" x2="545.1" y2="375.2"/>
		<path class="st14" d="M499.4,381.1c-0.2-1.1-0.8-2.1,0.7-2.9c0.6-0.4,2-0.7,3.8-1.2l0,0.2C504.2,382.1,499.4,381.1,499.4,381.1z"
			/>
		<path class="st15" d="M499.6,387.6c2.2-1.2,4.7,1.6,7.8-1.9"/>
		<line class="st15" x1="499.5" y1="382.1" x2="499.4" y2="381.1"/>
		<line class="st15" x1="543.1" y1="389.5" x2="543.1" y2="389.5"/>
		<path class="st20" d="M600.2,562.6c-6.6,2.5-13.8,2.2-21.4,0c-3.6-9.2,5.4-12.4,5.4-12.4c6.9,5.2,14.5,0,14.5,0l1.6,4.3
			c-1.2,2.4-1.3,5-1.2,6.4C599.1,561.6,599.5,562.3,600.2,562.6z"/>
		<path class="st21" d="M598.7,462.3v87.9c0,0-7.6,5.2-14.5,0v-48l-2.6-51.2c4.6-0.1,9.6-0.6,15.2-1.7L598.7,462.3z"/>
		<line class="st15" x1="596.8" y1="449.3" x2="595" y2="440.8"/>
		<path class="st22" d="M791.2,466.8c2.9-7.1-2.2-10.9-2.2-10.9c-1.5,1.5-0.1,5.5,0,5.8c-6-9.6-1.7-16.6-1.7-16.6
			C799.3,450.5,798.9,458,791.2,466.8z"/>
		<path class="st15" d="M731.6,390.9c0,0,39.2,15.3,55.7,54.2"/>
		<path class="st15" d="M789,461.8C789,461.8,789,461.7,789,461.8"/>
		<path class="st21" d="M713.2,439.3c0,0-4.1-4.6-1.8-11.5"/>
		<path class="st23" d="M635.6,433.5c0,0-2.5,2-2.1,5.5c0,0,0.7,0,1.1-0.9c-0.3,0.9-0.8,2.9,0.2,4.5c0,0,0.6-1.8,1.7-2.3
			C640.1,438.6,635.6,433.5,635.6,433.5z M634.6,438.1c0.1-0.2,0.1-0.3,0.1-0.4C634.7,437.9,634.7,438,634.6,438.1z"/>
		<path class="st21" d="M634.7,437.8c0,0.1-0.1,0.3-0.1,0.4C634.7,437.9,634.7,437.8,634.7,437.8z"/>
		<line class="st15" x1="635.6" y1="433.5" x2="635.6" y2="422.3"/>
		<path class="st23" d="M704.5,417.4c0,0-2.5,2-2.1,5.5c0,0,0.7,0,1.1-0.9c-0.3,0.9-0.8,2.9,0.2,4.5c0,0,0.6-1.8,1.7-2.3
			C709.1,422.5,704.5,417.4,704.5,417.4z M703.6,422c0.1-0.2,0.1-0.3,0.1-0.4C703.7,421.7,703.6,421.9,703.6,422z"/>
		<line class="st15" x1="704.5" y1="417.4" x2="704.5" y2="405.5"/>
		<path class="st24" d="M678.7,357.3c0,0.1,0,0.1,0,0.2l-1.3,7.1c-0.1,0.8-0.7,1.5-1.5,1.7l-36,9.9c-1,0.3-2.1-0.2-2.5-1.2l-6-13.5
			c-0.1-0.2-0.2-0.3-0.3-0.4c0.5-0.3,1-0.6,1.6-0.9C645.2,353.6,661.7,349.3,678.7,357.3z"/>
		<polygon class="st9" points="628.3,384.7 622.1,394.8 634.3,407.8 638.3,390.9 		"/>
		<polygon class="st9" points="692.3,372 686.1,382.1 698.4,395.1 702.4,378.3 		"/>
		<path class="st15" d="M644.9,414l-0.6,3.4c0,0-0.2,2.2-2.4,2.9l-1.7,0.3"/>
		<path class="st21" d="M701.6,445.1c0,0-30.3,28.6-73.5,0"/>
		<polyline class="st21" points="740.2,502.7 741.2,505.9 740.4,508.9 		"/>
		<path class="st21" d="M538,394.4c0,0-1.5,10.9,1.7,22.7"/>
		<path class="st21" d="M540.2,419.1c0,0,0.5,2.3,1.3,3.8"/>
		<path class="st15" d="M620,559.2l0.9,3c0,0-1.4,0.6-3.2,0.8"/>
		<path class="st15" d="M615.1,563.3c0,0-4.4,1.2-9.6,0.1"/>
		<path class="st15" d="M729.1,551.4c0,0-6.1,2-12.1-1.2"/>
		<path class="st15" d="M749.9,555.3c0,0-1.1,2.2-1,5.7"/>
		<line class="st15" x1="748.1" y1="416.3" x2="759.4" y2="466.8"/>
		<line class="st15" x1="759.8" y1="468.6" x2="761.2" y2="474.6"/>
		<polyline class="st15" points="635.3,390 637.5,391.3 636.9,392.9 		"/>
		<line class="st16" x1="687.3" y1="382.1" x2="697.5" y2="393"/>
		<path class="st15" d="M525.8,368.1c0,0-3.3-0.2-4.8,0.2c-0.3,0.1-0.6,0.3-0.7,0.6c-0.3,0.7-1.1,2.2-3,3.6"/>
		<path class="st15" d="M554.9,370.7c0,0,3-0.6,6.2-0.3c0,0-0.6,2.3-2.3,4.1"/>
		<line class="st15" x1="617.8" y1="443.9" x2="617.8" y2="470"/>
		<line class="st15" x1="617.8" y1="471.5" x2="617.8" y2="477"/>
		<polyline class="st15" points="584.8,451.7 582.4,451.8 582.6,453.7 		"/>
		<line class="st15" x1="585.2" y1="511" x2="585.2" y2="524.3"/>
		<line class="st15" x1="585.2" y1="527.1" x2="585.2" y2="531.5"/>
		<ellipse class="st7" cx="668.4" cy="576.2" rx="54.1" ry="9"/>
		<path class="st15" d="M787.9,446.1c0,0,12,5,6.3,14.8"/>
	</g>
	<path class="st25" d="M692,186.1c-10.7-27.2-46.3-18.7-46.3-18.7c34.3,3.3,45.7,25.5,45.7,25.5s14.9-20,49.2-17.8
		C740.7,175,706.9,160.9,692,186.1z"/>
	<path class="st25" d="M785.2,42C779.4,27.4,760.3,32,760.3,32c18.4,1.8,24.6,13.7,24.6,13.7s8-10.8,26.5-9.6
		C811.4,36.1,793.2,28.5,785.2,42z"/>
	<path class="st25" d="M343.9,161.7c-20.2-32-63.3-12.6-63.3-12.6c44.4-4.1,64.3,21.3,64.3,21.3s14-29,58.2-34.5
		C403,135.9,356.8,126.1,343.9,161.7z"/>
	<path class="st25" d="M107.6,201.7c-12.7-20.2-39.9-7.9-39.9-7.9c27.9-2.6,40.5,13.4,40.5,13.4s8.8-18.3,36.7-21.7
		C144.8,185.4,115.7,179.3,107.6,201.7z"/>
</g>
</svg>
