<?xml version="1.0" encoding="utf-8"?>
<!-- Generator: $$$/GeneralStr/196=Adobe Illustrator 27.6.0, SVG Export Plug-In . SVG Version: 6.00 Build 0)  -->
<svg version="1.1" id="Calque_1" xmlns="http://www.w3.org/2000/svg" xmlns:xlink="http://www.w3.org/1999/xlink" x="0px" y="0px"
	 width="841.9px" height="595.3px" viewBox="0 0 841.9 595.3" style="enable-background:new 0 0 841.9 595.3;" xml:space="preserve"
	>
<style type="text/css">
	.st0{fill:#36A9E1;stroke:#000000;stroke-miterlimit:10;}
	.st1{fill:#FFFFFF;stroke:#000000;stroke-miterlimit:10;}
	.st2{fill:#FCCD92;stroke:#000000;stroke-miterlimit:10;}
	.st3{fill:#E9BA7B;stroke:#000000;stroke-linejoin:round;stroke-miterlimit:10;}
	.st4{fill:#573722;stroke:#000000;stroke-miterlimit:10;}
	.st5{fill:#573722;stroke:#000000;stroke-linejoin:round;stroke-miterlimit:10;}
	.st6{fill:#89603C;stroke:#000000;stroke-miterlimit:10;}
	.st7{fill:#89603C;stroke:#000000;stroke-linecap:round;stroke-linejoin:round;stroke-miterlimit:10;}
	.st8{fill:#89603C;stroke:#000000;stroke-linejoin:round;stroke-miterlimit:10;}
	.st9{fill:#A18257;stroke:#000000;stroke-linejoin:round;stroke-miterlimit:10;}
	.st10{fill:#E9BA7B;stroke:#000000;stroke-miterlimit:10;}
	.st11{fill:#925B3E;stroke:#000000;stroke-miterlimit:10;}
	.st12{fill:#E4956F;stroke:#000000;stroke-miterlimit:10;}
	.st13{fill:none;stroke:#000000;stroke-linecap:round;stroke-linejoin:round;stroke-miterlimit:10;}
	.st14{fill:#E9BA7B;stroke:#000000;stroke-linecap:round;stroke-linejoin:round;stroke-miterlimit:10;}
	.st15{fill:#A18257;stroke:#000000;stroke-linecap:round;stroke-linejoin:round;stroke-miterlimit:10;}
	.st16{fill:#915A2B;stroke:#000000;stroke-miterlimit:10;}
	.st17{fill:#A96734;stroke:#000000;stroke-linecap:round;stroke-linejoin:round;stroke-miterlimit:10;}
	.st18{fill:#EA580C;stroke:#000000;stroke-linecap:round;stroke-linejoin:round;stroke-miterlimit:10;}
	.st19{fill:#FFFFFF;stroke:#000000;stroke-linecap:round;stroke-linejoin:round;stroke-miterlimit:10;}
	.st20{fill:#706F6F;stroke:#000000;stroke-linecap:round;stroke-linejoin:round;stroke-miterlimit:10;}
	.st21{fill:#915A2B;stroke:#000000;stroke-linecap:round;stroke-linejoin:round;stroke-miterlimit:10;}
	.st22{fill:#B2B2B2;stroke:#000000;stroke-linecap:round;stroke-linejoin:round;stroke-miterlimit:10;}
	.st23{fill:#E30613;stroke:#000000;stroke-linecap:round;stroke-linejoin:round;stroke-miterlimit:10;}
	.st24{fill:#1E1E1C;}
</style>
<g>
	<rect class="st0" width="841.9" height="595.3"/>
	<path class="st1" d="M138.2,131.8h-3.1c0-0.2,0-0.4,0-0.5c0-14.1-11.4-25.5-25.5-25.5c-7.7,0-14.5,3.4-19.2,8.7
		C86,104.8,76.2,98,64.8,98c-15.6,0-28.2,12.6-28.2,28.2c0,1.9,0.2,3.8,0.6,5.6h-4.4c-13.2,0-24,10.8-24,24v0c0,13.2,10.8,24,24,24
		h105.4c13.2,0,24-10.8,24-24v0C162.2,142.6,151.4,131.8,138.2,131.8z"/>
	<path class="st1" d="M841.9,0v53.7h-91.5c-6.6,0-12.6-2.7-16.9-7c-4.3-4.4-7-10.4-7-17c0-13.2,10.8-24,24-24h4.4
		c-0.4-1.8-0.5-3.7-0.5-5.6V0H841.9z"/>
	<path class="st1" d="M467.6,46.9c0,13.2-10.8,24-24,24H338.2c-6.6,0-12.6-2.7-16.9-7c-4.3-4.4-7-10.4-7-16.9c0-13.2,10.8-24,24-24
		h4.4c-0.4-1.8-0.6-3.7-0.6-5.6c0-6.5,2.2-12.6,6-17.3h44.3c1.4,1.7,2.5,3.6,3.4,5.6c2-2.3,4.4-4.2,7-5.6h24.4
		c7.9,4.3,13.3,12.7,13.3,22.4c0,0.2,0,0.4,0,0.5h3.1c6.6,0,12.6,2.7,16.9,7C464.9,34.3,467.6,40.3,467.6,46.9z"/>
	<rect y="551.6" class="st2" width="841.9" height="43.7"/>
	<path class="st3" d="M160.3,189.8v94.2c63.9-8.4,287.9-33.1,521.3-1v-93.2C507.8,151.5,334.1,151.5,160.3,189.8z M226.4,259.9h-31
		v-54.3c0-9.8,7.9-17.7,17.7-17.7c1.1,0,2.2,0.1,3.3,0.3c1.8,0.9,3.4,2,4.7,3.4c3.2,3.2,5.2,7.6,5.2,12.5V259.9z M296.5,259.9h-32
		v-55c0-9.8,7.9-17.7,17.7-17.7c0.7,0,1.4,0,2,0.1c2.7,0.9,5.1,2.4,7.1,4.3c3.2,3.2,5.2,7.6,5.2,12.5V259.9z M370.2,259.9h-33.3
		v-55.8c0-9.4,7.4-17.1,16.6-17.7c4.5,0.3,8.5,2.2,11.5,5.2c3.2,3.2,5.2,7.6,5.2,12.5V259.9z M441.8,259.9h-35.4v-55.8
		c0-9.8,7.9-17.7,17.7-17.7c4.9,0,9.3,2,12.5,5.2c3.2,3.2,5.2,7.6,5.2,12.5V259.9z M474.2,259.9v-55.8c0-4.9,2-9.3,5.2-12.5
		c3-3,7-4.9,11.5-5.2c9.3,0.5,16.6,8.2,16.6,17.7v55.8H474.2z M545.8,259.9v-55.8c0-4.9,2-9.3,5.2-12.5c2-2,4.4-3.5,7.1-4.3
		c0.7-0.1,1.3-0.1,2-0.1c9.8,0,17.7,7.9,17.7,17.7v55H545.8z M614.9,259.9v-55.8c0-4.9,2-9.3,5.2-12.5c1.4-1.4,3-2.5,4.7-3.4
		c1.1-0.2,2.2-0.3,3.3-0.3c9.8,0,17.7,7.9,17.7,17.7v54.3H614.9z M160.3,438v113.6h521.3V437C448.1,404.8,224.1,429.6,160.3,438z
		 M160.3,297.5v127c63.9-8.4,287.9-33.1,521.3-1v-127C448.1,264.3,224.1,289,160.3,297.5z"/>
	<path class="st4" d="M681.6,423.5V437c-233.4-32.1-457.4-7.4-521.3,1v-13.5C224.1,416,448.1,391.3,681.6,423.5z"/>
	<path class="st5" d="M681.6,282.9v13.5c-233.4-32.1-457.4-7.4-521.3,1v-13.5C224.1,275.5,448.1,250.8,681.6,282.9z"/>
	<path class="st6" d="M218.4,450.2c-1.5-0.3-3.1-0.4-4.7-0.4c-13.8,0-25.1,11.2-25.1,25.1v76.8h-6.3v-78.9
		c0-13.8,11.2-25.1,25.1-25.1C211.3,447.6,215.1,448.5,218.4,450.2z"/>
	<path class="st4" d="M232.4,472.7v78.9h-43.8v-76.8c0-13.8,11.2-25.1,25.1-25.1c1.6,0,3.2,0.1,4.7,0.4c2.5,1.2,4.8,2.9,6.7,4.8
		C229.6,459.5,232.4,465.8,232.4,472.7z"/>
	<path class="st6" d="M286.6,448.8c-0.9-0.1-1.9-0.2-2.8-0.2c-13.8,0-25.1,11.2-25.1,25.1v77.8h-4.9v-78.9
		c0-13.8,11.2-25.1,25.1-25.1C281.6,447.6,284.2,448,286.6,448.8z"/>
	<path class="st4" d="M304,472.7v78.9h-45.3v-77.8c0-13.8,11.2-25.1,25.1-25.1c1,0,1.9,0.1,2.8,0.2c3.8,1.2,7.2,3.3,10,6.1
		C301.2,459.5,304,465.8,304,472.7z"/>
	<path class="st6" d="M351.3,447.7c-13.1,0.8-23.6,11.7-23.6,25v78.9h-3v-78.9c0-13.8,11.2-25.1,25.1-25.1
		C350.3,447.6,350.8,447.6,351.3,447.7z"/>
	<path class="st4" d="M374.8,472.7v78.9h-47.1v-78.9c0-13.3,10.4-24.2,23.6-25c6.3,0.4,12,3.1,16.2,7.3
		C372,459.5,374.8,465.8,374.8,472.7z"/>
	<path class="st7" d="M624.8,450.2c1.5-0.3,3.1-0.4,4.7-0.4c13.8,0,25.1,11.2,25.1,25.1v76.8h6.3v-78.9c0-13.8-11.2-25.1-25.1-25.1
		C631.8,447.6,628.1,448.5,624.8,450.2z"/>
	<path class="st4" d="M610.7,472.7v78.9h43.8v-76.8c0-13.8-11.2-25.1-25.1-25.1c-1.6,0-3.2,0.1-4.7,0.4c-2.5,1.2-4.8,2.9-6.7,4.8
		C613.5,459.5,610.7,465.8,610.7,472.7z"/>
	<path class="st6" d="M556.5,448.8c0.9-0.1,1.9-0.2,2.8-0.2c13.8,0,25.1,11.2,25.1,25.1v77.8h4.9v-78.9c0-13.8-11.2-25.1-25.1-25.1
		C561.5,447.6,558.9,448,556.5,448.8z"/>
	<path class="st4" d="M539.2,472.7v78.9h45.3v-77.8c0-13.8-11.2-25.1-25.1-25.1c-1,0-1.9,0.1-2.8,0.2c-3.8,1.2-7.2,3.3-10,6.1
		C542,459.5,539.2,465.8,539.2,472.7z"/>
	<path class="st6" d="M491.9,447.7c13.1,0.8,23.6,11.7,23.6,25v78.9h3v-78.9c0-13.8-11.2-25.1-25.1-25.1
		C492.9,447.6,492.4,447.6,491.9,447.7z"/>
	<path class="st4" d="M468.3,472.7v78.9h47.1v-78.9c0-13.3-10.4-24.2-23.6-25c-6.3,0.4-12,3.1-16.2,7.3
		C471.1,459.5,468.3,465.8,468.3,472.7z"/>
	<path class="st4" d="M446.4,551.6h-50.1v-78.9c0-13.8,11.2-25.1,25.1-25.1h0c13.8,0,25.1,11.2,25.1,25.1V551.6z"/>
	<path class="st6" d="M215.4,311.8c-1.3-0.3-2.6-0.4-4-0.4c-11.7,0-21.3,9.5-21.3,21.3v65.1h-5.3v-66.9c0-11.7,9.5-21.3,21.3-21.3
		C209.4,309.7,212.6,310.5,215.4,311.8z"/>
	<path class="st4" d="M227.3,330.9v66.9h-37.2v-65.1c0-11.7,9.5-21.3,21.3-21.3c1.4,0,2.7,0.1,4,0.4c2.1,1,4,2.4,5.7,4.1
		C224.9,319.8,227.3,325.1,227.3,330.9z"/>
	<path class="st6" d="M283.3,310.7c-0.8-0.1-1.6-0.1-2.4-0.1c-11.7,0-21.3,9.5-21.3,21.3v66h-4.1v-66.9c0-11.7,9.5-21.3,21.3-21.3
		C279,309.7,281.2,310,283.3,310.7z"/>
	<path class="st4" d="M298,330.9v66.9h-38.4v-66c0-11.7,9.5-21.3,21.3-21.3c0.8,0,1.6,0,2.4,0.1c3.2,1,6.1,2.8,8.5,5.2
		C295.6,319.7,298,325.1,298,330.9z"/>
	<path class="st6" d="M352.5,309.7c-11.1,0.7-20,9.9-20,21.2v66.9H330v-66.9c0-11.7,9.5-21.3,21.3-21.3
		C351.7,309.6,352.1,309.7,352.5,309.7z"/>
	<path class="st4" d="M372.5,330.9v66.9h-40v-66.9c0-11.3,8.8-20.6,20-21.2c5.4,0.3,10.2,2.6,13.8,6.2
		C370.1,319.7,372.5,325,372.5,330.9z"/>
	<path class="st6" d="M625.1,311.8c1.3-0.3,2.6-0.4,4-0.4c11.7,0,21.3,9.5,21.3,21.3v65.1h5.3v-66.9c0-11.7-9.5-21.3-21.3-21.3
		C631.1,309.6,628,310.4,625.1,311.8z"/>
	<path class="st4" d="M613.2,330.9v66.9h37.2v-65.1c0-11.7-9.5-21.3-21.3-21.3c-1.4,0-2.7,0.1-4,0.4c-2.1,1-4,2.4-5.7,4.1
		C615.6,319.7,613.2,325,613.2,330.9z"/>
	<path class="st6" d="M559,310.7c0.8-0.1,1.6-0.1,2.4-0.1c11.7,0,21.3,9.5,21.3,21.3v66h4.1v-66.9c0-11.7-9.5-21.3-21.3-21.3
		C563.3,309.6,561.1,310,559,310.7z"/>
	<path class="st4" d="M544.3,330.9v66.9h38.4v-66c0-11.7-9.5-21.3-21.3-21.3c-0.8,0-1.6,0-2.4,0.1c-3.2,1-6.1,2.8-8.5,5.2
		C546.7,319.7,544.3,325,544.3,330.9z"/>
	<path class="st6" d="M490.6,309.7c11.1,0.7,20,9.9,20,21.2v66.9h2.6v-66.9c0-11.7-9.5-21.3-21.3-21.3
		C491.5,309.6,491,309.6,490.6,309.7z"/>
	<path class="st4" d="M470.6,330.9v66.9h40v-66.9c0-11.3-8.8-20.6-20-21.2c-5.4,0.3-10.2,2.6-13.8,6.2
		C473,319.7,470.6,325,470.6,330.9z"/>
	<path class="st4" d="M442.6,397.8h-42.5v-66.9c0-11.7,9.5-21.3,21.3-21.3h0c11.7,0,21.3,9.5,21.3,21.3V397.8z"/>
	<path class="st8" d="M216.5,188.2c-1.1-0.2-2.2-0.3-3.3-0.3c-9.8,0-17.7,7.9-17.7,17.7v54.3H191v-55.8c0-9.8,7.9-17.7,17.7-17.7
		C211.5,186.4,214.2,187.1,216.5,188.2z"/>
	<path class="st8" d="M284.2,187.2c-0.7-0.1-1.3-0.1-2-0.1c-9.8,0-17.7,7.9-17.7,17.7v55h-3.4v-55.8c0-9.8,7.9-17.7,17.7-17.7
		C280.7,186.4,282.5,186.7,284.2,187.2z"/>
	<path class="st8" d="M353.6,186.4c-9.3,0.6-16.7,8.3-16.7,17.7v55.8h-2.1v-55.8c0-9.8,7.9-17.7,17.7-17.7
		C352.9,186.4,353.3,186.4,353.6,186.4z"/>
	<path class="st8" d="M624.9,188.2c1.1-0.2,2.2-0.3,3.3-0.3c9.8,0,17.7,7.9,17.7,17.7v54.3h4.5v-55.8c0-9.8-7.9-17.7-17.7-17.7
		C629.8,186.4,627.2,187,624.9,188.2z"/>
	<path class="st8" d="M558.1,187.2c0.7-0.1,1.3-0.1,2-0.1c9.8,0,17.7,7.9,17.7,17.7v55h3.4v-55.8c0-9.8-7.9-17.7-17.7-17.7
		C561.6,186.4,559.8,186.7,558.1,187.2z"/>
	<path class="st8" d="M490.8,186.4c9.3,0.6,16.7,8.3,16.7,17.7v55.8h2.1v-55.8c0-9.8-7.9-17.7-17.7-17.7
		C491.5,186.4,491.2,186.4,490.8,186.4z"/>
	<path class="st9" d="M681.6,113.9v75.9c-173.8-38.3-347.5-38.3-521.3,0v-75.9C334.6,75.6,508.3,75.6,681.6,113.9z"/>
	<path class="st4" d="M681.6,100.4v13.5c-173.3-38.3-347-38.3-521.3,0v-13.5C334.6,62.1,508.3,62.1,681.6,100.4z"/>
	<rect x="427" y="127.8" class="st10" width="29.5" height="9.2"/>
	<rect x="577.8" y="151.8" class="st10" width="29.5" height="9.2"/>
	<rect x="303.1" y="118.6" class="st10" width="29.5" height="9.2"/>
	<rect x="501.9" y="102.1" class="st10" width="29.5" height="9.2"/>
	<rect x="227.3" y="181.8" class="st3" width="29.5" height="9.2"/>
	<rect x="303.1" y="234.7" class="st3" width="29.5" height="9.2"/>
	<rect x="303.1" y="299" class="st10" width="29.5" height="9.2"/>
	<rect x="175.4" y="407.4" class="st10" width="29.5" height="9.2"/>
	<rect x="381.5" y="288.3" class="st3" width="29.5" height="9.2"/>
	<rect x="507.5" y="292.9" class="st10" width="29.5" height="9.2"/>
	<rect x="596" y="402.8" class="st10" width="29.5" height="9.2"/>
	<rect x="574.5" y="433.4" class="st10" width="29.5" height="9.2"/>
	<rect x="360.1" y="428.8" class="st10" width="29.5" height="9.2"/>
	<rect x="299.6" y="443" class="st10" width="29.5" height="9.2"/>
	<rect x="453.6" y="438" class="st10" width="29.5" height="9.2"/>
	<rect x="442.6" y="168.7" class="st3" width="29.5" height="9.2"/>
	<rect x="512.9" y="207.2" class="st3" width="29.5" height="9.2"/>
	<rect x="645.9" y="266.9" class="st3" width="29.5" height="9.2"/>
	<path class="st11" d="M223.2,130.5v18.1h-28.7v-18.1c0-0.9,0.1-1.8,0.3-2.7c0.7-3.8,3-7.1,6.1-9.2c2.3-1.6,5.1-2.5,8-2.5
		c4,0,7.6,1.6,10.2,4.2C221.6,123,223.2,126.6,223.2,130.5z"/>
	<path class="st11" d="M370.1,148.7h-28.7v-18.1c0-7.9,6.4-14.4,14.4-14.4h0c7.9,0,14.4,6.4,14.4,14.4V148.7z"/>
	<path class="st11" d="M508.8,148.7h-28.7v-18.1c0-7.9,6.4-14.4,14.4-14.4h0c7.9,0,14.4,6.4,14.4,14.4V148.7z"/>
	<path class="st11" d="M653.7,135.6v18.1h-28.7v-18.1c0-5.3,2.8-9.8,7-12.3c2.1-1.3,4.7-2,7.3-2s5.2,0.7,7.3,2c1,0.6,2,1.3,2.8,2.2
		C652.1,128,653.7,131.6,653.7,135.6z"/>
	<path class="st10" d="M200.8,118.6c-3.1,2.1-5.3,5.4-6.1,9.2h-17v-9.2H200.8z"/>
	<path class="st10" d="M655.2,114v9.2h-8.5c-2.2-1.3-4.7-2-7.3-2s-5.2,0.7-7.3,2h-6.3V114H655.2z"/>
	<g>
		<rect x="165.5" y="35.8" class="st12" width="7.5" height="77.6"/>
		<rect x="181.4" y="32.7" class="st12" width="7.5" height="77.6"/>
		<rect x="197.4" y="29.9" class="st12" width="7.5" height="77.6"/>
		<rect x="213.3" y="27.2" class="st12" width="7.5" height="77.6"/>
		<rect x="229.2" y="24.8" class="st12" width="7.5" height="77.6"/>
		<rect x="245.2" y="22.5" class="st12" width="7.5" height="77.6"/>
		<rect x="261.2" y="20.5" class="st12" width="7.5" height="77.6"/>
		<rect x="277.2" y="18.7" class="st12" width="7.5" height="77.6"/>
		<rect x="293.3" y="17.1" class="st12" width="7.5" height="77.6"/>
		<rect x="309.4" y="15.7" class="st12" width="7.5" height="77.6"/>
		<rect x="325.4" y="14.5" class="st12" width="7.5" height="77.6"/>
		<rect x="341.5" y="13.6" class="st12" width="7.5" height="77.6"/>
		<rect x="357.7" y="12.8" class="st12" width="7.5" height="77.6"/>
		<rect x="373.8" y="12.2" class="st12" width="7.5" height="77.6"/>
		<rect x="390" y="11.9" class="st12" width="7.5" height="77.6"/>
		<rect x="406.2" y="11.7" class="st12" width="7.5" height="77.6"/>
		<rect x="422.4" y="11.8" class="st12" width="7.5" height="77.6"/>
		<rect x="438.6" y="12" class="st12" width="7.5" height="77.6"/>
		<rect x="454.9" y="12.4" class="st12" width="7.5" height="77.6"/>
		<rect x="471.1" y="13.1" class="st12" width="7.5" height="77.6"/>
		<rect x="487.4" y="13.9" class="st12" width="7.5" height="77.6"/>
		<rect x="503.7" y="14.9" class="st12" width="7.5" height="77.6"/>
		<rect x="520" y="16.2" class="st12" width="7.5" height="77.6"/>
		<rect x="536.4" y="17.6" class="st12" width="7.5" height="77.6"/>
		<rect x="552.8" y="19.2" class="st12" width="7.5" height="77.6"/>
		<rect x="569.1" y="21" class="st12" width="7.5" height="77.6"/>
		<rect x="585.5" y="23" class="st12" width="7.5" height="77.6"/>
		<rect x="602" y="25.2" class="st12" width="7.5" height="77.6"/>
		<rect x="618.4" y="27.6" class="st12" width="7.5" height="77.6"/>
		<rect x="634.9" y="30.1" class="st12" width="7.5" height="77.6"/>
		<rect x="651.4" y="32.9" class="st12" width="7.5" height="77.6"/>
		<rect x="667.9" y="35.8" class="st12" width="7.5" height="77.6"/>
	</g>
	<polyline class="st13" points="254.4,186.7 254.4,189 248.9,189 	"/>
	<line class="st14" x1="246.2" y1="189" x2="242.1" y2="189"/>
	<line class="st14" x1="304.7" y1="126.3" x2="322.5" y2="126.3"/>
	<line class="st15" x1="309.3" y1="236.1" x2="304.9" y2="236.1"/>
	<path class="st13" d="M163.5,343.5v-42.1c0,0,13.8-2.4,34.8-4"/>
	<line class="st13" x1="163.5" y1="348.2" x2="163.5" y2="375.2"/>
	<line class="st13" x1="181.4" y1="414.9" x2="188.3" y2="414.9"/>
	<line class="st13" x1="190.5" y1="414.9" x2="193.9" y2="414.9"/>
	<polyline class="st13" points="371.9,255.8 371.9,261.6 364.7,261.6 	"/>
	<polyline class="st13" points="651.1,148.7 651.1,151.8 643.8,151.8 	"/>
	<line class="st13" x1="640.2" y1="151.8" x2="637.7" y2="151.8"/>
	<polyline class="st13" points="585.8,153.8 579.9,153.8 579.9,156.4 	"/>
	<line class="st13" x1="469.9" y1="205.1" x2="469.9" y2="225.5"/>
	<line class="st13" x1="469.9" y1="229.5" x2="469.9" y2="235.2"/>
	<line class="st13" x1="650.1" y1="262.7" x2="626.2" y2="262.7"/>
	<line class="st13" x1="622.8" y1="262.7" x2="618.5" y2="262.7"/>
	<line class="st13" x1="673" y1="269.2" x2="673" y2="272.6"/>
	<line class="st13" x1="482.5" y1="131" x2="482.5" y2="139.5"/>
	<line class="st13" x1="482.5" y1="142" x2="482.5" y2="143.9"/>
	<polyline class="st13" points="169.3,37.8 171.3,37.8 171.3,40 	"/>
	<line class="st13" x1="266.1" y1="25.6" x2="266.1" y2="55.9"/>
	<line class="st13" x1="266.1" y1="61.5" x2="266.1" y2="71.6"/>
	<polyline class="st13" points="343.8,50 343.8,88.5 346.8,88.5 	"/>
	<line class="st13" x1="424.7" y1="15.4" x2="424.7" y2="27"/>
	<polyline class="st13" points="521.2,18.2 525.6,18.2 525.6,39.4 	"/>
	<line class="st13" x1="620.7" y1="33.9" x2="620.7" y2="70.4"/>
	<line class="st13" x1="469.9" y1="170.9" x2="456.3" y2="170.9"/>
	<line class="st13" x1="453.3" y1="170.9" x2="450.6" y2="170.9"/>
	<polyline class="st13" points="301.1,338.3 301.1,401.1 287.7,401.1 	"/>
	<line class="st13" x1="282.3" y1="401.1" x2="269.4" y2="401.1"/>
	<polyline class="st13" points="397,290.5 408.6,290.5 408.6,294.3 	"/>
	<path class="st13" d="M409.8,310.3c0,0,10.9-6.6,23,0.7"/>
	<line class="st13" x1="517.6" y1="303.8" x2="533" y2="303.8"/>
	<polyline class="st13" points="467.6,387.5 467.6,400.8 478.3,400.8 	"/>
	<line class="st13" x1="484.7" y1="400.8" x2="488.9" y2="400.8"/>
	<line class="st13" x1="541.5" y1="332.7" x2="541.5" y2="347.1"/>
	<line class="st13" x1="541.5" y1="361.3" x2="541.5" y2="393.7"/>
	<line class="st13" x1="616" y1="339.9" x2="616" y2="360.3"/>
	<polyline class="st13" points="647.7,385.5 647.7,394.7 636.7,394.7 	"/>
	<line class="st13" x1="362.3" y1="431" x2="362.3" y2="433.1"/>
	<line class="st13" x1="375.3" y1="435.9" x2="385.2" y2="435.9"/>
	<polyline class="st13" points="394.1,544.3 394.1,549.5 386.7,549.5 	"/>
	<line class="st13" x1="384.1" y1="549.5" x2="381.1" y2="549.5"/>
	<line class="st13" x1="235" y1="473.6" x2="235" y2="500.1"/>
	<polyline class="st13" points="162.7,503.3 162.7,549.4 173.2,549.4 	"/>
	<polyline class="st13" points="476.2,436.1 485.2,436.1 485.2,441.7 	"/>
	<line class="st13" x1="571.9" y1="433.4" x2="571.9" y2="438.3"/>
	<line class="st13" x1="588.3" y1="444.3" x2="602.2" y2="444.3"/>
	<line class="st13" x1="679.3" y1="439.8" x2="679.3" y2="489.3"/>
	<line class="st13" x1="679.3" y1="493" x2="679.3" y2="511"/>
	<line class="st13" x1="608.3" y1="540.4" x2="608.3" y2="548.7"/>
	<line class="st13" x1="608.3" y1="535.5" x2="608.3" y2="506"/>
	<path class="st13" d="M544.3,454.2c0,0-7.3,5.6-7.3,19.2v26.2"/>
	<line class="st13" x1="536.9" y1="517.8" x2="536.9" y2="525.4"/>
	<path class="st13" d="M163.9,155.2v29.4c0,0,17.9-4.2,55.3-10.2"/>
	<g>
		<path class="st16" d="M66.8,519.7c-10.9,1.9-21.1,0.8-27.5-0.3c0.4-1.4,0.8-2.7,1.4-4.1c0.1-0.4,0.5-0.7,0.9-0.7h22.9
			c0.4,0,0.8,0.3,1,0.7C65.9,516.8,66.4,518.3,66.8,519.7z"/>
		<path class="st16" d="M68.4,530.2c-12.6,2.5-24.5,0.9-30.9-0.4c0.2-3.5,0.9-6.9,1.8-10.4c6.4,1.1,16.5,2.2,27.5,0.3
			C67.7,523.2,68.2,526.7,68.4,530.2z"/>
		<path class="st16" d="M68.5,532.3c-12.7,2.5-24.7,0.9-31.1-0.4c0-0.7,0.1-1.4,0.1-2.1c6.4,1.3,18.3,2.9,30.9,0.4
			C68.4,530.9,68.5,531.6,68.5,532.3z"/>
		<path class="st16" d="M68.5,532.3c0,0.7,0,1.3,0,2c-12.7,2.5-24.7,0.9-31.1-0.4c0-0.7,0-1.4,0-2C43.8,533.2,55.7,534.8,68.5,532.3
			z"/>
		<path class="st16" d="M68.5,534.3c-0.1,3.9-0.6,7.8-1.6,11.7c-11.1,1.9-21.5,0.8-27.9-0.4c-1-3.9-1.6-7.8-1.6-11.7
			C43.8,535.2,55.7,536.8,68.5,534.3z"/>
		<path class="st16" d="M66.9,546c-0.5,1.9-1,3.7-1.7,5.6H40.9c-0.8-2-1.4-4-1.9-6C45.4,546.8,55.8,547.9,66.9,546z"/>
	</g>
	<g>
		<path class="st16" d="M672.9,452.6c-9.3,1.6-18.1,1-24.5,0.2l-1.2-5.1c0.2-0.1,0.3-0.1,0.5-0.1h22.9c0.4,0,0.8,0.3,1,0.7
			C672,449.6,672.5,451.1,672.9,452.6z"/>
		<path class="st16" d="M644.5,455.8l1.7,7.3c-1-0.2-1.9-0.3-2.7-0.5C643.7,460.3,644,458.1,644.5,455.8z"/>
		<path class="st16" d="M674.5,463c-8.7,1.7-17,1.5-23.5,0.8l-2.6-11.1c6.3,0.9,15.1,1.4,24.5-0.2C673.8,456,674.3,459.5,674.5,463z
			"/>
		<path class="st16" d="M646.3,463.1l0.5,2.2c-1.2-0.2-2.4-0.4-3.3-0.6c0-0.7,0.1-1.4,0.1-2.1C644.4,462.8,645.3,463,646.3,463.1z"
			/>
		<path class="st16" d="M674.6,465.1c-8.5,1.7-16.7,1.5-23,0.9l-0.5-2.2c6.4,0.7,14.8,0.9,23.5-0.8
			C674.5,463.7,674.6,464.4,674.6,465.1z"/>
		<path class="st16" d="M646.8,465.3l0.5,2.1c-1.4-0.2-2.7-0.5-3.8-0.7c0-0.7,0-1.3,0-2C644.4,464.9,645.6,465.1,646.8,465.3z"/>
		<path class="st16" d="M674.6,465.1c0,0.7,0,1.3,0,2c-8.3,1.7-16.2,1.5-22.6,0.9l-0.5-2.1C657.9,466.6,666.1,466.8,674.6,465.1z"/>
		<path class="st16" d="M648.8,473.7h-4.7c-0.4-2.3-0.6-4.7-0.6-7c1.1,0.2,2.4,0.5,3.8,0.7L648.8,473.7z"/>
		<path class="st16" d="M674.6,467.1c0,2.2-0.2,4.4-0.6,6.6h-20.6L652,468C658.3,468.7,666.3,468.8,674.6,467.1z"/>
		<path class="st16" d="M651.3,484.4H647c0-0.1-0.1-0.2-0.1-0.3h4.3L651.3,484.4z"/>
		<path class="st16" d="M671.4,484.2c0,0.1-0.1,0.2-0.1,0.3h-15.4l-0.1-0.3H671.4z"/>
	</g>
	<g>
		<path class="st16" d="M685.6,448h14.1v6.1c-6.5,0.1-12.2-0.6-16.4-1.3c0.4-1.4,0.8-2.7,1.4-4.1C684.8,448.2,685.1,448,685.6,448z"
			/>
		<path class="st16" d="M710.7,453.1c-2.3,0.4-4.6,0.7-6.8,0.8V448h4.5c0.4,0,0.8,0.3,1,0.7C709.9,450.1,710.3,451.6,710.7,453.1z"
			/>
		<path class="st16" d="M699.6,454.1v10.7c-7.5,0.1-14-0.8-18.2-1.7c0.2-3.5,0.9-6.9,1.8-10.4C687.4,453.5,693.1,454.2,699.6,454.1z
			"/>
		<path class="st16" d="M712.3,463.5c-2.9,0.6-5.7,0.9-8.4,1.1v-10.7c2.2-0.2,4.5-0.4,6.8-0.8C711.6,456.5,712.2,460,712.3,463.5z"
			/>
		<path class="st16" d="M681.4,463.1c4.2,0.9,10.7,1.8,18.2,1.7v2.1c-7.6,0.1-14.1-0.9-18.3-1.7
			C681.3,464.5,681.4,463.8,681.4,463.1z"/>
		<path class="st16" d="M712.4,465.6c-2.9,0.6-5.8,0.9-8.5,1.1v-2.1c2.7-0.2,5.6-0.5,8.4-1.1C712.4,464.2,712.4,464.9,712.4,465.6z"
			/>
		<path class="st16" d="M681.3,465.2c4.2,0.8,10.7,1.8,18.3,1.7v2c-7.6,0.1-14.1-0.8-18.3-1.7C681.3,466.5,681.3,465.9,681.3,465.2z
			"/>
		<path class="st16" d="M712.4,465.6c0,0.7,0,1.3,0,2c-2.9,0.6-5.8,0.9-8.5,1.1v-2C706.7,466.5,709.5,466.2,712.4,465.6z"/>
		<path class="st16" d="M699.6,468.9v4.8h-17.8c-0.3-2.2-0.5-4.3-0.5-6.5C685.5,468.1,692,469.1,699.6,468.9z"/>
		<path class="st16" d="M712.4,467.6c0,2-0.2,4.1-0.5,6.1c-0.3,1.9-0.6,3.7-1.1,5.6c-2.4,0.4-4.7,0.7-6.9,0.8v-11.4
			C706.7,468.5,709.5,468.2,712.4,467.6z"/>
		<path class="st16" d="M699.6,484.2v0.8h-14.8c-0.1-0.2-0.2-0.5-0.3-0.8H699.6z"/>
		<path class="st16" d="M710.8,479.3c-0.4,1.6-0.9,3.2-1.4,4.9c-0.1,0.2-0.2,0.5-0.3,0.8h-5.2v-4.8
			C706.2,480,708.5,479.7,710.8,479.3z"/>
	</g>
	<path class="st16" d="M93.7,515.4c-12.4,2.1-24,0.9-31.2-0.4c0.4-1.6,1-3.1,1.5-4.7c0.2-0.4,0.6-0.7,1.1-0.7h26
		c0.5,0,0.9,0.3,1.1,0.8C92.7,512,93.2,513.7,93.7,515.4z"/>
	<path class="st16" d="M95.5,527.2c-14.4,2.8-27.9,1-35.2-0.4c0.3-3.9,1-7.9,2.1-11.8c7.3,1.3,18.8,2.5,31.2,0.4
		C94.7,519.3,95.3,523.3,95.5,527.2z"/>
	<path class="st16" d="M95.6,529.6c-14.5,2.9-28.1,1-35.4-0.4c0-0.8,0.1-1.6,0.1-2.4c7.3,1.5,20.8,3.3,35.2,0.4
		C95.6,528,95.6,528.8,95.6,529.6z"/>
	<path class="st16" d="M95.6,529.6c0,0.8,0,1.5,0,2.3c-14.5,2.9-28.1,1-35.4-0.4c0-0.8,0-1.5,0-2.3
		C67.5,530.7,81.1,532.5,95.6,529.6z"/>
	<path class="st16" d="M95.6,531.9c-0.1,4.4-0.7,8.9-1.8,13.3c-12.7,2.2-24.5,0.9-31.7-0.4c-1.2-4.4-1.8-8.9-1.8-13.3
		C67.5,533,81.1,534.8,95.6,531.9z"/>
	<path class="st16" d="M93.8,545.2c-0.5,2.1-1.2,4.3-1.9,6.4H64.3c-0.9-2.3-1.6-4.5-2.2-6.8C69.3,546.1,81.1,547.4,93.8,545.2z"/>
	<rect x="84.3" y="481" class="st17" width="5.5" height="70.6"/>
	<rect y="432" class="st17" width="56.7" height="9.3"/>
	<path class="st18" d="M60.5,446.9c-0.9,0.4-2.1,0.6-3.8,0.3c-0.1-1.9-0.1-3.9-0.1-5.9V432C57.6,437.3,58.8,442.3,60.5,446.9z"/>
	<path class="st19" d="M64.2,455.4c-1.5,0.9-3.4,1.4-6,0.6c-0.8-2.7-1.3-5.6-1.5-8.8c1.7,0.2,2.9,0,3.8-0.3
		C61.6,449.9,62.8,452.7,64.2,455.4z"/>
	<path class="st18" d="M70.6,465.2c-1.8,1.1-4.4,1.5-8,0.5v0c-1.9-2.9-3.4-6.1-4.4-9.7c2.6,0.8,4.6,0.3,6-0.6
		C66.1,458.9,68.2,462.2,70.6,465.2z"/>
	<path class="st19" d="M78.3,473.2c-2.5,0.8-5,1.1-7.4,1c-3.3-2.4-6-5.2-8.2-8.5c3.6,1,6.1,0.6,8-0.5
		C72.9,468.1,75.5,470.8,78.3,473.2z"/>
	<path class="st18" d="M85.8,478.7c-1.5,0.6-3,1-4.5,1.2c0,0,0,0,0,0c-4-1.6-7.4-3.5-10.5-5.7c2.4,0.1,5-0.2,7.4-1
		C80.6,475.2,83.1,477,85.8,478.7z"/>
	<path class="st19" d="M89.8,481h-5.5c-1-0.3-2-0.7-3-1.1c1.5-0.2,3-0.6,4.5-1.2C87.1,479.5,88.5,480.3,89.8,481z"/>
	<path class="st13" d="M81.3,479.9C81.3,479.9,81.3,479.9,81.3,479.9"/>
	<path class="st13" d="M652.9,534.9c-0.8,0-1.5,0.2-2.2,0.6C651.4,535.2,652.1,535,652.9,534.9c0.8,0.1,1.5,0.3,2.2,0.6
		C654.5,535.1,653.7,534.9,652.9,534.9z M655,543.3c-0.1,0.1-0.2,0.1-0.4,0.2c-0.5,0.2-1.1,0.4-1.7,0.4c-0.1,0-0.2,0-0.4,0
		c-0.1,0-0.1,0-0.2,0c-0.2,0-0.4-0.1-0.6-0.1c-0.1,0-0.2,0-0.3-0.1c-0.2-0.1-0.4-0.2-0.6-0.3c0.6,0.4,1.3,0.6,2.1,0.6
		C653.7,543.9,654.5,543.7,655,543.3C655.1,543.3,655.1,543.3,655,543.3z M648.8,541.1c0-0.1-0.1-0.1-0.1-0.2c0-0.1-0.1-0.3-0.1-0.4
		c0-0.1,0-0.2-0.1-0.3c0-0.1,0-0.2,0-0.4c0-0.1,0-0.2,0-0.4c0-0.2,0-0.3,0-0.5c0,0,0-0.1,0-0.1c0-0.1,0-0.3,0.1-0.4
		c0-0.2,0.1-0.3,0.2-0.5c0,0,0-0.1,0-0.1c-0.3,0.5-0.4,1.1-0.4,1.7c0,0.7,0.2,1.4,0.5,2C648.9,541.3,648.9,541.2,648.8,541.1z
		 M657.1,537.7c0-0.1-0.1-0.2-0.2-0.3C656.9,537.5,657,537.6,657.1,537.7c0.1,0.3,0.2,0.5,0.2,0.8c0,0.1,0,0.3,0.1,0.4
		c0,0.2,0,0.3,0,0.5c0,0.1,0,0.2,0,0.4c0,0.1,0,0.1,0,0.2c0,0.4-0.1,0.8-0.3,1.1c0,0,0,0.1-0.1,0.1c0,0.1-0.1,0.2-0.2,0.3l0,0
		c0.4-0.6,0.6-1.3,0.6-2.1C657.4,538.8,657.3,538.2,657.1,537.7z M652.9,534.9c-0.8,0-1.5,0.2-2.2,0.6
		C651.4,535.2,652.1,535,652.9,534.9c0.8,0.1,1.5,0.3,2.2,0.6C654.5,535.1,653.7,534.9,652.9,534.9z M652.9,534.9
		c-0.8,0-1.5,0.2-2.2,0.6C651.4,535.2,652.1,535,652.9,534.9c0.8,0.1,1.5,0.3,2.2,0.6C654.5,535.1,653.7,534.9,652.9,534.9z"/>
	<path class="st13" d="M650.8,543.3v20.9c-12-1-21.5-10.6-22.6-22.6h20.9c0.1,0.2,0.2,0.3,0.3,0.5c0.1,0.2,0.2,0.3,0.4,0.5
		C650.1,542.8,650.4,543.1,650.8,543.3z"/>
	<path class="st13" d="M681.3,541.6c-0.7,9.3-5.9,17.4-13.4,22v-4.3c-3.6,2.8-8,4.5-12.8,4.9v-20.9c0,0,0.1,0,0.1-0.1
		c0.1-0.1,0.2-0.1,0.3-0.2c0.3-0.2,0.5-0.4,0.7-0.7c0-0.1,0.1-0.1,0.1-0.2c0.1-0.2,0.2-0.3,0.3-0.5H681.3z"/>
	<path class="st13" d="M681.3,537.2h-24.5c-0.4-0.7-1-1.3-1.7-1.7v-20.8c4.8,0.4,9.2,2.2,12.8,5v-4.5c0,0,0,0,0,0
		c2.5,1.5,4.6,3.4,6.5,5.6c1.5,1.8,2.8,3.7,3.9,5.8c0.4,0.8,0.8,1.7,1.1,2.5c0.3,0.9,0.6,1.8,0.9,2.7v0
		C680.8,533.6,681.2,535.4,681.3,537.2z"/>
	<path class="st17" d="M628.2,537.2c-0.1,0.7-0.1,1.5-0.1,2.2c0,0.7,0,1.4,0.1,2.1c1,12,10.6,21.6,22.6,22.6
		c0.7,0.1,1.4,0.1,2.2,0.1c0.7,0,1.5,0,2.2-0.1c4.8-0.4,9.2-2.2,12.8-4.9v4.3c-3.8,2.4-8.1,3.8-12.8,4.2c-0.3,0-0.6,0-0.9,0.1
		c-0.2,0-0.3,0-0.5,0c-0.3,0-0.6,0-0.8,0c-0.3,0-0.6,0-0.9,0c-0.2,0-0.3,0-0.5,0c-0.3,0-0.5,0-0.8,0c-14-1-25.1-12.2-26.2-26.2
		c0-0.3,0-0.6-0.1-0.9c0-0.2,0-0.3,0-0.5c0-0.3,0-0.5,0-0.8c0-0.4,0-0.8,0-1.2c0-0.3,0-0.7,0.1-1c0.5-7.3,3.9-13.9,8.9-18.6
		c2.9-2.7,6.2-4.8,10-6.1c2.3-0.8,4.7-1.3,7.3-1.5c0.7-0.1,1.5-0.1,2.2-0.1s1.5,0,2.2,0.1c0.9,0.1,1.8,0.2,2.6,0.3
		c1.6,0.3,3.2,0.7,4.7,1.2c0.1,0,0.1,0,0.2,0.1c1.9,0.7,3.7,1.5,5.3,2.6v4.5c-3.6-2.8-8-4.5-12.8-5c-0.7-0.1-1.5-0.1-2.2-0.1
		c-0.7,0-1.5,0-2.2,0.1C638.8,515.8,629.2,525.3,628.2,537.2z"/>
	<path class="st13" d="M650.8,514.7v20.8c-0.1,0.1-0.3,0.2-0.4,0.3c0,0-0.1,0.1-0.2,0.1c-0.1,0.1-0.2,0.2-0.4,0.3
		c-0.2,0.2-0.4,0.4-0.5,0.6c-0.1,0.1-0.2,0.2-0.2,0.4h-20.9C629.2,525.3,638.8,515.8,650.8,514.7z"/>
	<path class="st20" d="M657.4,539.4c0,0.1,0,0.2,0,0.4c0,0.1,0,0.1,0,0.2c0,0.4-0.1,0.8-0.3,1.1c0,0,0,0.1-0.1,0.1
		c0,0.1-0.1,0.2-0.2,0.3c0,0,0,0,0,0.1c-0.1,0.2-0.2,0.4-0.4,0.5c0,0.1-0.1,0.1-0.1,0.2c-0.2,0.3-0.5,0.5-0.7,0.7
		c-0.1,0.1-0.2,0.2-0.3,0.2c0,0-0.1,0.1-0.1,0.1c0,0,0,0-0.1,0c-0.1,0.1-0.2,0.1-0.4,0.2c-0.5,0.2-1.1,0.4-1.7,0.4
		c-0.1,0-0.2,0-0.4,0c-0.1,0-0.1,0-0.2,0c-0.2,0-0.4-0.1-0.6-0.1c-0.1,0-0.2,0-0.3-0.1c-0.2-0.1-0.4-0.2-0.6-0.3c0,0-0.1,0-0.1-0.1
		c-0.4-0.2-0.7-0.4-1-0.7c-0.1-0.1-0.3-0.3-0.4-0.4c-0.1-0.2-0.2-0.3-0.3-0.5h0c0,0,0-0.1,0-0.1c0,0,0-0.1-0.1-0.1
		c0-0.1-0.1-0.2-0.1-0.3c0-0.1-0.1-0.1-0.1-0.2c0-0.1-0.1-0.3-0.1-0.4c0-0.1,0-0.2-0.1-0.3c0-0.1,0-0.2,0-0.4c0-0.1,0-0.2,0-0.4
		c0-0.2,0-0.3,0-0.5c0,0,0-0.1,0-0.1c0-0.1,0-0.3,0.1-0.4c0-0.2,0.1-0.3,0.2-0.5c0,0,0-0.1,0-0.1c0,0,0-0.1,0-0.1
		c0-0.1,0.1-0.2,0.1-0.2c0-0.1,0.1-0.1,0.1-0.2c0.1-0.1,0.2-0.3,0.2-0.4c0.1-0.2,0.3-0.4,0.5-0.6c0.1-0.1,0.2-0.2,0.4-0.3
		c0,0,0.1-0.1,0.2-0.1c0.1-0.1,0.3-0.2,0.4-0.3c0.6-0.4,1.4-0.6,2.2-0.6s1.5,0.2,2.2,0.6c0.7,0.4,1.3,1,1.7,1.7
		c0,0.1,0.1,0.1,0.1,0.2c0.1,0.1,0.1,0.2,0.2,0.3c0.1,0.3,0.2,0.5,0.2,0.8c0,0.1,0,0.3,0.1,0.4C657.4,539.1,657.4,539.2,657.4,539.4
		z"/>
	<path class="st17" d="M655.1,514.7v20.8c-0.6-0.4-1.4-0.7-2.2-0.7s-1.5,0.2-2.2,0.7v-20.8c0.7-0.1,1.5-0.1,2.2-0.1
		C653.7,514.6,654.4,514.6,655.1,514.7z"/>
	<path class="st17" d="M649,541.5C649,541.5,649.1,541.6,649,541.5l-20.8,0.1c-0.1-0.7-0.1-1.4-0.1-2.1c0-0.8,0-1.5,0.1-2.2h20.9
		c0,0.1-0.1,0.1-0.1,0.2c0,0.1-0.1,0.2-0.1,0.2c0,0,0,0.1,0,0.1c-0.3,0.5-0.4,1.1-0.4,1.7c0,0.7,0.2,1.4,0.5,2
		C649,541.4,649,541.5,649,541.5z"/>
	<path class="st13" d="M649.1,541.6L649.1,541.6C649.1,541.6,649,541.5,649.1,541.6C649,541.6,649.1,541.6,649.1,541.6z"/>
	<path class="st17" d="M655.1,543.3v20.9c-0.7,0.1-1.5,0.1-2.2,0.1c-0.7,0-1.5,0-2.2-0.1v-20.9c0,0,0.1,0.1,0.1,0.1
		c0.6,0.4,1.3,0.6,2.1,0.6C653.7,543.9,654.5,543.7,655.1,543.3z"/>
	<path class="st17" d="M681.3,541.5C681.3,541.5,681.3,541.5,681.3,541.5C681.3,541.6,681.3,541.6,681.3,541.5l-24.5,0.1
		c0,0,0,0,0-0.1l0,0c0.4-0.6,0.6-1.3,0.6-2.1c0-0.6-0.1-1.2-0.4-1.7c0-0.1-0.1-0.2-0.2-0.3c0-0.1,0-0.1-0.1-0.2h24.5
		c0,0.2,0,0.3,0,0.5c0,0.1,0,0.2,0,0.3c0,0.5,0,0.9,0,1.4C681.4,540.1,681.4,540.8,681.3,541.5z"/>
	<path class="st13" d="M681.3,541.6C681.3,541.6,681.3,541.6,681.3,541.6L681.3,541.6L681.3,541.6z"/>
	<path class="st13" d="M681.4,539.4c0,0.7,0,1.4-0.1,2.1c0,0,0,0,0,0c0,0,0,0,0,0C681.4,540.8,681.4,540.1,681.4,539.4
		c0-0.5,0-0.9,0-1.4C681.4,538.5,681.4,538.9,681.4,539.4z"/>
	<path class="st13" d="M778.5,534.9c-0.8,0-1.6,0.2-2.2,0.7C777,535.1,777.7,534.9,778.5,534.9c0.8,0.1,1.5,0.3,2.2,0.7
		C780.1,535.1,779.3,534.9,778.5,534.9z M778.5,534.9c-0.8,0-1.6,0.2-2.2,0.7C777,535.1,777.7,534.9,778.5,534.9
		c0.8,0.1,1.5,0.3,2.2,0.7C780.1,535.1,779.3,534.9,778.5,534.9z M778.5,534.9c-0.8,0-1.6,0.2-2.2,0.7
		C777,535.1,777.7,534.9,778.5,534.9c0.8,0.1,1.5,0.3,2.2,0.7C780.1,535.1,779.3,534.9,778.5,534.9z M774.5,537.6
		C774.4,537.6,774.4,537.7,774.5,537.6c0,0,0.1-0.2,0.1-0.3C774.5,537.4,774.5,537.5,774.5,537.6z M774.3,540.7
		c0-0.1-0.1-0.3-0.1-0.4c-0.1-0.3-0.1-0.6-0.1-0.9c0-0.2,0-0.3,0-0.5c0-0.2,0-0.4,0.1-0.6c0-0.2,0.1-0.3,0.1-0.5
		c-0.2,0.5-0.3,1-0.3,1.5c0,0.6,0.1,1.1,0.4,1.6c0.1,0.2,0.2,0.3,0.2,0.5C774.5,541.2,774.4,541,774.3,540.7z M782.9,540.1
		c0,0.1,0,0.2-0.1,0.3c0,0.2-0.1,0.3-0.2,0.5c0,0.1-0.1,0.3-0.2,0.4c0,0,0,0.1,0,0.1c0.4-0.6,0.6-1.3,0.6-2c0-0.8-0.2-1.5-0.6-2.2
		c0.1,0.2,0.2,0.3,0.2,0.5c0.1,0.2,0.1,0.3,0.2,0.5c0,0.1,0,0.2,0.1,0.3c0.1,0.3,0.1,0.6,0.1,0.9c0,0.2,0,0.3,0,0.5
		C782.9,539.9,782.9,540,782.9,540.1z M780,543.6c-0.1,0-0.2,0.1-0.2,0.1c-0.2,0.1-0.4,0.1-0.7,0.1c-0.1,0-0.2,0-0.2,0
		c-0.1,0-0.2,0-0.3,0c-0.2,0-0.3,0-0.5,0c-0.2,0-0.4-0.1-0.7-0.1c-0.1,0-0.2-0.1-0.3-0.1c-0.2-0.1-0.4-0.2-0.6-0.3
		c0.6,0.4,1.3,0.6,2.1,0.6c0.8,0,1.5-0.2,2.2-0.7C780.5,543.4,780.3,543.5,780,543.6z M778.5,534.9c-0.8,0-1.6,0.2-2.2,0.7
		C777,535.1,777.7,534.9,778.5,534.9c0.8,0.1,1.5,0.3,2.2,0.7C780.1,535.1,779.3,534.9,778.5,534.9z M778.5,534.9
		c-0.8,0-1.6,0.2-2.2,0.7C777,535.1,777.7,534.9,778.5,534.9c0.8,0.1,1.5,0.3,2.2,0.7C780.1,535.1,779.3,534.9,778.5,534.9z
		 M778.5,534.9c-0.8,0-1.6,0.2-2.2,0.7C777,535.1,777.7,534.9,778.5,534.9c0.8,0.1,1.5,0.3,2.2,0.7
		C780.1,535.1,779.3,534.9,778.5,534.9z"/>
	<path class="st13" d="M803.3,541.5c-1.2,11.8-10.7,21.2-22.6,22.2v-20.5c0,0,0.1,0,0.1-0.1c0.1-0.1,0.2-0.1,0.3-0.2
		c0,0,0.1,0,0.1-0.1c0.1-0.1,0.1-0.1,0.2-0.2c0.4-0.3,0.7-0.7,0.9-1.2H803.3z"/>
	<path class="st13" d="M776.4,543.2v20.5c-10.4-0.9-19-8.3-21.7-18v9.2c-2.3-3.6-3.9-7.7-4.4-12.1c-0.1-0.4-0.1-0.8-0.1-1.2h24.5
		c0,0,0,0.1,0.1,0.1c0.1,0.1,0.1,0.2,0.2,0.3c0,0,0,0.1,0.1,0.1c0.1,0.2,0.2,0.3,0.4,0.4c0.2,0.1,0.3,0.3,0.5,0.4
		C776,543,776.2,543.1,776.4,543.2z"/>
	<path class="st13" d="M803.4,537.2h-21c0,0,0,0,0,0c0-0.1-0.1-0.1-0.1-0.2c-0.1-0.2-0.3-0.5-0.5-0.7c-0.1-0.1-0.1-0.1-0.2-0.2
		c-0.3-0.2-0.5-0.5-0.9-0.6v-21.2C792.9,515.3,802.5,525,803.4,537.2z"/>
	<path class="st17" d="M807,539.4c0,0.7,0,1.5-0.1,2.2c-1,14-12.2,25.1-26.2,26.2v0c-0.2,0-0.5,0-0.7,0c-0.5,0-1,0-1.5,0
		c-0.7,0-1.5,0-2.2-0.1c-9.1-0.7-17-5.6-21.7-12.8v-9.2c2.7,9.8,11.3,17.1,21.7,18c0.7,0.1,1.5,0.1,2.2,0.1c0.7,0,1.4,0,2.1-0.1
		c11.9-1,21.4-10.4,22.6-22.2c0.1-0.8,0.1-1.7,0.1-2.5c0-0.6,0-1.2-0.1-1.8c-0.9-12.2-10.5-21.9-22.7-22.9c-0.7-0.1-1.4-0.1-2.1-0.1
		c-0.8,0-1.5,0-2.2,0.1c-10.4,0.9-19,8.3-21.7,18v-8.5c0-0.1,0.1-0.2,0.2-0.3c0.1-0.1,0.1-0.2,0.2-0.3c0.1-0.2,0.2-0.4,0.4-0.5
		c0.3-0.4,0.6-0.8,1-1.2c0.2-0.2,0.4-0.5,0.6-0.7c0.2-0.2,0.4-0.5,0.6-0.7c0.2-0.2,0.4-0.5,0.6-0.7c0.2-0.2,0.3-0.3,0.5-0.5
		c0.3-0.3,0.5-0.5,0.8-0.8c0.3-0.3,0.6-0.5,0.8-0.7c0.4-0.3,0.8-0.6,1.2-0.9c0.1-0.1,0.2-0.1,0.3-0.2c0.2-0.2,0.5-0.3,0.7-0.5
		c0.2-0.2,0.5-0.3,0.8-0.5c0.3-0.2,0.5-0.3,0.8-0.5c0.5-0.3,1-0.6,1.5-0.8c1.1-0.6,2.2-1,3.4-1.5c0,0,0,0,0,0
		c0.6-0.2,1.1-0.4,1.7-0.5c0.6-0.2,1.2-0.3,1.8-0.5c0.3-0.1,0.6-0.1,0.9-0.2c0.1,0,0.3-0.1,0.4-0.1c0.1,0,0.2,0,0.2,0
		c0.1,0,0.1,0,0.2,0c0.7-0.1,1.4-0.2,2-0.2c0.7-0.1,1.5-0.1,2.2-0.1s1.5,0,2.2,0.1c0.4,0,0.7,0.1,1.1,0.1c0,0,0,0,0.1,0h0
		c0,0,0.1,0,0.1,0c0,0,0,0,0,0c0.4,0,0.8,0.1,1.1,0.2c0.1,0,0.1,0,0.1,0c0.3,0,0.6,0.1,0.9,0.2c0.1,0,0.1,0,0.2,0
		c0.4,0.1,0.7,0.1,1.1,0.2c0,0,0.1,0,0.1,0c0.2,0,0.3,0.1,0.5,0.1c0.3,0.1,0.6,0.2,1,0.3c0.4,0.1,0.8,0.2,1.2,0.4c0,0,0,0,0.1,0
		c0.4,0.1,0.8,0.3,1.1,0.4c0.3,0.1,0.6,0.2,0.9,0.4c0.1,0,0.3,0.1,0.4,0.2c0.2,0.1,0.5,0.2,0.8,0.4c0.2,0.1,0.3,0.2,0.5,0.3
		c0,0,0,0,0,0c0.2,0.1,0.5,0.2,0.7,0.4c0,0,0,0,0.1,0c0.3,0.2,0.7,0.4,1,0.6c0.2,0.1,0.5,0.3,0.7,0.5h0c0,0,0.1,0,0.1,0.1
		c0,0,0.1,0,0.1,0c0,0,0.1,0,0.1,0.1c0.1,0,0.1,0.1,0.2,0.2c0.3,0.2,0.6,0.5,0.9,0.7c0.2,0.2,0.4,0.3,0.6,0.5
		c0.2,0.2,0.4,0.3,0.6,0.5c0.2,0.1,0.3,0.3,0.5,0.4c0,0,0.1,0.1,0.2,0.2c0.3,0.2,0.5,0.5,0.8,0.7c4.8,4.7,7.9,11,8.5,18.2
		c0,0.3,0,0.5,0.1,0.8C807,538.5,807,538.9,807,539.4z"/>
	<path class="st13" d="M776.4,514.3v21.2c-0.5,0.3-0.9,0.6-1.2,1c0,0-0.1,0.1-0.1,0.1c-0.1,0.2-0.2,0.3-0.3,0.5h-24.5
		c0.3-3.8,1.3-7.4,2.9-10.6c0.2-0.3,0.3-0.6,0.5-0.9c0.2-0.4,0.4-0.7,0.6-1.1c0.1-0.2,0.2-0.3,0.3-0.4c0.1-0.1,0.1-0.3,0.2-0.4v8.5
		C757.4,522.5,766,515.2,776.4,514.3z"/>
	<path class="st20" d="M783,539.4c0,0.2,0,0.3,0,0.5c0,0.1,0,0.2,0,0.2c0,0.1,0,0.2-0.1,0.3c0,0.2-0.1,0.3-0.2,0.5
		c0,0.1-0.1,0.3-0.2,0.4c0,0,0,0.1,0,0.1c0,0,0,0.1-0.1,0.1c-0.2,0.5-0.6,0.8-1,1.2c-0.1,0.1-0.1,0.1-0.2,0.2c0,0-0.1,0-0.1,0.1
		c-0.1,0.1-0.2,0.2-0.3,0.2c0,0-0.1,0.1-0.1,0.1c-0.2,0.1-0.5,0.2-0.7,0.3c-0.1,0-0.2,0.1-0.2,0.1c-0.2,0.1-0.4,0.1-0.7,0.1
		c-0.1,0-0.2,0-0.2,0c-0.1,0-0.2,0-0.3,0c-0.2,0-0.3,0-0.5,0c-0.2,0-0.4-0.1-0.7-0.1c-0.1,0-0.2-0.1-0.3-0.1
		c-0.2-0.1-0.4-0.2-0.6-0.3c0,0-0.1,0-0.1-0.1c-0.2-0.1-0.3-0.2-0.5-0.3c-0.2-0.1-0.3-0.2-0.5-0.4c-0.1-0.1-0.2-0.3-0.4-0.4
		c0,0-0.1-0.1-0.1-0.1c-0.1-0.1-0.2-0.2-0.2-0.3c0,0-0.1-0.1-0.1-0.1c0,0,0,0,0-0.1c-0.1-0.2-0.2-0.5-0.3-0.8c0-0.1-0.1-0.3-0.1-0.4
		c-0.1-0.3-0.1-0.6-0.1-0.9c0-0.2,0-0.3,0-0.5c0-0.2,0-0.4,0.1-0.6c0-0.2,0.1-0.3,0.1-0.5c0,0,0-0.1,0-0.1c0,0,0-0.1,0-0.1
		c0,0,0,0,0-0.1c0-0.1,0.1-0.2,0.1-0.3c0,0,0.1-0.1,0.1-0.2c0.1-0.2,0.2-0.3,0.3-0.5c0,0,0.1-0.1,0.1-0.1c0.3-0.4,0.8-0.8,1.2-1
		c0.6-0.4,1.4-0.6,2.2-0.6c0.8,0,1.5,0.2,2.2,0.6c0.3,0.2,0.6,0.4,0.8,0.6c0.1,0,0.1,0.1,0.2,0.2c0.2,0.2,0.4,0.4,0.5,0.7
		c0,0.1,0.1,0.1,0.1,0.2c0,0,0,0,0,0c0,0,0,0,0,0c0.1,0.2,0.2,0.3,0.2,0.5c0.1,0.2,0.1,0.3,0.2,0.5c0,0.1,0,0.2,0.1,0.3
		C782.9,538.8,783,539.1,783,539.4z"/>
	<path class="st17" d="M780.7,514.3v21.2c-0.6-0.4-1.4-0.7-2.2-0.7s-1.5,0.2-2.2,0.7v-21.2c0.7-0.1,1.5-0.1,2.2-0.1
		C779.3,514.2,780,514.2,780.7,514.3z"/>
	<path class="st17" d="M774.7,541.6h-24.5c0-0.3,0-0.6-0.1-0.9c0-0.4,0-0.9,0-1.3c0-0.1,0-0.2,0-0.4c0-0.3,0-0.5,0-0.8
		c0-0.3,0-0.7,0.1-1h24.5c0,0-0.1,0.1-0.1,0.2c0,0.1-0.1,0.2-0.1,0.3c0,0,0,0,0,0.1c0,0,0,0.1,0,0.1c0,0,0,0.1,0,0.1
		c-0.2,0.5-0.3,1-0.3,1.5c0,0.6,0.1,1.1,0.4,1.6C774.5,541.2,774.5,541.3,774.7,541.6C774.7,541.5,774.7,541.5,774.7,541.6z"/>
	<path class="st13" d="M774.7,537.2c0,0-0.1,0.1-0.1,0.2C774.6,537.3,774.6,537.2,774.7,537.2L774.7,537.2z"/>
	<path class="st17" d="M780.7,543.2v20.5c-0.7,0.1-1.4,0.1-2.1,0.1c-0.8,0-1.5,0-2.2-0.1v-20.5c0,0,0.1,0,0.1,0.1
		c0.6,0.4,1.3,0.6,2.1,0.6C779.3,543.9,780.1,543.6,780.7,543.2z"/>
	<path class="st13" d="M780,567.8c-0.5,0-1,0-1.5,0c-0.7,0-1.5,0-2.2-0.1v0c0.7,0.1,1.5,0.1,2.2,0.1
		C779,567.8,779.5,567.8,780,567.8z"/>
	<path class="st17" d="M803.5,539c0,0.9,0,1.7-0.1,2.5h-20.9c0,0,0.1-0.1,0.1-0.1c0.4-0.6,0.6-1.3,0.6-2c0-0.8-0.2-1.5-0.6-2.2
		c0,0,0,0,0,0h21C803.4,537.8,803.5,538.4,803.5,539z"/>
	<path class="st13" d="M807,539.4c0,0.7,0,1.5-0.1,2.2h0C807,540.8,807,540.1,807,539.4c0-0.5,0-0.9,0-1.4
		C807,538.5,807,538.9,807,539.4z"/>
	<path class="st21" d="M750.3,542.8l-40.1,3l-0.3-3.8l6.6-0.5h1.4v-0.1l32.2-2.4c0,0.1,0,0.2,0,0.4c0,0.4,0,0.9,0,1.3
		c0,0.3,0,0.6,0.1,0.9C750.2,542,750.2,542.4,750.3,542.8z"/>
	<polygon class="st13" points="716.6,541.5 717.9,541.4 717.9,541.5 	"/>
	<path class="st21" d="M717.9,537.7v3.7l-1.4,0.1h-35.2c0-0.7,0.1-1.4,0.1-2.1c0-0.5,0-0.9,0-1.4c0-0.1,0-0.2,0-0.3H717.9z"/>
	<polygon class="st13" points="717.9,541.4 717.9,541.5 716.6,541.5 	"/>
	<path class="st20" d="M714.1,534.7c-1.4,0-2.5,1.1-2.5,2.5h4.9C716.6,535.9,715.5,534.7,714.1,534.7z"/>
	<path class="st20" d="M714.2,548c1.4-0.1,2.4-1.3,2.3-2.7l-4.9,0.4C711.6,547.1,712.8,548.1,714.2,548z"/>
	<polygon class="st21" points="651.3,484.2 633.5,484.2 633.5,473.7 648.8,473.7 650.1,479.2 	"/>
	<path class="st21" d="M657.7,511.3c-0.8-0.1-1.7-0.2-2.6-0.3c-0.7-0.1-1.4-0.1-2.2-0.1s-1.5,0-2.2,0.1c-2.5,0.2-5,0.7-7.3,1.5
		c-3.8,1.3-7.1,3.4-10,6.1v-34.5h17.8l0.1,0.3l3.1,13.1l1.8,7.6L657.7,511.3z"/>
	<polygon class="st21" points="699.6,473.7 699.6,484.2 655.8,484.2 654.8,479.6 653.4,473.7 	"/>
	<path class="st21" d="M798.5,473.7V519c-0.3-0.2-0.5-0.5-0.8-0.7c0-0.1-0.1-0.1-0.2-0.2c-0.2-0.1-0.3-0.3-0.5-0.4
		c-0.2-0.2-0.4-0.3-0.6-0.5c-0.2-0.2-0.4-0.3-0.6-0.5c-0.3-0.2-0.6-0.5-0.9-0.7c-0.1,0-0.1-0.1-0.2-0.2c0,0-0.1,0-0.1-0.1
		c0,0,0,0-0.1,0c0,0-0.1,0-0.1-0.1h0c-0.2-0.2-0.5-0.3-0.7-0.5c-0.3-0.2-0.7-0.4-1-0.6c0,0,0,0-0.1,0c-0.2-0.1-0.5-0.2-0.7-0.4
		c0,0,0,0,0,0c-0.2-0.1-0.3-0.2-0.5-0.3c-0.2-0.1-0.5-0.2-0.8-0.4c-0.1-0.1-0.3-0.1-0.4-0.2c-0.3-0.1-0.6-0.3-0.9-0.4
		c-0.4-0.1-0.7-0.3-1.1-0.4c0,0,0,0-0.1,0c-0.4-0.1-0.8-0.3-1.2-0.4c-0.3-0.1-0.6-0.2-1-0.3c-0.2,0-0.3-0.1-0.5-0.1c0,0-0.1,0-0.1,0
		c-0.4-0.1-0.7-0.2-1.1-0.2c-0.1,0-0.1,0-0.2,0c-0.3-0.1-0.6-0.1-0.9-0.2c0,0-0.1,0-0.1,0c-0.4-0.1-0.7-0.1-1.1-0.2c0,0,0,0,0,0
		c0,0,0,0-0.1,0h0c0,0-0.1,0-0.1,0c-0.4,0-0.7-0.1-1.1-0.1c-0.7-0.1-1.4-0.1-2.2-0.1s-1.5,0-2.2,0.1c-0.7,0-1.4,0.1-2,0.2
		c-0.1,0-0.1,0-0.2,0c-0.1,0-0.1,0-0.2,0c-0.2,0-0.3,0-0.4,0.1c-0.3,0-0.6,0.1-0.9,0.2c-0.6,0.1-1.2,0.3-1.8,0.5
		c-0.6,0.2-1.2,0.3-1.7,0.5c0,0,0,0,0,0c-1.2,0.4-2.3,0.9-3.4,1.5c-0.5,0.3-1,0.5-1.5,0.8c-0.3,0.1-0.5,0.3-0.8,0.5
		c-0.3,0.2-0.5,0.3-0.8,0.5c-0.2,0.2-0.5,0.3-0.7,0.5c-0.1,0.1-0.2,0.1-0.3,0.2c-0.4,0.3-0.8,0.6-1.2,0.9c-0.3,0.2-0.6,0.5-0.8,0.7
		c-0.3,0.2-0.6,0.5-0.8,0.8c-0.2,0.2-0.3,0.3-0.5,0.5c-0.2,0.2-0.4,0.4-0.6,0.7c-0.2,0.2-0.4,0.5-0.6,0.7c-0.2,0.2-0.4,0.4-0.6,0.7
		c-0.3,0.4-0.6,0.8-1,1.2c-0.1,0.2-0.2,0.3-0.4,0.5c-0.1,0.1-0.1,0.2-0.2,0.3c-0.1,0.1-0.1,0.2-0.2,0.3c-0.1,0.1-0.2,0.2-0.2,0.4
		c-0.1,0.1-0.2,0.3-0.3,0.4c-0.2,0.3-0.4,0.7-0.6,1.1c-0.2,0.3-0.3,0.6-0.5,0.9h-74.7c-1.1-2.1-2.4-4-3.9-5.8
		c-1.9-2.2-4.1-4.1-6.5-5.6c0,0,0,0,0,0c-1.7-1-3.5-1.9-5.3-2.6c-0.1,0-0.1-0.1-0.2-0.1h0.2l-1.8-7.5l-1.8-7.6l-3.1-13.1l-0.1-0.3
		h43.8v13.4h4.3v-23.8H798.5z"/>
	<path class="st17" d="M662.6,512.6h-0.2c-1.5-0.5-3.1-0.9-4.7-1.2l-1.5-6.2l-1.8-7.6l-3.1-13.1l-0.1-0.3l-1.2-5l-1.3-5.5l-1.5-6.3
		l-0.5-2.1l-0.5-2.2l-1.7-7.3l-5.5-23.3h4.6l3.6,15.1l1.2,5.1l2.6,11.1l0.5,2.2l0.5,2.1l1.3,5.7l1.4,5.9l1.1,4.5l0.1,0.3l3.1,13.1
		l1.8,7.6L662.6,512.6z"/>
	<path class="st17" d="M662.6,512.6c-0.1,0-0.1-0.1-0.2-0.1L662.6,512.6L662.6,512.6z"/>
	<polygon class="st21" points="633.1,514.1 615.3,514.1 615.3,490.4 633.1,482.8 	"/>
	<line class="st13" x1="618.3" y1="514.1" x2="618.3" y2="489.1"/>
	<line class="st13" x1="629.6" y1="514.1" x2="629.6" y2="484.5"/>
	<line class="st13" x1="625.9" y1="514.1" x2="625.9" y2="486.1"/>
	<line class="st13" x1="621.9" y1="514.1" x2="621.9" y2="487.6"/>
	<polyline class="st13" points="703.9,484.2 709.4,484.2 798.2,484.2 	"/>
	<line class="st13" x1="633.5" y1="484.2" x2="633.2" y2="484.2"/>
	<line class="st13" x1="699.6" y1="497.5" x2="659" y2="497.5"/>
	<line class="st13" x1="798.2" y1="497.5" x2="703.9" y2="497.5"/>
	<polyline class="st13" points="654.4,497.5 633.5,497.5 633.2,497.5 	"/>
	<polyline class="st13" points="662.6,512.6 667.9,512.6 675.8,512.6 687.9,512.6 699.5,512.6 699.6,512.6 703.9,512.6 707.8,512.6 
		714.8,512.6 722.7,512.6 734.8,512.6 746.4,512.6 754.7,512.6 769,512.6 	"/>
	<line class="st13" x1="798.4" y1="512.6" x2="788.1" y2="512.6"/>
	<line class="st13" x1="643.5" y1="512.6" x2="633.5" y2="512.6"/>
	<polygon class="st17" points="703.9,438.7 703.9,497.5 699.6,497.5 699.6,432.5 	"/>
	<rect x="699.6" y="497.5" class="st17" width="4.3" height="15"/>
	<path class="st22" d="M798.4,473.7h-70.3l-24.3-35l-4.3-6.2H639l-2-8.3c-0.5-2.3,1.2-4.5,3.5-4.5h130.6c9.9,0,18.3,7,20.2,16.7
		L798.4,473.7z"/>
	<g>
		<path class="st23" d="M707.8,503.5v75.2c0,3.1-2.5,5.6-5.6,5.6h-28.6c-3.1,0-5.6-2.5-5.6-5.6v-75.2c0-3.1,2.5-5.6,5.6-5.6h28.6
			c0.6,0,1.2,0.1,1.7,0.3C706.2,498.9,707.8,501,707.8,503.5z"/>
		<circle class="st20" cx="687.9" cy="541.1" r="5.4"/>
		<polyline class="st13" points="691.5,537.1 695.8,530.1 695.8,520.9 699.5,515.7 699.5,507.4 		"/>
		<polyline class="st13" points="683.8,537.4 679.5,530.4 679.5,521.3 675.8,516.1 675.8,507.8 		"/>
		<polyline class="st13" points="691.5,545.7 695.8,552.7 695.8,561.9 699.5,567.1 699.5,575.4 		"/>
		<polyline class="st13" points="683.8,545.4 679.5,552.4 679.5,561.5 675.8,566.7 675.8,575 		"/>
		<polyline class="st13" points="682.5,541.1 679.8,541.1 676.9,542.8 673.2,541.1 670.3,541.1 		"/>
		<polyline class="st13" points="693.4,541.1 696,541.1 698.9,542.8 702.7,541.1 705.5,541.1 		"/>
		<line class="st13" x1="687.9" y1="535.7" x2="687.9" y2="501.1"/>
		<line class="st13" x1="687.9" y1="546.5" x2="687.9" y2="581.1"/>
	</g>
	<g>
		<path class="st23" d="M754.7,503.5v75.2c0,3.1-2.5,5.6-5.6,5.6h-28.6c-3.1,0-5.6-2.5-5.6-5.6v-75.2c0-3.1,2.5-5.6,5.6-5.6h28.6
			C752.2,497.9,754.7,500.4,754.7,503.5z"/>
		<circle class="st20" cx="734.8" cy="541.1" r="5.4"/>
		<polyline class="st13" points="738.4,537.1 742.7,530.1 742.7,520.9 746.4,515.7 746.4,507.4 		"/>
		<polyline class="st13" points="730.7,537.4 726.4,530.4 726.4,521.3 722.7,516.1 722.7,507.8 		"/>
		<polyline class="st13" points="738.4,545.7 742.7,552.7 742.7,561.9 746.4,567.1 746.4,575.4 		"/>
		<polyline class="st13" points="730.7,545.4 726.4,552.4 726.4,561.5 722.7,566.7 722.7,575 		"/>
		<polyline class="st13" points="729.3,541.1 726.7,541.1 723.8,542.8 720,541.1 717.2,541.1 		"/>
		<polyline class="st13" points="740.3,541.1 742.9,541.1 745.8,542.8 749.6,541.1 752.4,541.1 		"/>
		<line class="st13" x1="734.8" y1="535.7" x2="734.8" y2="501.1"/>
		<line class="st13" x1="734.8" y1="546.5" x2="734.8" y2="581.1"/>
	</g>
	<path class="st13" d="M754.7,532.3c2.7-9.8,11.3-17.1,21.7-18c0.7-0.1,1.5-0.1,2.2-0.1c0.7,0,1.4,0,2.1,0.1
		c12.1,1,21.8,10.8,22.7,22.9c0,0.6,0.1,1.2,0.1,1.8c0,0.9,0,1.7-0.1,2.5c-1.2,11.8-10.7,21.2-22.6,22.2c-0.7,0.1-1.4,0.1-2.1,0.1
		c-0.8,0-1.5,0-2.2-0.1c-10.4-0.9-19-8.3-21.7-18"/>
	<path class="st13" d="M667.9,519.7v39.6c-3.6,2.8-8,4.5-12.8,4.9c-0.7,0.1-1.5,0.1-2.2,0.1c-0.7,0-1.5,0-2.2-0.1
		c-12-1-21.5-10.6-22.6-22.6c-0.1-0.7-0.1-1.4-0.1-2.1c0-0.8,0-1.5,0.1-2.2c1-12,10.6-21.5,22.5-22.5c0.7-0.1,1.5-0.1,2.2-0.1
		c0.7,0,1.5,0,2.2,0.1C659.9,515.1,664.3,516.9,667.9,519.7z"/>
	<polyline class="st13" points="53.9,434 53.9,439.3 43.2,439.3 	"/>
	<line class="st13" x1="88" y1="484.2" x2="88" y2="522.4"/>
	<polyline class="st13" points="639.1,475.1 635,475.1 635,478.6 	"/>
	<line class="st20" x1="635" y1="480" x2="635" y2="481.7"/>
	<polyline class="st13" points="784.9,499.3 796.4,499.3 796.4,504.8 	"/>
	<path class="st13" d="M775.5,539c0,0,0.7-2.7,3.1-2.7"/>
	<line class="st13" x1="702.5" y1="439.8" x2="702.5" y2="452.7"/>
	<line class="st13" x1="702.5" y1="455.6" x2="702.5" y2="458.8"/>
	<polyline class="st13" points="639.5,427.4 640.4,431 647.5,431 	"/>
	<line class="st13" x1="650.8" y1="431" x2="670.7" y2="431"/>
	<polyline class="st13" points="725.4,465.6 729.8,471.7 743.1,471.7 	"/>
	<polyline class="st13" points="794,463.3 795.8,471.5 784.9,471.5 	"/>
	<line class="st13" x1="648.7" y1="460.7" x2="652" y2="474"/>
	<line class="st13" x1="793.6" y1="460.6" x2="792.7" y2="456.4"/>
	<path class="st24" d="M759.5,158.7c-10.3-27.4-46-19.4-46-19.4c34.2,3.8,45.3,26.2,45.3,26.2s15.2-19.8,49.5-17
		C808.4,148.4,774.9,133.8,759.5,158.7z"/>
	<path class="st24" d="M64.2,345.1c-16.7-24-49.3-7.6-49.3-7.6c34.1-4.7,50.4,14.2,50.4,14.2s9.8-22.9,43.8-28.6
		C109,323.2,72.9,317.2,64.2,345.1z"/>
	<path class="st24" d="M86.1,277.3c-10.6-17.9-34.5-7.9-34.5-7.9c24.4-1.6,34.9,12.6,34.9,12.6s8.1-15.7,32.4-18
		C118.9,264.1,93.7,258,86.1,277.3z"/>
	<path class="st24" d="M742.3,119.9c-10-14.2-29.2-4.3-29.2-4.3c20.2-2.9,29.8,8.2,29.8,8.2s5.7-13.6,25.8-17.1
		C768.7,106.8,747.3,103.4,742.3,119.9z"/>
	<path class="st24" d="M794.3,128.8c-5-10.2-18.5-5.8-18.5-5.8c13.4,0.2,18.5,8.4,18.5,8.4s5.1-8.2,18.5-8.4
		C812.8,123,799.3,118.6,794.3,128.8z"/>
</g>
</svg>
