<?xml version="1.0" encoding="utf-8"?>
<!-- Generator: $$$/GeneralStr/196=Adobe Illustrator 27.6.0, SVG Export Plug-In . SVG Version: 6.00 Build 0)  -->
<svg version="1.1" id="Calque_1" xmlns="http://www.w3.org/2000/svg" xmlns:xlink="http://www.w3.org/1999/xlink" x="0px" y="0px"
	 width="20px" height="20px" viewBox="0 0 20 20" style="enable-background:new 0 0 20 20;" xml:space="preserve">
<style type="text/css">
	.st0{fill:#FFFFFF;stroke:#FFFFFF;stroke-width:0.25;stroke-linecap:round;stroke-linejoin:round;stroke-miterlimit:10;}
	.st1{fill:none;stroke:#FFFFFF;stroke-width:0.25;stroke-linecap:round;stroke-linejoin:round;stroke-miterlimit:10;}
</style>
<g>
	<circle class="st0" cx="10" cy="6.4" r="6"/>
	<path class="st0" d="M11.1,16.7l-4,2.9H0c0.9-1.7,2.3-3.2,4-4.3c0.1,0.1,0.2,0.2,0.3,0.2c0.1,0,0.3-0.1,0.3-0.2
		C4.7,15.4,7.5,17.1,11.1,16.7z"/>
	<path class="st1" d="M14.3,14.5l-3.1,2.2c-3.6,0.3-6.4-1.4-6.5-1.4c0,0,0-0.1,0-0.2c0-0.1,0-0.1,0-0.2c1.6-0.8,3.4-1.3,5.4-1.3
		C11.5,13.7,13,14,14.3,14.5z"/>
	<path class="st1" d="M16.6,15.7l-1.5,3.9h-8l4-2.9l3.1-2.2c0.4,0.2,0.8,0.3,1.2,0.5c0.2,0.1,0.4,0.2,0.6,0.3
		C16.2,15.5,16.4,15.6,16.6,15.7z"/>
	<path class="st0" d="M20,19.6h-4.9l1.5-3.9C18.1,16.7,19.2,18.1,20,19.6z"/>
	<path class="st1" d="M4.6,15.2c0,0.1,0,0.1,0,0.2c-0.1,0.1-0.2,0.2-0.3,0.2c-0.1,0-0.2-0.1-0.3-0.2c0-0.1,0-0.1,0-0.2
		c0-0.2,0.2-0.3,0.3-0.3c0.1,0,0.3,0.1,0.3,0.2C4.6,15,4.6,15.1,4.6,15.2z"/>
	<line class="st1" x1="11.9" y1="19.6" x2="13.7" y2="17.8"/>
	<line class="st1" x1="4.6" y1="15.3" x2="4.6" y2="15.3"/>
</g>
</svg>
