<?xml version="1.0" encoding="utf-8"?>
<!-- Generator: $$$/GeneralStr/196=Adobe Illustrator 27.6.0, SVG Export Plug-In . SVG Version: 6.00 Build 0)  -->
<svg version="1.1" id="Calque_1" xmlns="http://www.w3.org/2000/svg" xmlns:xlink="http://www.w3.org/1999/xlink" x="0px" y="0px"
	 width="20px" height="20px" viewBox="0 0 20 20" style="enable-background:new 0 0 20 20;" xml:space="preserve">
<style type="text/css">
	.st0{fill:#FFFFFF;}
</style>
<g>
	<path class="st0" d="M16.3,16.9l-0.1,0.1l0,0.1c0.3,0.5,0.2,1.1-0.3,1.4l0,0c0.2,0,0.3,0.1,0.5,0.2c0.2,0.3,0.1,0.6-0.2,0.8
		s-0.6,0.1-0.8-0.2c-0.1-0.2-0.1-0.3,0-0.5l0,0c-0.5,0.3-1.1,0.2-1.4-0.3l0-0.1l-0.1,0.1c-0.4,0.2-0.8,0.1-1.1-0.2L3.5,4.2
		C3.3,3.9,3.4,3.4,3.8,3.2l0.1-0.1L3.8,3C3.5,2.5,3.6,1.9,4.1,1.6l0,0c-0.2,0-0.3-0.1-0.5-0.3C3.5,1.1,3.6,0.7,3.8,0.6
		c0.3-0.2,0.6-0.1,0.8,0.2c0.1,0.2,0.1,0.4,0,0.5l0,0c0.5-0.3,1.1-0.2,1.4,0.3l0.1,0.1l0.2-0.1c0.4-0.2,0.8-0.1,1.1,0.2l9.1,14.1
		C16.7,16.1,16.6,16.6,16.3,16.9z"/>
</g>
</svg>
