<?xml version="1.0" encoding="utf-8"?>
<!-- Generator: $$$/GeneralStr/196=Adobe Illustrator 27.6.0, SVG Export Plug-In . SVG Version: 6.00 Build 0)  -->
<svg version="1.1" id="Calque_2_00000062185606740747886500000006454885146206097543_"
	 xmlns="http://www.w3.org/2000/svg" xmlns:xlink="http://www.w3.org/1999/xlink" x="0px" y="0px" width="50px" height="50px"
	 viewBox="0 0 50 50" style="enable-background:new 0 0 50 50;" xml:space="preserve">
<style type="text/css">
	.st0{fill:#FFFFFF;}
</style>
<g>
	<path class="st0" d="M34.7,47.8c-1.6,0-1.9-1.3-1.9-1.3c0.7-9.3-1.9-14.1-1.9-14.1C51.5,28.1,41.2,10,41.2,10
		C42.6,5.9,41,2.2,41,2.2c-4.5,0-8,3.2-8,3.2c-8-2.5-14.8,0-14.8,0c-4.6-3.6-8-3.2-8-3.2C8.4,7.1,10,10,10,10S0,28.2,20.3,32.6
		c0,0-2,1.9-1.9,3.9c0,0-4.9,2.6-8-1.6c-2.8-3.7-4.8-4.2-6.4-3.6c0,0,0.1,1,1.2,1.6c1,0.6,2.6,2.2,3.5,4.8c1,2.8,6.4,4.1,9.6,2.9
		v5.8c0,0-0.1,1.3-1.7,1.3"/>
</g>
</svg>
