<?xml version="1.0" encoding="utf-8"?>
<!-- Generator: $$$/GeneralStr/196=Adobe Illustrator 27.6.0, SVG Export Plug-In . SVG Version: 6.00 Build 0)  -->
<svg version="1.1" id="Calque_1" xmlns="http://www.w3.org/2000/svg" xmlns:xlink="http://www.w3.org/1999/xlink" x="0px" y="0px"
	 width="240px" height="240px" viewBox="0 0 240 240" style="enable-background:new 0 0 240 240;" xml:space="preserve">
<style type="text/css">
	.st0{fill:#030405;}
	.st1{fill:#F6C09A;}
	.st2{opacity:0.66;fill:#F5A68C;}
	.st3{fill:#E74426;}
	.st4{fill:#B61E21;}
	.st5{fill:#9D9D9C;stroke:#000000;stroke-width:0.5763;stroke-miterlimit:10;}
	.st6{fill:#0F2436;}
	.st7{fill:#E26864;}
	.st8{stroke:#000000;stroke-width:0.5763;stroke-miterlimit:10;}
	.st9{fill:#FFFFFF;}
	.st10{fill:none;}
	.st11{font-family:'ArialRoundedMTBold';}
	.st12{font-size:2.3405px;}
	.st13{fill:#0C4458;}
</style>
<g>
	<circle class="st0" cx="87.4" cy="43.6" r="23.2"/>
	<path class="st1" d="M136.5,180.1h-12.6c-24.5,0-44.6-20.1-44.6-44.6V61.3c0-15.1,12.3-27.4,27.4-27.4h47
		c15.1,0,27.4,12.3,27.4,27.4v74.2C181.1,160,161,180.1,136.5,180.1z"/>
	<path class="st2" d="M177.2,39.1h-47.9c-2.9,0-5.2,2.3-5.2,5.2v8.4c0,2.9,2.3,5.2,5.2,5.2l16.8-8l31.1,8c2.9,0,5.2-2.3,5.2-5.2
		v-8.4C182.4,41.5,180.1,39.1,177.2,39.1z"/>
	<path class="st2" d="M178,143.5H82.3c-1.7,0-3.1-1.4-3.1-3.1v-5.6c0-19.9,16.3-36.2,36.2-36.2h29.4c19.9,0,36.2,16.3,36.2,36.2v5.6
		C181.1,142.1,179.7,143.5,178,143.5z"/>
	<path class="st3" d="M157.5,240h-54.2c-5.4,0-9.9-4.4-9.9-9.9v-50.6c0-5.4,4.4-9.9,9.9-9.9h54.2c5.4,0,9.9,4.4,9.9,9.9v50.6
		C167.4,235.6,163,240,157.5,240z"/>
	<polygon class="st4" points="130.4,193 93.5,180.2 93.4,190.1 130.4,197.6 167.3,190.1 167.3,180.2 	"/>
	<circle class="st5" cx="138.1" cy="193.6" r="1.4"/>
	<circle class="st5" cx="122.5" cy="193.6" r="1.4"/>
	<ellipse cx="110.7" cy="77.9" rx="5.6" ry="5.9"/>
	<ellipse cx="152.5" cy="77.9" rx="5.6" ry="5.9"/>
	<path class="st6" d="M117.9,66.6h-14.4c-0.7,0-1.3-0.6-1.3-1.3V65c0-0.7,0.6-1.3,1.3-1.3h14.4c0.7,0,1.3,0.6,1.3,1.3v0.4
		C119.2,66,118.6,66.6,117.9,66.6z"/>
	<g>
		<path class="st1" d="M79.2,73.2c-3.7,0-6.7,3.2-6.7,7.1c0,3.9,3,7.1,6.7,7.1V73.2z"/>
		<path class="st7" d="M79.2,75.7c-2.4,0-4.4,2.1-4.4,4.7s2,4.7,4.4,4.7V75.7z"/>
	</g>
	<g>
		<path class="st1" d="M181.1,73.2c3.7,0,6.7,3.2,6.7,7.1c0,3.9-3,7.1-6.7,7.1V73.2z"/>
		<path class="st7" d="M181.1,75.7c2.4,0,4.4,2.1,4.4,4.7s-2,4.7-4.4,4.7V75.7z"/>
	</g>
	<path class="st8" d="M122.5,223.5L122.5,223.5c-0.2,0-0.4-0.1-0.4-0.3v-29.2c0-0.2,0.1-0.3,0.3-0.3h0.1c0.2,0,0.3,0.1,0.3,0.3v29.2
		C122.8,223.3,122.7,223.5,122.5,223.5z"/>
	<path class="st8" d="M138.1,223.5L138.1,223.5c-0.2,0-0.4-0.1-0.4-0.3v-29.2c0-0.2,0.1-0.3,0.3-0.3h0.1c0.2,0,0.3,0.1,0.3,0.3v29.2
		C138.4,223.3,138.3,223.5,138.1,223.5z"/>
	<path class="st6" d="M155.2,180.7h-50.1c-14.2,0-25.8-11.6-25.8-25.8V145c0-24.1,19.7-43.9,43.9-43.9h15.1
		c23.6,0,42.8,19.2,42.8,42.8v10.9C181.1,169,169.4,180.7,155.2,180.7z"/>
	<path class="st9" d="M130.1,129c7.2,0,13.1-6.2,13.1-13.9h-26.2C117.1,122.8,122.9,129,130.1,129z"/>
	<circle class="st1" cx="130.2" cy="97.6" r="11.5"/>
	<g>
		<polygon points="151.7,199.8 151.3,199.1 152.6,198.2 153.7,199.8 		"/>
		<polygon points="154.6,199.8 153.2,197.8 154.6,196.9 156.5,199.8 		"/>
		<polygon points="157.5,199.8 155.2,196.4 156.6,195.5 159.4,199.8 		"/>
	</g>
	<rect x="151.6" y="200.1" class="st10" width="14.1" height="3.3"/>
	<text transform="matrix(1 0 0 1 151.6338 201.7822)" class="st11 st12">adidas</text>
	<path class="st6" d="M159.7,66.6h-14.4c-0.7,0-1.3-0.6-1.3-1.3V65c0-0.7,0.6-1.3,1.3-1.3h14.4c0.7,0,1.3,0.6,1.3,1.3v0.4
		C161,66,160.4,66.6,159.7,66.6z"/>
	<circle class="st6" cx="122.8" cy="27.4" r="27.4"/>
	<path class="st6" d="M155.1,0h-34.6c-3.4,0-6.2,2.8-6.2,6.2v27.5c0,3.4,2.8,6.2,6.2,6.2H190V35C190,15.8,174.3,0,155.1,0z"/>
	<path class="st6" d="M172,28.5c-11.4-4-23.9,2-27.9,13.4l41.4,14.5C189.4,45,183.4,32.5,172,28.5z"/>
	<path class="st13" d="M130.3,28.9h-19c-2.5,0-4.6-2.1-4.6-4.6V23c0-2.5,2.1-4.6,4.6-4.6h19c2.5,0,4.6,2.1,4.6,4.6v1.3
		C134.9,26.9,132.8,28.9,130.3,28.9z"/>
	<path class="st13" d="M166,157.1h-22c-1.2,0-2.2-1-2.2-2.2v-0.6c0-1.2,1-2.2,2.2-2.2h22c1.2,0,2.2,1,2.2,2.2v0.6
		C168.2,156.1,167.2,157.1,166,157.1z"/>
	<path class="st13" d="M168.7,33.4h-19.2c-1.2,0-2.2-1-2.2-2.2v-0.6c0-1.2,1-2.2,2.2-2.2h19.2c1.2,0,2.2,1,2.2,2.2v0.6
		C171,32.4,170,33.4,168.7,33.4z"/>
	<path class="st13" d="M116.9,146.5H95.1c-2.3,0-4.1-1.9-4.1-4.1v-1.2c0-2.3,1.9-4.1,4.1-4.1h21.8c2.3,0,4.1,1.9,4.1,4.1v1.2
		C121,144.7,119.2,146.5,116.9,146.5z"/>
	<path d="M99.2,35c0-14.4,11.1-26.2,25.1-27.3c0.3,0,0.6-0.1,0.9-0.1c0.5,0,0.9,0,1.4,0c0.5,0,0.9,0,1.4,0h26
		c14.3,0,26.9,7.6,33.9,19c-5.5-15.4-20.3-26.6-37.6-26.6h-26c-0.5,0-0.9,0-1.4,0c-0.5,0-0.9,0-1.4,0c-0.3,0-0.6,0-0.9,0.1
		c-14.1,1.2-25.1,12.9-25.1,27.3c0,5.7,1.8,11.1,4.8,15.5C99.6,40.4,99.2,37.7,99.2,35z"/>
	<path d="M151.6,167.9h-42.8c-14.3,0-26.3-10.3-28.9-23.8c-0.4,2.4-0.6,4.9-0.6,7.4v0c0,16.2,13.3,29.5,29.5,29.5h42.8
		c16.2,0,29.5-13.3,29.5-29.5v-1.2c0-2.3-0.2-4.5-0.5-6.7C178.1,157.3,166,167.9,151.6,167.9z"/>
</g>
</svg>
