<?xml version="1.0" encoding="utf-8"?>
<!-- Generator: $$$/GeneralStr/196=Adobe Illustrator 27.6.0, SVG Export Plug-In . SVG Version: 6.00 Build 0)  -->
<svg version="1.1" id="Calque_1" xmlns="http://www.w3.org/2000/svg" xmlns:xlink="http://www.w3.org/1999/xlink" x="0px" y="0px"
	 width="50px" height="50px" viewBox="0 0 50 50" style="enable-background:new 0 0 50 50;" xml:space="preserve">
<style type="text/css">
	.st0{fill:#FFFFFF;}
</style>
<path class="st0" d="M41.9,1.8H8C5.2,1.8,2.9,4.1,2.9,7v36.2c0,2.8,2.3,5.1,5.1,5.1h33.9c2.8,0,5.1-2.3,5.1-5.1V7
	C47,4.1,44.7,1.8,41.9,1.8z M25,36C18.9,36,14,31,14,25C14,18.9,19,14.1,25,14.1c6.1,0,10.9,4.9,10.9,10.9C35.9,31.1,31.1,36,25,36z
	 M37.7,13.3c-1.4,0-2.4-1.1-2.4-2.4s1.1-2.4,2.4-2.4s2.4,1.1,2.4,2.4S39,13.3,37.7,13.3z"/>
</svg>
