<?xml version="1.0" encoding="utf-8"?>
<!-- Generator: $$$/GeneralStr/196=Adobe Illustrator 27.6.0, SVG Export Plug-In . SVG Version: 6.00 Build 0)  -->
<svg version="1.1" id="Calque_1" xmlns="http://www.w3.org/2000/svg" xmlns:xlink="http://www.w3.org/1999/xlink" x="0px" y="0px"
	 width="150px" height="150px" viewBox="0 0 150 150" style="enable-background:new 0 0 150 150;" xml:space="preserve">
<style type="text/css">
	.st0{stroke:#000000;stroke-width:0.25;stroke-linecap:round;stroke-linejoin:round;stroke-miterlimit:10;}
	.st1{fill:none;stroke:#000000;stroke-width:0.25;stroke-linecap:round;stroke-linejoin:round;stroke-miterlimit:10;}
</style>
<g>
	<path class="st0" d="M44.1,138.5C44.1,138.5,44.1,138.5,44.1,138.5c-7.8,2.9-15.5,0.2-16,0c0,0,0,0,0,0s0,0,0,0v0
		C10.4,123.8-9.3,76.2,5.8,53.7c0.9-1.3,1.9-2.6,3-3.7c0.7-0.7,1.4-1.3,2.1-1.9c0,0,25.3,7.2,50.2,0C85.1,67,63.4,122.4,44.1,138.5z
		"/>
	<path class="st0" d="M44.1,138.5c-1.8,1.5-3,3.8-3,6.1c0,0.7,0.1,1.3,0.3,1.9c0.2,0.6-0.1,1.3-0.8,1.5c-1.9,0.5-5.6,1-9.4,0
		c-0.6-0.2-1-0.9-0.7-1.5c0.3-0.6,0.5-1.3,0.5-1.9c0-2.4-1.1-4.6-2.9-6.1C28.6,138.7,36.3,141.3,44.1,138.5z"/>
	<path class="st0" d="M19.6,13.6c-0.5-1.1-1.1-2.1-1.6-3c0,0,0,0,0,0c-2-3.4-4-5.4-4-5.4c22.1-8.6,44.2,0,44.2,0s-21.7,23.2,3,42.8
		c-24.9,7.2-50.2,0-50.2,0C26.4,35.8,23.7,22.1,19.6,13.6z"/>
	<path class="st1" d="M44.1,138.5C44.1,138.5,44.1,138.5,44.1,138.5"/>
	<path class="st1" d="M28.1,138.5C28.1,138.5,28.1,138.5,28.1,138.5"/>
	<path class="st0" d="M8.8,50c-1.1,1.1-2.1,2.4-3,3.7c-18-35.8,11.5-42.9,12.2-43c0,0,0,0,0,0c0.5,0.9,1.1,1.9,1.6,3
		C19.6,13.6-5.4,19.9,8.8,50z"/>
	<path class="st0" d="M63.4,50c1.1,1.1,2.1,2.4,3,3.7c18-35.8-11.5-42.9-12.2-43c0,0,0,0,0,0c-0.5,0.9-1.1,1.9-1.6,3
		C52.6,13.6,77.5,19.9,63.4,50z"/>
	<path class="st1" d="M5.8,53.7C5.8,53.7,5.8,53.7,5.8,53.7"/>
</g>
</svg>
