<?xml version="1.0" encoding="utf-8"?>
<!-- Generator: $$$/GeneralStr/196=Adobe Illustrator 27.6.0, SVG Export Plug-In . SVG Version: 6.00 Build 0)  -->
<svg version="1.1" id="Calque_1" xmlns="http://www.w3.org/2000/svg" xmlns:xlink="http://www.w3.org/1999/xlink" x="0px" y="0px"
	 width="240px" height="240px" viewBox="0 0 240 240" style="enable-background:new 0 0 240 240;" xml:space="preserve">
<style type="text/css">
	.st0{fill:#008BBC;}
	.st1{fill:#FFFFFF;}
</style>
<rect class="st0" width="240" height="240"/>
<g>
	<path class="st1" d="M82.4,134.1c0.5,2.1,1.3,3.8,2.6,5c1.3,1.2,3,1.8,5.3,1.8c1.8,0,3.3-0.4,4.5-1.1c1.2-0.7,2.1-1.7,2.7-2.8
		c0.6-1.2,1.1-2.5,1.3-4c0.2-1.5,0.4-3,0.4-4.6V94.4h5.1v36.3c0,1.7-0.2,3.4-0.7,5.2c-0.4,1.8-1.2,3.4-2.3,4.8
		c-1.1,1.4-2.6,2.6-4.3,3.6c-1.8,0.9-4,1.4-6.7,1.4c-3.4,0-6.3-0.9-8.6-2.6c-2.3-1.8-3.7-4.4-4.3-7.8L82.4,134.1z"/>
	<path class="st1" d="M122.3,98.6c0,1-0.4,1.8-1.1,2.4c-0.7,0.6-1.5,1-2.3,1c-0.8,0-1.6-0.3-2.3-1c-0.7-0.6-1.1-1.4-1.1-2.4
		s0.4-1.8,1.1-2.4c0.7-0.6,1.5-1,2.3-1c0.8,0,1.6,0.3,2.3,1C121.9,96.8,122.3,97.6,122.3,98.6z M121.2,144.4h-4.7v-33h4.7V144.4z"/>
	<path class="st1" d="M132.9,121.6c0-1.5,0-2.9-0.1-4.5c-0.1-1.5-0.1-3.5-0.2-5.9h4.6v6.1h0.1c0.3-0.9,0.8-1.8,1.4-2.6
		c0.6-0.8,1.4-1.6,2.2-2.2c0.9-0.7,1.9-1.2,3-1.6c1.2-0.4,2.5-0.6,3.9-0.6c1.3,0,2.5,0.1,3.5,0.4l-0.9,4.6c-0.6-0.2-1.5-0.4-2.7-0.4
		c-1.8,0-3.3,0.3-4.6,1c-1.3,0.7-2.3,1.6-3.2,2.6c-0.8,1.1-1.5,2.2-1.9,3.4c-0.4,1.2-0.6,2.4-0.6,3.5v18.6h-4.7V121.6z"/>
	<path class="st1" d="M162.6,98.6c0,1-0.4,1.8-1.1,2.4c-0.7,0.6-1.5,1-2.3,1s-1.6-0.3-2.3-1c-0.7-0.6-1.1-1.4-1.1-2.4
		s0.4-1.8,1.1-2.4c0.7-0.6,1.5-1,2.3-1s1.6,0.3,2.3,1C162.3,96.8,162.6,97.6,162.6,98.6z M161.6,144.4h-4.7v-33h4.7V144.4z"/>
</g>
</svg>
