<?xml version="1.0" encoding="utf-8"?>
<!-- Generator: $$$/GeneralStr/196=Adobe Illustrator 27.6.0, SVG Export Plug-In . SVG Version: 6.00 Build 0)  -->
<svg version="1.1" id="Logo" xmlns="http://www.w3.org/2000/svg" xmlns:xlink="http://www.w3.org/1999/xlink" x="0px" y="0px"
	 width="240px" height="240px" viewBox="0 0 240 240" style="enable-background:new 0 0 240 240;" xml:space="preserve">
<style type="text/css">
	.st0{fill:#FFFFFF;stroke:#000000;stroke-width:1.44;stroke-miterlimit:10;}
	.st1{fill:#FFFFFF;stroke:#000000;stroke-width:1.4238;stroke-miterlimit:10;}
	.st2{fill:#EE7402;}
	.st3{fill:#FFFFFF;}
	.st4{fill:#FFFFFF;stroke:#000000;stroke-width:1.2904;stroke-miterlimit:10;}
</style>
<g>
	<g>
		<path class="st0" d="M200.4,203.3c-2.3-2.3-5.5-3-8.6-2.5l-70.1-70.1v38.1l50.9,50.9c-0.5,3,0.3,6.3,2.5,8.6
			c3.8,3.8,10.1,3.5,13.9-0.3c2.3-2.3,3.3-5,3-7.8c2.8,0.3,5.5-0.8,7.8-3C203.9,213.2,204.2,206.9,200.4,203.3z"/>
		<path class="st1" d="M199.1,23.8c-2.3-2.3-5-3.3-7.8-3c0.3-2.8-1-5.5-3-7.8c-4-4-10.1-4-13.9-0.5c-2.3,2.3-3,5.8-2.3,8.8L122,71.7
			v37.8l69.3-69.3c2.8,0.5,5.8-0.5,8.1-2.5C203.2,33.9,202.9,27.8,199.1,23.8z"/>
	</g>
	<path class="st2" d="M58.7,144.6v11.6c-1.8,1-3,1.8-3,1.8c-11.6,6.6-7.3,21.4-7.1,22.2c-11.1-13.1-1.5-23.7-1.5-23.7
		c1.3-1.8,4-4.5,6.8-7.3C55.7,147.4,57.4,145.8,58.7,144.6z"/>
	<g>
		<path class="st2" d="M115.9,29.1c-1.3,0.3-8.3,1-10.6,1v9.8c1.8-0.3,3.8-0.3,5.5-0.5c1.8,0,3.3-1,4-2.5c0.8-1,1.8-1.5,2.8-0.3
			c9.6,10.6,19.7,7.1,25-1C151.2,22.8,123,27.8,115.9,29.1z"/>
	</g>
	<circle class="st3" cx="136.1" cy="31.4" r="1"/>
	<path class="st4" d="M111.4,223c0,8.1-7.6,14.6-17.1,14.6c-5.3,0-9.8-2-12.9-5c-3,3-7.8,5-12.9,5c-9.3,0-17.1-6.6-17.1-14.6
		c0-4.8,2.8-9.3,7.3-11.9V28.6c-4-2.8-6.6-6.8-6.6-11.6c0-8.1,7.6-14.6,17.1-14.6c5.3,0,9.8,2,12.9,5c3-3,7.8-5,12.9-5
		c9.3,0,17.1,6.6,17.1,14.6c0,5.3-3,9.8-7.8,12.4v181.5C108.6,213.7,111.4,218,111.4,223z"/>
	<path class="st2" d="M106.9,135.3c-0.3,0.3-0.5,0.3-0.8,0.5v-15.9c7.1-8.3,4-12.9-2.3-16.6c-9.3-5.5-29.5-8.6-45.6-18.4
		c-2.8-1.8-5.3-3.5-7.8-5.8c-15.6-13.6-22.4-31.3,6.6-41.4v10.1c-10.6,6.6-6.8,13.4,1.5,19.9c11.1,8.8,32.5,16.4,45.6,20.9
		c1.8,0.5,3.3,1,4.5,1.5C123.2,95.2,126.5,122.6,106.9,135.3z"/>
</g>
</svg>
