<?xml version="1.0" encoding="utf-8"?>
<!-- Generator: $$$/GeneralStr/196=Adobe Illustrator 27.6.0, SVG Export Plug-In . SVG Version: 6.00 Build 0)  -->
<svg version="1.1" id="Calque_1" xmlns="http://www.w3.org/2000/svg" xmlns:xlink="http://www.w3.org/1999/xlink" x="0px" y="0px"
	 width="70px" height="70px" viewBox="0 0 70 70" style="enable-background:new 0 0 70 70;" xml:space="preserve">
<style type="text/css">
	.st0{fill:#FFFFFF;}
</style>
<g>
	<g>
		<path class="st0" d="M22.6,9c0,0.4,0.1,0.9,0.6,1.1c0.3,0.1,0.5,0.1,0.6,0.1c0.1,0,0.1,0,0.1,0.1c0,0.1,0,0.1-0.2,0.1
			c-0.2,0-1.4,0-1.8-0.1c-0.2,0-0.3-0.1-0.3-0.1c0,0,0-0.1,0.1-0.1c0.1,0,0.1-0.2,0-0.4l-0.5-5.4l-2.6,5.4c-0.2,0.5-0.2,0.5-0.3,0.5
			c-0.1,0-0.1-0.1-0.3-0.5c-0.3-0.5-1.2-2.3-1.2-2.4c-0.1-0.2-1.3-2.7-1.4-3l-0.4,4.9c0,0.2,0,0.3,0,0.5c0,0.3,0.1,0.3,0.3,0.4
			c0.2,0,0.3,0,0.4,0s0.1,0,0.1,0.1c0,0.1-0.1,0.1-0.2,0.1c-0.4,0-0.9,0-1,0c-0.1,0-0.6,0-0.9,0c-0.1,0-0.2,0-0.2-0.1
			c0,0,0.1-0.1,0.1-0.1c0.1,0,0.2,0,0.3,0c0.3-0.1,0.4-0.4,0.4-0.9l0.7-6.7c0-0.1,0.1-0.2,0.1-0.2c0.1,0,0.1,0,0.2,0.2L18.6,9l3-6.5
			c0-0.1,0.1-0.2,0.2-0.2c0.1,0,0.1,0.1,0.1,0.3L22.6,9z"/>
		<path class="st0" d="M26,7.8c-0.1,0-0.1,0-0.1,0.1l-0.5,1.3c-0.1,0.3-0.2,0.6-0.2,0.7c0,0.2,0.1,0.3,0.3,0.3c0,0,0,0,0.1,0
			c0.1,0,0.1,0,0.1,0.1c0,0.1-0.1,0.1-0.2,0.1c-0.2,0-0.7,0-0.8,0c-0.1,0-0.6,0-1,0c-0.1,0-0.2,0-0.2-0.1c0,0,0-0.1,0.1-0.1
			c0.1,0,0.1,0,0.2,0c0.4,0,0.6-0.4,0.8-0.8l2.1-5.4C27,3.6,27,3.5,27.1,3.5c0.1,0,0.1,0,0.2,0.3c0.1,0.3,1.5,3.9,2.1,5.2
			c0.3,0.8,0.6,0.9,0.8,1c0.1,0.1,0.3,0.1,0.4,0.1c0.1,0,0.1,0,0.1,0.1c0,0.1,0,0.1-0.2,0.1c-0.1,0-0.9,0-1.6,0
			c-0.2,0-0.3,0-0.3-0.1c0,0,0-0.1,0.1-0.1c0,0,0.1-0.1,0-0.2l-0.8-2.1c0,0,0-0.1-0.1-0.1H26z M27.7,7.4C27.8,7.4,27.8,7.4,27.7,7.4
			l-0.8-2.3c-0.1-0.1-0.1-0.1-0.1,0l-0.8,2.3c0,0,0,0.1,0,0.1H27.7z"/>
		<path class="st0" d="M31.9,6.2c0-1.4,0-1.6,0-1.9c0-0.3-0.1-0.4-0.4-0.5c-0.1,0-0.2,0-0.2,0c-0.1,0-0.1,0-0.1-0.1
			c0,0,0-0.1,0.1-0.1c0.4,0,1.1,0,1.1,0c0.1,0,0.8,0,1.1,0c0.6,0,1.2,0.1,1.7,0.4c0.2,0.1,0.6,0.6,0.6,1.3c0,0.6-0.3,1.3-1.1,1.9
			c0.8,0.9,1.4,1.7,1.9,2.2c0.5,0.5,0.8,0.6,1.1,0.6c0.1,0,0.3,0,0.3,0c0.1,0,0.1,0,0.1,0.1c0,0.1,0,0.1-0.2,0.1h-0.7
			c-0.5,0-0.7,0-0.9-0.1c-0.4-0.2-0.7-0.6-1.3-1.3c-0.4-0.5-0.8-1.1-1-1.3c0,0-0.1-0.1-0.1-0.1l-1.1,0c0,0-0.1,0-0.1,0.1v0.1
			c0,0.8,0,1.6,0.1,1.9c0,0.2,0.1,0.5,0.4,0.5c0.1,0,0.2,0,0.3,0c0.1,0,0.1,0,0.1,0.1c0,0.1,0,0.1-0.1,0.1c-0.5,0-1.1,0-1.2,0
			c-0.2,0-0.6,0-0.9,0c-0.1,0-0.1,0-0.1-0.1c0,0,0.1-0.1,0.1-0.1c0.1,0,0.1,0,0.2,0c0.2,0,0.2-0.1,0.3-0.4c0.1-0.4,0-1.2,0-2V6.2z
			 M32.7,6.9c0,0.1,0,0.1,0.1,0.1c0.1,0.1,0.5,0.1,0.9,0.1c0.2,0,0.5,0,0.7-0.2c0.3-0.2,0.5-0.6,0.5-1.3c0-1.1-0.6-1.7-1.5-1.7
			c-0.3,0-0.5,0-0.6,0.1c0,0-0.1,0-0.1,0.1V6.9z"/>
		<path class="st0" d="M37.6,4.5c-0.2-0.5-0.3-0.6-0.6-0.7c-0.1,0-0.3,0-0.3,0c-0.1,0-0.1,0-0.1-0.1c0-0.1,0.1-0.1,0.2-0.1
			c0.5,0,1.1,0,1.2,0c0.1,0,0.6,0,1,0c0.1,0,0.2,0,0.2,0.1c0,0.1,0,0.1-0.2,0.1c-0.1,0-0.2,0-0.3,0.1C38.4,3.9,38.4,4,38.4,4
			c0,0.1,0.1,0.3,0.2,0.5l1.8,4.6C40.9,8,42.1,5,42.3,4.4c0.1-0.1,0.1-0.3,0.1-0.3c0-0.1,0-0.1-0.1-0.2c-0.1,0-0.2,0-0.3,0
			c-0.1,0-0.1,0-0.1-0.1c0-0.1,0-0.1,0.2-0.1c0.4,0,0.9,0,1,0c0,0,0.5,0,0.7,0c0.1,0,0.2,0,0.2,0.1c0,0.1,0,0.1-0.1,0.1
			c-0.1,0-0.3,0-0.4,0.1C43.1,4,43,4.1,42.7,4.7c-0.1,0.1-0.6,1.3-1,2.4c-0.5,1.3-1,2.2-1.1,2.6c-0.3,0.6-0.3,0.7-0.4,0.7
			c-0.1,0-0.2-0.1-0.4-0.6L37.6,4.5z"/>
		<path class="st0" d="M45.1,6.2c0-1.4,0-1.6,0-1.9c0-0.3-0.1-0.4-0.3-0.5c-0.1,0-0.2,0-0.2,0c-0.1,0-0.1,0-0.1-0.1
			c0-0.1,0-0.1,0.2-0.1c0.3,0,0.9,0,0.9,0c0,0,0.6,0,0.9,0c0.1,0,0.2,0,0.2,0.1c0,0,0,0.1-0.1,0.1c-0.1,0-0.1,0-0.2,0
			C46,3.9,46,4,46,4.3c0,0.3,0,0.5,0,1.9v1.5c0,0.8,0,1.5,0,1.9c0,0.3,0.1,0.4,0.4,0.5c0.1,0,0.4,0,0.4,0c0.1,0,0.1,0,0.1,0.1
			s0,0.1-0.1,0.1c-0.5,0-1.1,0-1.2,0c0,0-0.6,0-0.9,0c-0.1,0-0.2,0-0.2-0.1c0,0,0-0.1,0.1-0.1c0.1,0,0.2,0,0.2,0
			c0.2,0,0.2-0.2,0.2-0.5c0.1-0.4,0.1-1.1,0.1-1.9V6.2z"/>
		<path class="st0" d="M48.9,4c0-0.3,0-0.4,0.1-0.4c0.1,0,0.2,0.2,0.3,0.3c0.1,0.1,1.5,1.6,3,3c0.8,0.8,1.8,1.8,2.1,2.1l-0.1-4.3
			c0-0.6-0.1-0.7-0.4-0.8c-0.2,0-0.3,0-0.4,0c-0.1,0-0.1,0-0.1-0.1c0-0.1,0.1-0.1,0.2-0.1c0.4,0,0.9,0,1,0c0.1,0,0.4,0,0.8,0
			c0.1,0,0.1,0,0.1,0.1c0,0,0,0.1-0.1,0.1c-0.1,0-0.1,0-0.3,0c-0.2,0.1-0.3,0.2-0.3,0.8l0,5.2c0,0.5,0,0.6-0.1,0.6
			c-0.1,0-0.2-0.1-0.7-0.5c0,0-1.5-1.4-2.4-2.3c-1.1-1.1-2.1-2.2-2.4-2.5l0.1,4c0,0.7,0.1,1,0.3,1c0.2,0,0.3,0,0.4,0s0.1,0,0.1,0.1
			c0,0.1-0.1,0.1-0.2,0.1c-0.6,0-0.9,0-1,0c-0.1,0-0.5,0-0.9,0c-0.1,0-0.2,0-0.2-0.1c0,0,0-0.1,0.1-0.1c0.1,0,0.2,0,0.3,0
			c0.2-0.1,0.3-0.4,0.3-1.1C48.9,4.1,48.9,5.7,48.9,4z"/>
		<path class="st0" d="M11.4,17.8c0-1.6,0-1.9,0-2.2c0-0.4-0.1-0.5-0.4-0.6c-0.1,0-0.3,0-0.4,0c0,0-0.1,0-0.1-0.1
			c0-0.1,0.1-0.1,0.2-0.1c0.5,0,1.1,0,1.2,0c0.2,0,0.8,0,1.3,0c1.3,0,1.8,0.4,1.9,0.6c0.2,0.2,0.5,0.7,0.5,1.3
			c0,1.3-1.1,2.3-2.5,2.3c-0.1,0-0.2,0-0.2,0c-0.1,0-0.1,0-0.1-0.1c0-0.1,0.1-0.1,0.3-0.1c1,0,1.8-0.7,1.8-1.8c0-0.3,0-0.9-0.6-1.5
			c-0.5-0.6-1.2-0.5-1.4-0.5c-0.2,0-0.4,0-0.4,0.1c-0.1,0-0.1,0.1-0.1,0.2v4.2c0,1,0,1.8,0.1,2.2c0,0.3,0.1,0.5,0.4,0.6
			c0.1,0,0.4,0,0.5,0c0.1,0,0.1,0,0.1,0.1c0,0.1-0.1,0.1-0.2,0.1c-0.6,0-1.2,0-1.3,0c0,0-0.7,0-1,0c-0.1,0-0.2,0-0.2-0.1
			c0,0,0-0.1,0.1-0.1c0.1,0,0.2,0,0.3,0c0.2,0,0.3-0.3,0.3-0.6c0.1-0.4,0.1-1.2,0.1-2.2V17.8z"/>
		<path class="st0" d="M17.4,20.1c-0.1,0-0.1,0-0.1,0.1l-0.5,1.3c-0.1,0.3-0.2,0.6-0.2,0.7c0,0.2,0.1,0.3,0.3,0.3c0,0,0,0,0.1,0
			c0.1,0,0.1,0,0.1,0.1c0,0.1-0.1,0.1-0.2,0.1c-0.2,0-0.7,0-0.8,0c-0.1,0-0.6,0-1,0c-0.1,0-0.2,0-0.2-0.1c0,0,0-0.1,0.1-0.1
			c0.1,0,0.1,0,0.2,0c0.4,0,0.6-0.4,0.8-0.8l2.1-5.4c0.1-0.3,0.1-0.4,0.2-0.4c0.1,0,0.1,0,0.2,0.3c0.1,0.3,1.5,3.9,2.1,5.2
			c0.3,0.8,0.6,0.9,0.8,1c0.1,0.1,0.3,0.1,0.4,0.1s0.1,0,0.1,0.1c0,0.1,0,0.1-0.2,0.1c-0.1,0-0.9,0-1.6,0c-0.2,0-0.3,0-0.3-0.1
			c0,0,0-0.1,0.1-0.1c0,0,0.1-0.1,0-0.2l-0.8-2.1c0,0,0-0.1-0.1-0.1H17.4z M19.1,19.8C19.2,19.8,19.2,19.7,19.1,19.8l-0.8-2.3
			c-0.1-0.1-0.1-0.1-0.1,0l-0.8,2.3c0,0,0,0.1,0,0.1H19.1z"/>
		<path class="st0" d="M28.5,21.9c0,0.4,0,0.4-0.1,0.5c-0.6,0.3-1.4,0.4-1.9,0.4c-0.7,0-2-0.1-3-0.9c-0.6-0.5-1.1-1.3-1.1-2.5
			c0-1.4,0.7-2.4,1.6-2.9c0.8-0.5,1.7-0.5,2.3-0.5c0.7,0,1.1,0.1,1.5,0.1c0.2,0,0.6,0.1,0.8,0.1c0.1,0,0.1,0,0.1,0.1
			c0,0.1-0.1,0.4-0.1,1.3c0,0.1,0,0.2-0.1,0.2c-0.1,0-0.1-0.1-0.1-0.1c0-0.1,0-0.4-0.2-0.6c-0.2-0.3-1-0.7-2.1-0.7
			c-0.6,0-1.2,0-1.9,0.5c-0.5,0.4-0.9,1.2-0.9,2.2c0,1.2,0.7,2.1,0.9,2.4c0.7,0.7,1.4,1,2.3,1c0.3,0,0.7-0.1,1-0.2
			c0.1-0.1,0.2-0.2,0.2-0.3v-1.5c0-0.7-0.1-0.8-0.4-0.9c-0.1,0-0.2,0-0.2,0c-0.1,0-0.1,0-0.1-0.1c0-0.1,0-0.1,0.2-0.1
			c0.4,0,1,0,1.1,0s0.6,0,0.9,0c0.1,0,0.1,0,0.1,0.1c0,0,0,0.1-0.1,0.1c-0.1,0-0.1,0-0.2,0c-0.2,0-0.3,0.2-0.3,0.5
			c0,0.3,0,0.6,0,0.9V21.9z"/>
		<path class="st0" d="M30.9,16.3c0-0.3,0-0.4,0.1-0.4c0.1,0,0.2,0.2,0.3,0.3c0.1,0.1,1.5,1.6,3,3c0.8,0.8,1.8,1.8,2.1,2.1L36.3,17
			c0-0.6-0.1-0.7-0.4-0.8c-0.2,0-0.3,0-0.4,0c-0.1,0-0.1,0-0.1-0.1c0-0.1,0.1-0.1,0.2-0.1c0.4,0,0.9,0,1,0c0.1,0,0.4,0,0.8,0
			c0.1,0,0.1,0,0.1,0.1c0,0,0,0.1-0.1,0.1c-0.1,0-0.1,0-0.3,0c-0.2,0.1-0.3,0.2-0.3,0.8l0,5.2c0,0.5,0,0.6-0.1,0.6s-0.2-0.1-0.7-0.5
			c0,0-1.5-1.4-2.4-2.3c-1.1-1.1-2.1-2.2-2.4-2.5l0.1,4c0,0.7,0.1,1,0.3,1c0.2,0,0.3,0,0.4,0c0.1,0,0.1,0,0.1,0.1
			c0,0.1-0.1,0.1-0.2,0.1c-0.6,0-0.9,0-1,0c-0.1,0-0.5,0-0.9,0c-0.1,0-0.2,0-0.2-0.1c0,0,0-0.1,0.1-0.1c0.1,0,0.2,0,0.3,0
			c0.2-0.1,0.3-0.4,0.3-1.1C30.9,16.4,30.9,18,30.9,16.3z"/>
		<path class="st0" d="M38.8,19.3c0-1.4,1.1-3.4,3.6-3.4c2,0,3.6,1.2,3.6,3.3c0,2-1.5,3.6-3.6,3.6C39.8,22.8,38.8,20.9,38.8,19.3z
			 M45,19.4c0-2.1-1.3-3.2-2.7-3.2c-1.4,0-2.6,0.9-2.6,2.8c0,2,1.1,3.4,2.9,3.4C43.3,22.4,45,22.1,45,19.4z"/>
		<path class="st0" d="M48.8,19.8c0,1.3,0.2,1.8,0.6,2.1c0.4,0.4,0.9,0.5,1.4,0.5c0.5,0,1-0.1,1.4-0.6c0.4-0.5,0.5-1.3,0.5-2.2v-1.1
			c0-1.3,0-1.6,0-1.9c0-0.3-0.1-0.5-0.4-0.5c-0.1,0-0.2,0-0.3,0c-0.1,0-0.1,0-0.1-0.1c0-0.1,0.1-0.1,0.1-0.1c0.4,0,1,0,1,0
			c0.1,0,0.5,0,0.8,0c0.1,0,0.1,0,0.1,0.1c0,0,0,0.1-0.1,0.1s-0.1,0-0.2,0c-0.3,0-0.3,0.2-0.4,0.5c0,0.3,0,0.5,0,1.9v0.9
			c0,0.9-0.1,2-0.8,2.7c-0.7,0.6-1.3,0.6-1.9,0.6c-0.3,0-1.3,0-1.9-0.6c-0.4-0.4-0.8-1-0.8-2.3v-1.3c0-1.4,0-1.6,0-1.9
			c0-0.3-0.1-0.5-0.4-0.5c-0.1,0-0.2,0-0.3,0c-0.1,0-0.1,0-0.1-0.1c0-0.1,0-0.1,0.2-0.1c0.4,0,1,0,1.1,0c0.1,0,0.7,0,1,0
			c0.1,0,0.1,0,0.1,0.1c0,0.1-0.1,0.1-0.1,0.1c-0.1,0-0.1,0-0.2,0c-0.2,0-0.3,0.2-0.3,0.5c0,0.3,0,0.5,0,1.9V19.8z"/>
		<path class="st0" d="M56.8,20.1c0,1.2,0,1.8,0.2,1.9c0.2,0.1,0.4,0.2,1.1,0.2c0.5,0,0.9,0,1.1-0.3c0.1-0.2,0.2-0.4,0.2-0.5
			c0-0.1,0-0.1,0.1-0.1c0,0,0.1,0,0.1,0.1c0,0.1-0.1,0.7-0.1,0.9c-0.1,0.2-0.1,0.3-0.5,0.3c-0.7,0-1.5-0.1-2.5-0.1
			c-0.3,0-0.5,0-0.9,0c-0.1,0-0.2,0-0.2-0.1c0,0,0-0.1,0.1-0.1s0.2,0,0.2,0c0.2,0,0.2-0.2,0.3-0.5c0.1-0.4,0-1.1,0-1.9v-1.5
			c0-1.4,0-1.6,0-1.9c0-0.3-0.1-0.5-0.4-0.5c-0.1,0-0.2,0-0.3,0c-0.1,0-0.1,0-0.1-0.1c0-0.1,0.1-0.1,0.2-0.1c0.4,0,1.1,0,1.1,0
			c0.1,0,0.8,0,1.1,0c0.1,0,0.1,0,0.1,0.1s-0.1,0.1-0.1,0.1c-0.1,0-0.2,0-0.3,0c-0.3,0-0.4,0.2-0.4,0.5c0,0.3,0,0.5,0,1.9V20.1z"/>
	</g>
	<path class="st0" d="M61.1,12.6c2.3,4.2,3.7,9.1,3.7,14.3c0,16.4-13.3,29.7-29.7,29.7S5.3,43.3,5.3,26.9c0-5.2,1.3-10.1,3.7-14.3
		c-4.8,5.8-7.7,13.3-7.7,21.4c0,18.6,15.1,33.7,33.7,33.7s33.7-15.1,33.7-33.7C68.7,25.8,65.8,18.4,61.1,12.6z"/>
</g>
</svg>
