<?xml version="1.0" encoding="utf-8"?>
<!-- Generator: $$$/GeneralStr/196=Adobe Illustrator 27.6.0, SVG Export Plug-In . SVG Version: 6.00 Build 0)  -->
<svg version="1.1" id="Calque_1" xmlns="http://www.w3.org/2000/svg" xmlns:xlink="http://www.w3.org/1999/xlink" x="0px" y="0px"
	 width="240px" height="240px" viewBox="0 0 240 240" style="enable-background:new 0 0 240 240;" xml:space="preserve">
<style type="text/css">
	.st0{fill:#FFFFFF;}
</style>
<path class="st0" d="M198,0l-24,52.2c-1.8,7.8-2.4,21.6,5.4,34.8c4.2,7.2,1.8,4.8-4.2-2.4c-2.4-3-4.8-6.6-7.8-10.2
	c-0.6-0.6-0.6-0.6-1.2-1.8c-0.6-0.6-0.6-0.6-1.2-0.6c-5.4-4.8-12-8.4-18.6-10.2c-7.8-2.4-18.6-3-33.6-3h-30v24.6L45.6,0L0,229.8
	h34.2l23.4-129l12,26.4c3-6,6-13.8,6-23.4c0-18.6,4.8,23.4,6.6,51.6l0.6,1.8l26.4,58.8l10.8,24l42.6-91.8l18.6-40.2l3.6-7.2l21,129
	H240L198,0z M109.2,82.2h9c18.6,0,30,4.8,35.4,15l-18,37.8c-4.8,1.2-10.2,1.8-16.2,1.8h-9.6L109.2,82.2L109.2,82.2z M120.6,166.2
	l-2.4-6h3.6c0.6,0,1.2,0,1.8,0L120.6,166.2z"/>
</svg>
