<?xml version="1.0" encoding="utf-8"?>
<!-- Generator: $$$/GeneralStr/196=Adobe Illustrator 27.6.0, SVG Export Plug-In . SVG Version: 6.00 Build 0)  -->
<svg version="1.1" id="Calque_1" xmlns="http://www.w3.org/2000/svg" xmlns:xlink="http://www.w3.org/1999/xlink" x="0px" y="0px"
	 width="20px" height="20px" viewBox="0 0 20 20" style="enable-background:new 0 0 20 20;" xml:space="preserve">
<style type="text/css">
	.st0{fill:#FFFFFF;}
</style>
<g>
	<polygon class="st0" points="7.6,10.9 12.7,10.9 10.3,20 	"/>
	<g>
		<polygon class="st0" points="13.4,9 13.5,8.5 6.8,8.5 6.9,9 		"/>
		<polygon class="st0" points="13.3,9.5 7,9.5 7.1,9.9 13.2,9.9 		"/>
		<polygon class="st0" points="7.2,10.3 7.4,10.9 12.9,10.9 13.1,10.3 		"/>
	</g>
	<path class="st0" d="M8.1,7.6c0,0-3.5-2.2-0.1-5.5c0,0-0.7,1.4,0.4,2.4c0,0,2-2.2,1-4.5c0,0,6.2,2.4,3.1,7.6c0,0-0.1-2.2-1.3-3.1
		c0,0,0.3,1.1-1.1,2.7c0,0-1.4-0.3-1.4-1.6C8.6,5.6,7.7,6,8.1,7.6z"/>
</g>
</svg>
